STARTFONT 2.3
FONT -FontForge-Rajdhani-Book-R-Normal--11-110-72-72-P-67-ISO10646-1
SIZE 11 72 72  2
FONTBOUNDINGBOX 28 15 -5 -4
COMMENT "Generated by fontforge, http://fontforge.sourceforge.net"
COMMENT "Copyright (c) 2014 Indian Type Foundry (info@indiantypefoundry.com)"
STARTPROPERTIES 41
FOUNDRY "FontForge"
FAMILY_NAME "Rajdhani"
WEIGHT_NAME "Book"
SLANT "R"
SETWIDTH_NAME "Normal"
ADD_STYLE_NAME ""
PIXEL_SIZE 11
POINT_SIZE 110
RESOLUTION_X 72
RESOLUTION_Y 72
SPACING "P"
AVERAGE_WIDTH 67
CHARSET_REGISTRY "ISO10646"
CHARSET_ENCODING "1"
FONTNAME_REGISTRY ""
CHARSET_COLLECTIONS "ISO8859-2 ISO8859-9 ISO8859-4 ISO10646-1"
BITS_PER_PIXEL 2
FONT_NAME "Rajdhani-Regular"
FACE_NAME "Rajdhani Regular"
COPYRIGHT "Copyright (c) 2014 Indian Type Foundry (info@indiantypefoundry.com)"
FONT_VERSION "1.201;PS 1.0;hotconv 1.0.78;makeotf.lib2.5.61930; ttfautohint (v1.1) -l 7 -r 28 -G 50 -x 13 -D latn -f deva -w G"
FONT_ASCENT 9
FONT_DESCENT 2
UNDERLINE_POSITION -1
UNDERLINE_THICKNESS 1
X_HEIGHT 5
CAP_HEIGHT 7
DEFAULT_CHAR 3
RAW_ASCENT 800
RAW_DESCENT 200
NORM_SPACE 3
RELATIVE_WEIGHT 40
RELATIVE_SETWIDTH 50
SUPERSCRIPT_X 0
SUPERSCRIPT_Y 3
SUPERSCRIPT_SIZE 6
SUBSCRIPT_X 0
SUBSCRIPT_Y 0
SUBSCRIPT_SIZE 6
AVG_LOWERCASE_WIDTH 50
AVG_UPPERCASE_WIDTH 57
ENDPROPERTIES
CHARS 1043
STARTCHAR NULL.dup1
ENCODING 0
SWIDTH 0 0
DWIDTH 0 0
BBX 1 1 0 0
BITMAP
00
ENDCHAR
STARTCHAR CR
ENCODING 13
SWIDTH 0 0
DWIDTH 0 0
BBX 1 1 0 0
BITMAP
00
ENDCHAR
STARTCHAR space
ENCODING 32
SWIDTH 267 0
DWIDTH 3 0
BBX 1 1 0 0
BITMAP
00
ENDCHAR
STARTCHAR exclam
ENCODING 33
SWIDTH 237 0
DWIDTH 3 0
BBX 1 8 1 0
BITMAP
80
80
80
80
40
00
40
80
ENDCHAR
STARTCHAR quotedbl
ENCODING 34
SWIDTH 330 0
DWIDTH 4 0
BBX 3 2 0 6
BITMAP
58
54
ENDCHAR
STARTCHAR numbersign
ENCODING 35
SWIDTH 677 0
DWIDTH 7 0
BBX 7 8 0 0
BITMAP
0110
0110
1AA4
0410
0440
6AA0
1040
1040
ENDCHAR
STARTCHAR dollar
ENCODING 36
SWIDTH 504 0
DWIDTH 6 0
BBX 5 10 0 -1
BITMAP
0400
2A40
5080
5040
1000
1A40
0080
5080
2A40
0400
ENDCHAR
STARTCHAR percent
ENCODING 37
SWIDTH 717 0
DWIDTH 8 0
BBX 8 8 0 0
BITMAP
5810
4140
4140
1440
0114
0141
0541
0458
ENDCHAR
STARTCHAR ampersand
ENCODING 38
SWIDTH 597 0
DWIDTH 7 0
BBX 6 8 0 0
BITMAP
0A40
1080
2040
1800
1A90
5200
5080
2A60
ENDCHAR
STARTCHAR quotesingle
ENCODING 39
SWIDTH 186 0
DWIDTH 2 0
BBX 2 2 0 6
BITMAP
50
50
ENDCHAR
STARTCHAR parenleft
ENCODING 40
SWIDTH 283 0
DWIDTH 3 0
BBX 2 9 0 -1
BITMAP
20
50
40
40
40
40
40
50
10
ENDCHAR
STARTCHAR parenright
ENCODING 41
SWIDTH 283 0
DWIDTH 3 0
BBX 3 9 0 -1
BITMAP
60
14
04
04
04
04
04
14
50
ENDCHAR
STARTCHAR asterisk
ENCODING 42
SWIDTH 406 0
DWIDTH 4 0
BBX 3 3 1 5
BITMAP
10
54
50
ENDCHAR
STARTCHAR plus
ENCODING 43
SWIDTH 523 0
DWIDTH 6 0
BBX 4 5 1 1
BITMAP
10
10
A9
10
10
ENDCHAR
STARTCHAR comma
ENCODING 44
SWIDTH 191 0
DWIDTH 2 0
BBX 2 2 0 0
BITMAP
50
50
ENDCHAR
STARTCHAR hyphen
ENCODING 45
SWIDTH 312 0
DWIDTH 3 0
BBX 3 1 0 3
BITMAP
64
ENDCHAR
STARTCHAR period
ENCODING 46
SWIDTH 191 0
DWIDTH 2 0
BBX 2 2 0 0
BITMAP
10
50
ENDCHAR
STARTCHAR slash
ENCODING 47
SWIDTH 396 0
DWIDTH 4 0
BBX 4 8 0 0
BITMAP
02
05
08
08
14
20
20
50
ENDCHAR
STARTCHAR zero
ENCODING 48
SWIDTH 514 0
DWIDTH 6 0
BBX 5 8 0 0
BITMAP
2A40
5080
5080
5080
5080
5080
5080
2A40
ENDCHAR
STARTCHAR one
ENCODING 49
SWIDTH 317 0
DWIDTH 3 0
BBX 3 8 0 0
BITMAP
28
48
08
08
08
08
08
08
ENDCHAR
STARTCHAR two
ENCODING 50
SWIDTH 478 0
DWIDTH 5 0
BBX 5 8 0 0
BITMAP
2A40
5080
0080
0240
0900
2000
5000
6A40
ENDCHAR
STARTCHAR three
ENCODING 51
SWIDTH 496 0
DWIDTH 5 0
BBX 5 8 0 0
BITMAP
2A40
5080
4080
0080
0640
0080
5080
2A40
ENDCHAR
STARTCHAR four
ENCODING 52
SWIDTH 520 0
DWIDTH 6 0
BBX 5 8 0 0
BITMAP
0240
0640
0940
1440
2040
5040
6A80
0040
ENDCHAR
STARTCHAR five
ENCODING 53
SWIDTH 482 0
DWIDTH 5 0
BBX 5 8 0 0
BITMAP
6A40
5000
5000
6600
0080
0080
5080
2A40
ENDCHAR
STARTCHAR six
ENCODING 54
SWIDTH 497 0
DWIDTH 5 0
BBX 5 8 0 0
BITMAP
2A40
5000
5000
6A00
5080
5080
5080
2A40
ENDCHAR
STARTCHAR seven
ENCODING 55
SWIDTH 380 0
DWIDTH 4 0
BBX 4 8 0 0
BITMAP
6A
02
05
08
08
14
20
20
ENDCHAR
STARTCHAR eight
ENCODING 56
SWIDTH 519 0
DWIDTH 6 0
BBX 5 8 0 0
BITMAP
2A40
5080
5080
1080
2A40
5080
5080
2A40
ENDCHAR
STARTCHAR nine
ENCODING 57
SWIDTH 497 0
DWIDTH 5 0
BBX 5 8 0 0
BITMAP
2A40
5080
5080
5080
1A80
0080
0080
2A40
ENDCHAR
STARTCHAR colon
ENCODING 58
SWIDTH 191 0
DWIDTH 2 0
BBX 2 6 0 0
BITMAP
50
10
00
00
10
50
ENDCHAR
STARTCHAR semicolon
ENCODING 59
SWIDTH 191 0
DWIDTH 2 0
BBX 2 7 0 -1
BITMAP
50
10
00
00
50
50
40
ENDCHAR
STARTCHAR less
ENCODING 60
SWIDTH 513 0
DWIDTH 6 0
BBX 5 4 0 2
BITMAP
0040
0640
6000
0640
ENDCHAR
STARTCHAR equal
ENCODING 61
SWIDTH 531 0
DWIDTH 6 0
BBX 4 3 1 2
BITMAP
A9
00
A9
ENDCHAR
STARTCHAR greater
ENCODING 62
SWIDTH 531 0
DWIDTH 6 0
BBX 4 4 1 2
BITMAP
40
64
06
54
ENDCHAR
STARTCHAR question
ENCODING 63
SWIDTH 473 0
DWIDTH 5 0
BBX 5 8 0 0
BITMAP
2A00
5140
0140
0200
0800
0400
0400
0800
ENDCHAR
STARTCHAR at
ENCODING 64
SWIDTH 753 0
DWIDTH 8 0
BBX 7 8 1 -1
BITMAP
1550
5A44
5084
6084
5084
4550
4000
1540
ENDCHAR
STARTCHAR A
ENCODING 65
SWIDTH 533 0
DWIDTH 6 0
BBX 6 8 0 0
BITMAP
0900
0A00
0600
1140
2080
2A80
5040
8010
ENDCHAR
STARTCHAR B
ENCODING 66
SWIDTH 546 0
DWIDTH 6 0
BBX 5 8 1 0
BITMAP
AA00
4100
4100
4200
AA00
4140
4140
AA00
ENDCHAR
STARTCHAR C
ENCODING 67
SWIDTH 542 0
DWIDTH 6 0
BBX 6 8 0 0
BITMAP
2A80
1050
5000
5000
5000
5000
1050
2A80
ENDCHAR
STARTCHAR D
ENCODING 68
SWIDTH 557 0
DWIDTH 6 0
BBX 5 8 1 0
BITMAP
AA00
4140
4140
4140
4140
4140
4140
AA00
ENDCHAR
STARTCHAR E
ENCODING 69
SWIDTH 481 0
DWIDTH 5 0
BBX 4 8 1 0
BITMAP
A9
40
40
40
A8
40
40
A9
ENDCHAR
STARTCHAR F
ENCODING 70
SWIDTH 459 0
DWIDTH 5 0
BBX 4 8 1 0
BITMAP
A9
40
40
40
A8
40
40
40
ENDCHAR
STARTCHAR G
ENCODING 71
SWIDTH 539 0
DWIDTH 6 0
BBX 5 8 0 0
BITMAP
2A80
1080
5040
5000
5180
5040
1040
2A80
ENDCHAR
STARTCHAR H
ENCODING 72
SWIDTH 570 0
DWIDTH 6 0
BBX 5 8 1 0
BITMAP
4140
4140
4140
4140
AA40
4140
4140
4140
ENDCHAR
STARTCHAR I
ENCODING 73
SWIDTH 230 0
DWIDTH 3 0
BBX 1 8 1 0
BITMAP
80
80
80
80
80
80
80
80
ENDCHAR
STARTCHAR J
ENCODING 74
SWIDTH 499 0
DWIDTH 5 0
BBX 5 8 0 0
BITMAP
0080
0080
0080
0080
0080
4080
8080
6A40
ENDCHAR
STARTCHAR K
ENCODING 75
SWIDTH 530 0
DWIDTH 6 0
BBX 5 8 1 0
BITMAP
4200
4500
4800
6000
9400
8400
4200
4140
ENDCHAR
STARTCHAR L
ENCODING 76
SWIDTH 451 0
DWIDTH 5 0
BBX 4 8 1 0
BITMAP
40
40
40
40
40
40
40
A9
ENDCHAR
STARTCHAR M
ENCODING 77
SWIDTH 696 0
DWIDTH 8 0
BBX 6 8 1 0
BITMAP
C060
90A0
60A0
5160
4620
4920
4020
4020
ENDCHAR
STARTCHAR N
ENCODING 78
SWIDTH 579 0
DWIDTH 6 0
BBX 5 8 1 0
BITMAP
8040
D040
A040
5440
4840
4540
4240
4140
ENDCHAR
STARTCHAR O
ENCODING 79
SWIDTH 553 0
DWIDTH 6 0
BBX 6 8 0 0
BITMAP
2A80
1050
5050
5050
5050
5050
1050
2A80
ENDCHAR
STARTCHAR P
ENCODING 80
SWIDTH 524 0
DWIDTH 6 0
BBX 4 8 1 0
BITMAP
AA
41
41
42
A9
40
40
40
ENDCHAR
STARTCHAR Q
ENCODING 81
SWIDTH 556 0
DWIDTH 6 0
BBX 5 10 1 -2
BITMAP
AA00
4140
4140
4140
4140
4140
4140
AA00
0800
0100
ENDCHAR
STARTCHAR R
ENCODING 82
SWIDTH 534 0
DWIDTH 6 0
BBX 4 8 1 0
BITMAP
AA
42
41
42
A9
45
42
41
ENDCHAR
STARTCHAR S
ENCODING 83
SWIDTH 562 0
DWIDTH 6 0
BBX 5 8 1 0
BITMAP
AA00
8140
4000
A400
0600
0140
8140
AA00
ENDCHAR
STARTCHAR T
ENCODING 84
SWIDTH 420 0
DWIDTH 5 0
BBX 5 8 0 0
BITMAP
6A40
0800
0800
0800
0800
0800
0800
0800
ENDCHAR
STARTCHAR U
ENCODING 85
SWIDTH 552 0
DWIDTH 6 0
BBX 5 8 1 0
BITMAP
4140
4140
4140
4140
4140
4140
8100
AA00
ENDCHAR
STARTCHAR V
ENCODING 86
SWIDTH 500 0
DWIDTH 6 0
BBX 5 8 0 0
BITMAP
8040
5080
1080
2140
2200
1600
0900
0900
ENDCHAR
STARTCHAR W
ENCODING 87
SWIDTH 794 0
DWIDTH 9 0
BBX 9 8 0 0
BITMAP
808140
518100
525200
221200
212200
251500
181800
180C00
ENDCHAR
STARTCHAR X
ENCODING 88
SWIDTH 504 0
DWIDTH 6 0
BBX 5 8 0 0
BITMAP
5080
2140
1600
0900
0900
1200
2040
5080
ENDCHAR
STARTCHAR Y
ENCODING 89
SWIDTH 493 0
DWIDTH 5 0
BBX 5 8 0 0
BITMAP
8080
1080
2100
1600
0900
0800
0800
0800
ENDCHAR
STARTCHAR Z
ENCODING 90
SWIDTH 482 0
DWIDTH 5 0
BBX 5 8 0 0
BITMAP
6A80
0140
0200
0500
0800
2000
2000
6A40
ENDCHAR
STARTCHAR bracketleft
ENCODING 91
SWIDTH 287 0
DWIDTH 3 0
BBX 3 9 0 -1
BITMAP
64
50
50
50
50
50
50
50
64
ENDCHAR
STARTCHAR backslash
ENCODING 92
SWIDTH 396 0
DWIDTH 4 0
BBX 4 8 0 0
BITMAP
50
20
20
14
08
08
05
02
ENDCHAR
STARTCHAR bracketright
ENCODING 93
SWIDTH 287 0
DWIDTH 3 0
BBX 2 9 1 -1
BITMAP
90
10
10
10
10
10
10
10
90
ENDCHAR
STARTCHAR asciicircum
ENCODING 94
SWIDTH 465 0
DWIDTH 5 0
BBX 4 4 1 4
BITMAP
24
48
44
01
ENDCHAR
STARTCHAR underscore
ENCODING 95
SWIDTH 372 0
DWIDTH 4 0
BBX 4 1 0 -1
BITMAP
55
ENDCHAR
STARTCHAR grave
ENCODING 96
SWIDTH 269 0
DWIDTH 3 0
BBX 1 2 1 6
BITMAP
80
40
ENDCHAR
STARTCHAR a
ENCODING 97
SWIDTH 502 0
DWIDTH 6 0
BBX 5 6 0 0
BITMAP
2A80
5080
5080
5080
5080
2A80
ENDCHAR
STARTCHAR b
ENCODING 98
SWIDTH 504 0
DWIDTH 6 0
BBX 5 8 0 0
BITMAP
1000
5000
6A40
5080
5080
5080
5080
2A40
ENDCHAR
STARTCHAR c
ENCODING 99
SWIDTH 394 0
DWIDTH 4 0
BBX 4 6 0 0
BITMAP
29
50
50
50
50
29
ENDCHAR
STARTCHAR d
ENCODING 100
SWIDTH 504 0
DWIDTH 6 0
BBX 5 8 0 0
BITMAP
0080
0080
2A80
5080
5080
5080
5080
2A80
ENDCHAR
STARTCHAR e
ENCODING 101
SWIDTH 492 0
DWIDTH 5 0
BBX 5 6 0 0
BITMAP
2A40
5080
5080
6540
5000
2A40
ENDCHAR
STARTCHAR f
ENCODING 102
SWIDTH 303 0
DWIDTH 3 0
BBX 3 8 0 0
BITMAP
18
20
68
20
20
20
20
20
ENDCHAR
STARTCHAR g
ENCODING 103
SWIDTH 506 0
DWIDTH 6 0
BBX 5 8 0 -2
BITMAP
2A80
5080
5080
5080
1080
1980
0080
1A40
ENDCHAR
STARTCHAR h
ENCODING 104
SWIDTH 507 0
DWIDTH 6 0
BBX 5 8 0 0
BITMAP
1000
5000
6A40
5080
5080
5080
5080
1080
ENDCHAR
STARTCHAR i
ENCODING 105
SWIDTH 210 0
DWIDTH 2 0
BBX 1 8 1 0
BITMAP
40
40
40
40
40
40
40
40
ENDCHAR
STARTCHAR j
ENCODING 106
SWIDTH 210 0
DWIDTH 2 0
BBX 3 10 -1 -2
BITMAP
04
04
04
04
04
04
04
04
14
60
ENDCHAR
STARTCHAR k
ENCODING 107
SWIDTH 431 0
DWIDTH 5 0
BBX 5 8 0 0
BITMAP
1000
5000
5140
5200
5800
5800
5200
1140
ENDCHAR
STARTCHAR l
ENCODING 108
SWIDTH 210 0
DWIDTH 2 0
BBX 1 8 1 0
BITMAP
40
40
40
40
40
40
40
40
ENDCHAR
STARTCHAR m
ENCODING 109
SWIDTH 769 0
DWIDTH 8 0
BBX 8 6 0 0
BITMAP
2A69
5082
5082
5082
5082
1082
ENDCHAR
STARTCHAR n
ENCODING 110
SWIDTH 507 0
DWIDTH 6 0
BBX 5 6 0 0
BITMAP
2A40
5080
5080
5080
5080
1080
ENDCHAR
STARTCHAR o
ENCODING 111
SWIDTH 496 0
DWIDTH 5 0
BBX 5 6 0 0
BITMAP
2A40
5080
5080
5080
5080
2A40
ENDCHAR
STARTCHAR p
ENCODING 112
SWIDTH 504 0
DWIDTH 6 0
BBX 5 8 0 -2
BITMAP
2A40
5080
5080
5080
5080
6A40
5000
1000
ENDCHAR
STARTCHAR q
ENCODING 113
SWIDTH 502 0
DWIDTH 6 0
BBX 5 8 0 -2
BITMAP
2A80
5080
5080
5080
5080
2A80
0080
0080
ENDCHAR
STARTCHAR r
ENCODING 114
SWIDTH 313 0
DWIDTH 3 0
BBX 3 6 0 0
BITMAP
28
50
50
50
50
10
ENDCHAR
STARTCHAR s
ENCODING 115
SWIDTH 431 0
DWIDTH 5 0
BBX 4 6 0 0
BITMAP
69
50
24
06
01
6A
ENDCHAR
STARTCHAR t
ENCODING 116
SWIDTH 347 0
DWIDTH 4 0
BBX 4 7 0 0
BITMAP
20
68
20
20
20
20
19
ENDCHAR
STARTCHAR u
ENCODING 117
SWIDTH 507 0
DWIDTH 6 0
BBX 5 6 0 0
BITMAP
5080
5080
5080
5080
5080
2A80
ENDCHAR
STARTCHAR v
ENCODING 118
SWIDTH 416 0
DWIDTH 5 0
BBX 5 6 0 0
BITMAP
8140
5200
1200
2500
1400
1800
ENDCHAR
STARTCHAR w
ENCODING 119
SWIDTH 683 0
DWIDTH 8 0
BBX 7 6 0 0
BITMAP
8204
4248
1148
2454
2460
1820
ENDCHAR
STARTCHAR x
ENCODING 120
SWIDTH 413 0
DWIDTH 5 0
BBX 4 6 0 0
BITMAP
52
25
18
18
21
42
ENDCHAR
STARTCHAR y
ENCODING 121
SWIDTH 459 0
DWIDTH 5 0
BBX 5 8 0 -2
BITMAP
8080
5140
2200
2200
1500
0C00
0800
6400
ENDCHAR
STARTCHAR z
ENCODING 122
SWIDTH 405 0
DWIDTH 4 0
BBX 4 6 0 0
BITMAP
6A
05
08
14
20
AA
ENDCHAR
STARTCHAR braceleft
ENCODING 123
SWIDTH 298 0
DWIDTH 3 0
BBX 3 9 0 -1
BITMAP
14
10
10
10
50
10
10
10
14
ENDCHAR
STARTCHAR bar
ENCODING 124
SWIDTH 207 0
DWIDTH 2 0
BBX 1 8 1 0
BITMAP
40
40
40
40
40
40
40
40
ENDCHAR
STARTCHAR braceright
ENCODING 125
SWIDTH 298 0
DWIDTH 3 0
BBX 3 9 0 -1
BITMAP
50
10
20
10
14
10
20
20
50
ENDCHAR
STARTCHAR asciitilde
ENCODING 126
SWIDTH 523 0
DWIDTH 6 0
BBX 4 1 1 3
BITMAP
55
ENDCHAR
STARTCHAR uni00A0
ENCODING 160
SWIDTH 267 0
DWIDTH 3 0
BBX 1 1 0 0
BITMAP
00
ENDCHAR
STARTCHAR exclamdown
ENCODING 161
SWIDTH 237 0
DWIDTH 3 0
BBX 1 8 1 0
BITMAP
80
40
00
40
80
80
80
80
ENDCHAR
STARTCHAR cent
ENCODING 162
SWIDTH 414 0
DWIDTH 5 0
BBX 4 8 0 -1
BITMAP
04
2A
50
50
50
50
2A
04
ENDCHAR
STARTCHAR sterling
ENCODING 163
SWIDTH 528 0
DWIDTH 6 0
BBX 5 8 0 0
BITMAP
1A40
2080
2000
2000
6900
2000
2000
6A80
ENDCHAR
STARTCHAR yen
ENCODING 165
SWIDTH 499 0
DWIDTH 5 0
BBX 5 8 0 0
BITMAP
8080
5080
2140
1600
6A40
5940
0800
0800
ENDCHAR
STARTCHAR brokenbar
ENCODING 166
SWIDTH 201 0
DWIDTH 2 0
BBX 1 8 1 0
BITMAP
40
40
40
00
00
40
40
40
ENDCHAR
STARTCHAR section
ENCODING 167
SWIDTH 454 0
DWIDTH 5 0
BBX 5 8 0 0
BITMAP
2A00
5000
6400
5600
2540
0640
0140
2A00
ENDCHAR
STARTCHAR dieresis
ENCODING 168
SWIDTH 345 0
DWIDTH 4 0
BBX 3 2 0 6
BITMAP
54
04
ENDCHAR
STARTCHAR copyright
ENCODING 169
SWIDTH 723 0
DWIDTH 8 0
BBX 7 8 0 0
BITMAP
2558
5004
5554
5414
5404
5414
5144
2558
ENDCHAR
STARTCHAR guillemotleft
ENCODING 171
SWIDTH 431 0
DWIDTH 5 0
BBX 3 4 1 1
BITMAP
14
54
50
54
ENDCHAR
STARTCHAR registered
ENCODING 174
SWIDTH 439 0
DWIDTH 5 0
BBX 4 3 0 5
BITMAP
29
59
15
ENDCHAR
STARTCHAR macron
ENCODING 175
SWIDTH 358 0
DWIDTH 4 0
BBX 2 1 1 7
BITMAP
50
ENDCHAR
STARTCHAR degree
ENCODING 176
SWIDTH 298 0
DWIDTH 3 0
BBX 2 3 1 5
BITMAP
90
50
50
ENDCHAR
STARTCHAR plusminus
ENCODING 177
SWIDTH 523 0
DWIDTH 6 0
BBX 4 5 1 1
BITMAP
10
A9
10
00
A9
ENDCHAR
STARTCHAR acute
ENCODING 180
SWIDTH 269 0
DWIDTH 3 0
BBX 1 1 1 7
BITMAP
80
ENDCHAR
STARTCHAR paragraph
ENCODING 182
SWIDTH 513 0
DWIDTH 6 0
BBX 5 8 0 0
BITMAP
7A80
7480
7480
7480
0480
0480
0480
0440
ENDCHAR
STARTCHAR periodcentered
ENCODING 183
SWIDTH 207 0
DWIDTH 2 0
BBX 1 2 1 3
BITMAP
40
40
ENDCHAR
STARTCHAR cedilla
ENCODING 184
SWIDTH 257 0
DWIDTH 3 0
BBX 1 3 1 -2
BITMAP
40
80
40
ENDCHAR
STARTCHAR guillemotright
ENCODING 187
SWIDTH 431 0
DWIDTH 5 0
BBX 3 4 1 1
BITMAP
10
54
58
50
ENDCHAR
STARTCHAR questiondown
ENCODING 191
SWIDTH 473 0
DWIDTH 5 0
BBX 5 8 0 0
BITMAP
0800
0400
0400
0800
1400
1040
5140
2A00
ENDCHAR
STARTCHAR Agrave
ENCODING 192
SWIDTH 532 0
DWIDTH 6 0
BBX 6 10 0 0
BITMAP
0800
0400
0900
0A00
0600
1140
2080
2A80
5040
8010
ENDCHAR
STARTCHAR Aacute
ENCODING 193
SWIDTH 532 0
DWIDTH 6 0
BBX 6 10 0 0
BITMAP
0200
0100
0900
0A00
0600
1140
2080
2A80
5040
8010
ENDCHAR
STARTCHAR Acircumflex
ENCODING 194
SWIDTH 532 0
DWIDTH 6 0
BBX 6 10 0 0
BITMAP
0500
0500
0900
0A00
0600
1140
2080
2A80
5040
8010
ENDCHAR
STARTCHAR Atilde
ENCODING 195
SWIDTH 532 0
DWIDTH 6 0
BBX 6 10 0 0
BITMAP
0100
0500
0900
0A00
0600
1140
2080
2A80
5040
8010
ENDCHAR
STARTCHAR Adieresis
ENCODING 196
SWIDTH 532 0
DWIDTH 6 0
BBX 6 10 0 0
BITMAP
1500
0100
0900
0A00
0600
1140
2080
2A80
5040
8010
ENDCHAR
STARTCHAR Aring
ENCODING 197
SWIDTH 532 0
DWIDTH 6 0
BBX 6 11 0 0
BITMAP
0500
0500
0500
0A00
0A00
0600
1140
2080
2A80
5040
8010
ENDCHAR
STARTCHAR AE
ENCODING 198
SWIDTH 773 0
DWIDTH 9 0
BBX 8 8 0 0
BITMAP
01E9
0280
0580
0880
14A9
2A80
5080
80A9
ENDCHAR
STARTCHAR Ccedilla
ENCODING 199
SWIDTH 542 0
DWIDTH 6 0
BBX 6 10 0 -2
BITMAP
2A80
1050
5000
5000
5000
5000
1050
2A80
0500
0100
ENDCHAR
STARTCHAR Egrave
ENCODING 200
SWIDTH 481 0
DWIDTH 5 0
BBX 4 10 1 0
BITMAP
10
10
A9
40
40
40
A8
40
40
A9
ENDCHAR
STARTCHAR Eacute
ENCODING 201
SWIDTH 481 0
DWIDTH 5 0
BBX 4 10 1 0
BITMAP
08
10
A9
40
40
40
A8
40
40
A9
ENDCHAR
STARTCHAR Ecircumflex
ENCODING 202
SWIDTH 481 0
DWIDTH 5 0
BBX 4 10 1 0
BITMAP
24
04
A9
40
40
40
A8
40
40
A9
ENDCHAR
STARTCHAR Edieresis
ENCODING 203
SWIDTH 481 0
DWIDTH 5 0
BBX 4 10 1 0
BITMAP
48
44
A9
40
40
40
A8
40
40
A9
ENDCHAR
STARTCHAR Igrave
ENCODING 204
SWIDTH 230 0
DWIDTH 3 0
BBX 2 10 0 0
BITMAP
80
10
20
20
20
20
20
20
20
20
ENDCHAR
STARTCHAR Iacute
ENCODING 205
SWIDTH 231 0
DWIDTH 3 0
BBX 2 10 1 0
BITMAP
50
40
80
80
80
80
80
80
80
80
ENDCHAR
STARTCHAR Icircumflex
ENCODING 206
SWIDTH 229 0
DWIDTH 3 0
BBX 2 10 0 0
BITMAP
60
40
20
20
20
20
20
20
20
20
ENDCHAR
STARTCHAR Idieresis
ENCODING 207
SWIDTH 230 0
DWIDTH 3 0
BBX 3 10 0 0
BITMAP
84
44
20
20
20
20
20
20
20
20
ENDCHAR
STARTCHAR Eth
ENCODING 208
SWIDTH 514 0
DWIDTH 6 0
BBX 6 8 0 0
BITMAP
2A80
2050
2050
2050
6850
2050
2050
2A80
ENDCHAR
STARTCHAR Ntilde
ENCODING 209
SWIDTH 579 0
DWIDTH 6 0
BBX 5 10 1 0
BITMAP
1400
1100
8040
D040
A040
5440
4840
4540
4240
4140
ENDCHAR
STARTCHAR Ograve
ENCODING 210
SWIDTH 553 0
DWIDTH 6 0
BBX 6 10 0 0
BITMAP
0800
0000
2A80
1050
5050
5050
5050
5050
1050
2A80
ENDCHAR
STARTCHAR Oacute
ENCODING 211
SWIDTH 553 0
DWIDTH 6 0
BBX 6 10 0 0
BITMAP
0200
0100
2A80
1050
5050
5050
5050
5050
1050
2A80
ENDCHAR
STARTCHAR Ocircumflex
ENCODING 212
SWIDTH 553 0
DWIDTH 6 0
BBX 6 10 0 0
BITMAP
0500
0500
2A80
1050
5050
5050
5050
5050
1050
2A80
ENDCHAR
STARTCHAR Otilde
ENCODING 213
SWIDTH 553 0
DWIDTH 6 0
BBX 6 10 0 0
BITMAP
0100
0400
2A80
1050
5050
5050
5050
5050
1050
2A80
ENDCHAR
STARTCHAR Odieresis
ENCODING 214
SWIDTH 553 0
DWIDTH 6 0
BBX 6 10 0 0
BITMAP
0540
0500
2A80
1050
5050
5050
5050
5050
1050
2A80
ENDCHAR
STARTCHAR multiply
ENCODING 215
SWIDTH 493 0
DWIDTH 5 0
BBX 3 3 1 2
BITMAP
98
34
88
ENDCHAR
STARTCHAR Oslash
ENCODING 216
SWIDTH 559 0
DWIDTH 6 0
BBX 6 8 0 0
BITMAP
2A90
1090
1190
1150
1450
2450
2050
6A80
ENDCHAR
STARTCHAR Ugrave
ENCODING 217
SWIDTH 552 0
DWIDTH 6 0
BBX 5 10 1 0
BITMAP
2000
0000
4140
4140
4140
4140
4140
4140
8100
AA00
ENDCHAR
STARTCHAR Uacute
ENCODING 218
SWIDTH 552 0
DWIDTH 6 0
BBX 5 10 1 0
BITMAP
0800
0400
4140
4140
4140
4140
4140
4140
8100
AA00
ENDCHAR
STARTCHAR Ucircumflex
ENCODING 219
SWIDTH 552 0
DWIDTH 6 0
BBX 5 10 1 0
BITMAP
1400
1400
4140
4140
4140
4140
4140
4140
8100
AA00
ENDCHAR
STARTCHAR Udieresis
ENCODING 220
SWIDTH 552 0
DWIDTH 6 0
BBX 5 10 1 0
BITMAP
1500
1400
4140
4140
4140
4140
4140
4140
8100
AA00
ENDCHAR
STARTCHAR Yacute
ENCODING 221
SWIDTH 493 0
DWIDTH 5 0
BBX 5 10 0 0
BITMAP
0200
0400
8080
1080
2100
1600
0900
0800
0800
0800
ENDCHAR
STARTCHAR Thorn
ENCODING 222
SWIDTH 501 0
DWIDTH 6 0
BBX 4 8 1 0
BITMAP
80
80
A9
82
82
82
A8
80
ENDCHAR
STARTCHAR germandbls
ENCODING 223
SWIDTH 540 0
DWIDTH 6 0
BBX 4 8 1 0
BITMAP
A9
42
41
42
4A
41
41
5A
ENDCHAR
STARTCHAR agrave
ENCODING 224
SWIDTH 502 0
DWIDTH 6 0
BBX 5 8 0 0
BITMAP
0800
0000
2A80
5080
5080
5080
5080
2A80
ENDCHAR
STARTCHAR aacute
ENCODING 225
SWIDTH 502 0
DWIDTH 6 0
BBX 5 8 0 0
BITMAP
0200
0000
2A80
5080
5080
5080
5080
2A80
ENDCHAR
STARTCHAR acircumflex
ENCODING 226
SWIDTH 502 0
DWIDTH 6 0
BBX 5 8 0 0
BITMAP
0500
0000
2A80
5080
5080
5080
5080
2A80
ENDCHAR
STARTCHAR atilde
ENCODING 227
SWIDTH 504 0
DWIDTH 6 0
BBX 5 8 0 0
BITMAP
1600
0400
2A80
5080
5080
5080
5080
2A80
ENDCHAR
STARTCHAR adieresis
ENCODING 228
SWIDTH 502 0
DWIDTH 6 0
BBX 5 8 0 0
BITMAP
1500
0100
2A80
5080
5080
5080
5080
2A80
ENDCHAR
STARTCHAR aring
ENCODING 229
SWIDTH 502 0
DWIDTH 6 0
BBX 5 9 0 0
BITMAP
0500
0500
0500
2A80
5080
5080
5080
5080
2A80
ENDCHAR
STARTCHAR ae
ENCODING 230
SWIDTH 795 0
DWIDTH 9 0
BBX 8 6 0 0
BITMAP
1AA9
0082
1581
5096
5080
2AAA
ENDCHAR
STARTCHAR ccedilla
ENCODING 231
SWIDTH 394 0
DWIDTH 4 0
BBX 4 8 0 -2
BITMAP
29
50
50
50
50
29
08
05
ENDCHAR
STARTCHAR egrave
ENCODING 232
SWIDTH 492 0
DWIDTH 5 0
BBX 5 8 0 0
BITMAP
0400
0000
2A40
5080
5080
6540
5000
2A40
ENDCHAR
STARTCHAR eacute
ENCODING 233
SWIDTH 492 0
DWIDTH 5 0
BBX 5 8 0 0
BITMAP
0500
0000
2A40
5080
5080
6540
5000
2A40
ENDCHAR
STARTCHAR ecircumflex
ENCODING 234
SWIDTH 492 0
DWIDTH 5 0
BBX 5 8 0 0
BITMAP
0900
0000
2A40
5080
5080
6540
5000
2A40
ENDCHAR
STARTCHAR edieresis
ENCODING 235
SWIDTH 492 0
DWIDTH 5 0
BBX 5 8 0 0
BITMAP
1200
1100
2A40
5080
5080
6540
5000
2A40
ENDCHAR
STARTCHAR igrave
ENCODING 236
SWIDTH 210 0
DWIDTH 2 0
BBX 2 8 0 0
BITMAP
80
00
10
10
10
10
10
10
ENDCHAR
STARTCHAR iacute
ENCODING 237
SWIDTH 208 0
DWIDTH 2 0
BBX 1 8 1 0
BITMAP
40
00
40
40
40
40
40
40
ENDCHAR
STARTCHAR icircumflex
ENCODING 238
SWIDTH 210 0
DWIDTH 2 0
BBX 2 8 0 0
BITMAP
50
00
10
10
10
10
10
10
ENDCHAR
STARTCHAR idieresis
ENCODING 239
SWIDTH 210 0
DWIDTH 2 0
BBX 3 8 0 0
BITMAP
94
40
10
10
10
10
10
10
ENDCHAR
STARTCHAR eth
ENCODING 240
SWIDTH 488 0
DWIDTH 5 0
BBX 5 8 0 0
BITMAP
1600
0900
1240
2A80
5080
5080
5080
2A40
ENDCHAR
STARTCHAR ntilde
ENCODING 241
SWIDTH 507 0
DWIDTH 6 0
BBX 5 8 0 0
BITMAP
1500
0500
2A40
5080
5080
5080
5080
1080
ENDCHAR
STARTCHAR ograve
ENCODING 242
SWIDTH 496 0
DWIDTH 5 0
BBX 5 8 0 0
BITMAP
1400
0000
2A40
5080
5080
5080
5080
2A40
ENDCHAR
STARTCHAR oacute
ENCODING 243
SWIDTH 496 0
DWIDTH 5 0
BBX 5 8 0 0
BITMAP
0200
0000
2A40
5080
5080
5080
5080
2A40
ENDCHAR
STARTCHAR ocircumflex
ENCODING 244
SWIDTH 496 0
DWIDTH 5 0
BBX 5 8 0 0
BITMAP
0900
0000
2A40
5080
5080
5080
5080
2A40
ENDCHAR
STARTCHAR otilde
ENCODING 245
SWIDTH 496 0
DWIDTH 5 0
BBX 5 8 0 0
BITMAP
1500
1500
2A40
5080
5080
5080
5080
2A40
ENDCHAR
STARTCHAR odieresis
ENCODING 246
SWIDTH 496 0
DWIDTH 5 0
BBX 5 8 0 0
BITMAP
1200
1100
2A40
5080
5080
5080
5080
2A40
ENDCHAR
STARTCHAR divide
ENCODING 247
SWIDTH 510 0
DWIDTH 6 0
BBX 4 4 1 2
BITMAP
10
00
55
10
ENDCHAR
STARTCHAR oslash
ENCODING 248
SWIDTH 521 0
DWIDTH 6 0
BBX 6 6 0 0
BITMAP
2A90
1080
1280
1880
2080
6A40
ENDCHAR
STARTCHAR ugrave
ENCODING 249
SWIDTH 507 0
DWIDTH 6 0
BBX 5 8 0 0
BITMAP
1400
0000
5080
5080
5080
5080
5080
2A80
ENDCHAR
STARTCHAR uacute
ENCODING 250
SWIDTH 507 0
DWIDTH 6 0
BBX 5 8 0 0
BITMAP
0200
0000
5080
5080
5080
5080
5080
2A80
ENDCHAR
STARTCHAR ucircumflex
ENCODING 251
SWIDTH 507 0
DWIDTH 6 0
BBX 5 8 0 0
BITMAP
0900
0000
5080
5080
5080
5080
5080
2A80
ENDCHAR
STARTCHAR udieresis
ENCODING 252
SWIDTH 507 0
DWIDTH 6 0
BBX 5 8 0 0
BITMAP
1200
1100
5080
5080
5080
5080
5080
2A80
ENDCHAR
STARTCHAR yacute
ENCODING 253
SWIDTH 459 0
DWIDTH 5 0
BBX 5 10 0 -2
BITMAP
0500
0000
8080
5140
2200
2200
1500
0C00
0800
6400
ENDCHAR
STARTCHAR thorn
ENCODING 254
SWIDTH 508 0
DWIDTH 6 0
BBX 4 10 1 -2
BITMAP
40
40
A9
42
42
42
42
A9
40
40
ENDCHAR
STARTCHAR ydieresis
ENCODING 255
SWIDTH 459 0
DWIDTH 5 0
BBX 5 10 0 -2
BITMAP
2200
1100
8080
5140
2200
2200
1500
0C00
0800
6400
ENDCHAR
STARTCHAR Amacron
ENCODING 256
SWIDTH 532 0
DWIDTH 6 0
BBX 6 10 0 0
BITMAP
0500
0000
0900
0A00
0600
1140
2080
2A80
5040
8010
ENDCHAR
STARTCHAR amacron
ENCODING 257
SWIDTH 502 0
DWIDTH 6 0
BBX 5 8 0 0
BITMAP
0500
0000
2A80
5080
5080
5080
5080
2A80
ENDCHAR
STARTCHAR Abreve
ENCODING 258
SWIDTH 532 0
DWIDTH 6 0
BBX 6 10 0 0
BITMAP
0500
0500
0900
0A00
0600
1140
2080
2A80
5040
8010
ENDCHAR
STARTCHAR abreve
ENCODING 259
SWIDTH 502 0
DWIDTH 6 0
BBX 5 8 0 0
BITMAP
0500
0500
2A80
5080
5080
5080
5080
2A80
ENDCHAR
STARTCHAR Aogonek
ENCODING 260
SWIDTH 532 0
DWIDTH 6 0
BBX 6 10 0 -2
BITMAP
0900
0A00
0600
1140
2080
2A80
5040
8010
0040
0040
ENDCHAR
STARTCHAR aogonek
ENCODING 261
SWIDTH 502 0
DWIDTH 6 0
BBX 5 8 0 -2
BITMAP
2A80
5080
5080
5080
5080
2A80
0100
0140
ENDCHAR
STARTCHAR Cacute
ENCODING 262
SWIDTH 542 0
DWIDTH 6 0
BBX 6 10 0 0
BITMAP
0200
0100
2A80
1050
5000
5000
5000
5000
1050
2A80
ENDCHAR
STARTCHAR cacute
ENCODING 263
SWIDTH 394 0
DWIDTH 4 0
BBX 4 8 0 0
BITMAP
05
00
29
50
50
50
50
29
ENDCHAR
STARTCHAR Cdotaccent
ENCODING 266
SWIDTH 542 0
DWIDTH 6 0
BBX 6 10 0 0
BITMAP
0500
0000
2A80
1050
5000
5000
5000
5000
1050
2A80
ENDCHAR
STARTCHAR cdotaccent
ENCODING 267
SWIDTH 394 0
DWIDTH 4 0
BBX 4 8 0 0
BITMAP
08
04
29
50
50
50
50
29
ENDCHAR
STARTCHAR Ccaron
ENCODING 268
SWIDTH 542 0
DWIDTH 6 0
BBX 6 10 0 0
BITMAP
0500
0100
2A80
1050
5000
5000
5000
5000
1050
2A80
ENDCHAR
STARTCHAR ccaron
ENCODING 269
SWIDTH 394 0
DWIDTH 4 0
BBX 4 8 0 0
BITMAP
15
04
29
50
50
50
50
29
ENDCHAR
STARTCHAR Dcaron
ENCODING 270
SWIDTH 557 0
DWIDTH 6 0
BBX 5 10 1 0
BITMAP
1400
1400
AA00
4140
4140
4140
4140
4140
4140
AA00
ENDCHAR
STARTCHAR dcaron
ENCODING 271
SWIDTH 534 0
DWIDTH 6 0
BBX 6 8 0 0
BITMAP
00A0
0090
2A90
5080
5080
5080
5080
2A80
ENDCHAR
STARTCHAR Dcroat
ENCODING 272
SWIDTH 514 0
DWIDTH 6 0
BBX 6 8 0 0
BITMAP
2A80
2050
2050
6850
2050
2050
2050
2A80
ENDCHAR
STARTCHAR dcroat
ENCODING 273
SWIDTH 539 0
DWIDTH 6 0
BBX 6 8 0 0
BITMAP
0080
0690
0080
2980
5080
5080
5080
2A80
ENDCHAR
STARTCHAR Emacron
ENCODING 274
SWIDTH 481 0
DWIDTH 5 0
BBX 4 10 1 0
BITMAP
54
00
A9
40
40
40
A8
40
40
A9
ENDCHAR
STARTCHAR emacron
ENCODING 275
SWIDTH 492 0
DWIDTH 5 0
BBX 5 8 0 0
BITMAP
1500
0000
2A40
5080
5080
6540
5000
2A40
ENDCHAR
STARTCHAR Ebreve
ENCODING 276
SWIDTH 481 0
DWIDTH 5 0
BBX 4 10 1 0
BITMAP
44
14
A9
40
40
40
A8
40
40
A9
ENDCHAR
STARTCHAR ebreve
ENCODING 277
SWIDTH 492 0
DWIDTH 5 0
BBX 5 8 0 0
BITMAP
1100
0500
2A40
5080
5080
6540
5000
2A40
ENDCHAR
STARTCHAR Edotaccent
ENCODING 278
SWIDTH 496 0
DWIDTH 5 0
BBX 4 10 1 0
BITMAP
20
00
A9
40
40
40
A8
40
40
A9
ENDCHAR
STARTCHAR edotaccent
ENCODING 279
SWIDTH 492 0
DWIDTH 5 0
BBX 5 8 0 0
BITMAP
0800
0400
2A40
5080
5080
6540
5000
2A40
ENDCHAR
STARTCHAR Eogonek
ENCODING 280
SWIDTH 481 0
DWIDTH 5 0
BBX 4 10 1 -2
BITMAP
A9
40
40
40
A8
40
40
A9
04
04
ENDCHAR
STARTCHAR eogonek
ENCODING 281
SWIDTH 492 0
DWIDTH 5 0
BBX 5 8 0 -2
BITMAP
2A40
5080
5080
6540
5000
2A40
0100
0100
ENDCHAR
STARTCHAR Ecaron
ENCODING 282
SWIDTH 481 0
DWIDTH 5 0
BBX 4 10 1 0
BITMAP
14
10
A9
40
40
40
A8
40
40
A9
ENDCHAR
STARTCHAR ecaron
ENCODING 283
SWIDTH 492 0
DWIDTH 5 0
BBX 5 8 0 0
BITMAP
0500
0400
2A40
5080
5080
6540
5000
2A40
ENDCHAR
STARTCHAR Gcircumflex
ENCODING 284
SWIDTH 539 0
DWIDTH 6 0
BBX 5 10 0 0
BITMAP
0500
0500
2A80
1080
5040
5000
5180
5040
1040
2A80
ENDCHAR
STARTCHAR gcircumflex
ENCODING 285
SWIDTH 506 0
DWIDTH 6 0
BBX 5 10 0 -2
BITMAP
0500
0000
2A80
5080
5080
5080
1080
1980
0080
1A40
ENDCHAR
STARTCHAR Gbreve
ENCODING 286
SWIDTH 539 0
DWIDTH 6 0
BBX 5 10 0 0
BITMAP
0500
0500
2A80
1080
5040
5000
5180
5040
1040
2A80
ENDCHAR
STARTCHAR gbreve
ENCODING 287
SWIDTH 506 0
DWIDTH 6 0
BBX 5 10 0 -2
BITMAP
0500
0500
2A80
5080
5080
5080
1080
1980
0080
1A40
ENDCHAR
STARTCHAR Gdotaccent
ENCODING 288
SWIDTH 539 0
DWIDTH 6 0
BBX 5 10 0 0
BITMAP
0500
0000
2A80
1080
5040
5000
5180
5040
1040
2A80
ENDCHAR
STARTCHAR gdotaccent
ENCODING 289
SWIDTH 506 0
DWIDTH 6 0
BBX 5 10 0 -2
BITMAP
0500
0000
2A80
5080
5080
5080
1080
1980
0080
1A40
ENDCHAR
STARTCHAR uni0122
ENCODING 290
SWIDTH 539 0
DWIDTH 6 0
BBX 5 10 0 -2
BITMAP
2A80
1080
5040
5000
5180
5040
1040
2A80
0100
0100
ENDCHAR
STARTCHAR uni0123
ENCODING 291
SWIDTH 506 0
DWIDTH 6 0
BBX 5 11 0 -2
BITMAP
0100
0500
0000
2A80
5080
5080
5080
1080
1980
0080
1A40
ENDCHAR
STARTCHAR hcircumflex
ENCODING 293
SWIDTH 507 0
DWIDTH 6 0
BBX 5 9 0 0
BITMAP
0500
1500
5000
6A40
5080
5080
5080
5080
1080
ENDCHAR
STARTCHAR Hbar
ENCODING 294
SWIDTH 523 0
DWIDTH 6 0
BBX 6 8 0 0
BITMAP
2010
2050
6AA0
2050
2A90
2050
2050
2010
ENDCHAR
STARTCHAR hbar
ENCODING 295
SWIDTH 544 0
DWIDTH 6 0
BBX 6 8 0 0
BITMAP
2000
6900
2000
2640
2040
2050
2050
2050
ENDCHAR
STARTCHAR Itilde
ENCODING 296
SWIDTH 230 0
DWIDTH 3 0
BBX 3 10 0 0
BITMAP
50
44
20
20
20
20
20
20
20
20
ENDCHAR
STARTCHAR itilde
ENCODING 297
SWIDTH 210 0
DWIDTH 2 0
BBX 3 8 0 0
BITMAP
54
44
10
10
10
10
10
10
ENDCHAR
STARTCHAR Imacron
ENCODING 298
SWIDTH 230 0
DWIDTH 3 0
BBX 3 10 0 0
BITMAP
54
00
20
20
20
20
20
20
20
20
ENDCHAR
STARTCHAR imacron
ENCODING 299
SWIDTH 208 0
DWIDTH 2 0
BBX 2 8 0 0
BITMAP
50
00
10
10
10
10
10
10
ENDCHAR
STARTCHAR Ibreve
ENCODING 300
SWIDTH 231 0
DWIDTH 3 0
BBX 3 10 0 0
BITMAP
44
50
20
20
20
20
20
20
20
20
ENDCHAR
STARTCHAR ibreve
ENCODING 301
SWIDTH 211 0
DWIDTH 2 0
BBX 3 8 0 0
BITMAP
44
50
10
10
10
10
10
10
ENDCHAR
STARTCHAR Iogonek
ENCODING 302
SWIDTH 230 0
DWIDTH 3 0
BBX 2 10 0 -2
BITMAP
20
20
20
20
20
20
20
20
40
40
ENDCHAR
STARTCHAR iogonek
ENCODING 303
SWIDTH 210 0
DWIDTH 2 0
BBX 2 10 0 -2
BITMAP
10
10
10
10
10
10
10
10
40
40
ENDCHAR
STARTCHAR Idotaccent
ENCODING 304
SWIDTH 230 0
DWIDTH 3 0
BBX 1 9 1 0
BITMAP
80
80
80
80
80
80
80
80
80
ENDCHAR
STARTCHAR dotlessi
ENCODING 305
SWIDTH 212 0
DWIDTH 2 0
BBX 1 6 1 0
BITMAP
40
40
40
40
40
40
ENDCHAR
STARTCHAR IJ
ENCODING 306
SWIDTH 721 0
DWIDTH 8 0
BBX 6 8 1 0
BITMAP
8010
8010
8010
8010
8010
8410
8420
8AA0
ENDCHAR
STARTCHAR ij
ENCODING 307
SWIDTH 419 0
DWIDTH 5 0
BBX 3 10 1 -2
BITMAP
48
44
48
48
48
48
48
48
08
24
ENDCHAR
STARTCHAR Jcircumflex
ENCODING 308
SWIDTH 494 0
DWIDTH 5 0
BBX 5 10 0 0
BITMAP
0180
0100
0080
0080
0080
0080
0080
4080
8080
6A40
ENDCHAR
STARTCHAR jcircumflex
ENCODING 309
SWIDTH 209 0
DWIDTH 2 0
BBX 3 10 -1 -2
BITMAP
14
00
04
04
04
04
04
04
14
60
ENDCHAR
STARTCHAR uni0136
ENCODING 310
SWIDTH 530 0
DWIDTH 6 0
BBX 5 10 1 -2
BITMAP
4200
4500
4800
6000
9400
8400
4200
4140
0400
0400
ENDCHAR
STARTCHAR uni0137
ENCODING 311
SWIDTH 431 0
DWIDTH 5 0
BBX 5 11 0 -3
BITMAP
1000
5000
5140
5200
5800
5800
5200
1140
0400
0800
0400
ENDCHAR
STARTCHAR Lacute
ENCODING 313
SWIDTH 451 0
DWIDTH 5 0
BBX 4 10 1 0
BITMAP
50
40
40
40
40
40
40
40
40
A9
ENDCHAR
STARTCHAR lacute
ENCODING 314
SWIDTH 207 0
DWIDTH 2 0
BBX 1 11 1 0
BITMAP
40
80
00
40
40
40
40
40
40
40
40
ENDCHAR
STARTCHAR uni013B
ENCODING 315
SWIDTH 451 0
DWIDTH 5 0
BBX 4 11 1 -3
BITMAP
40
40
40
40
40
40
40
A9
10
10
10
ENDCHAR
STARTCHAR uni013C
ENCODING 316
SWIDTH 211 0
DWIDTH 2 0
BBX 1 11 1 -3
BITMAP
40
40
40
40
40
40
40
40
40
40
40
ENDCHAR
STARTCHAR Lcaron
ENCODING 317
SWIDTH 451 0
DWIDTH 5 0
BBX 4 8 1 0
BITMAP
48
44
44
40
40
40
40
A9
ENDCHAR
STARTCHAR lcaron
ENCODING 318
SWIDTH 274 0
DWIDTH 3 0
BBX 2 8 1 0
BITMAP
60
50
50
40
40
40
40
40
ENDCHAR
STARTCHAR Ldot
ENCODING 319
SWIDTH 500 0
DWIDTH 6 0
BBX 4 8 1 0
BITMAP
40
80
80
84
88
80
80
A9
ENDCHAR
STARTCHAR ldot
ENCODING 320
SWIDTH 314 0
DWIDTH 3 0
BBX 2 8 1 0
BITMAP
40
40
40
50
60
40
40
40
ENDCHAR
STARTCHAR Lslash
ENCODING 321
SWIDTH 504 0
DWIDTH 6 0
BBX 5 8 0 0
BITMAP
2000
2000
2400
6000
2000
2000
2000
2A40
ENDCHAR
STARTCHAR lslash
ENCODING 322
SWIDTH 296 0
DWIDTH 3 0
BBX 3 8 0 0
BITMAP
20
20
24
60
20
20
20
20
ENDCHAR
STARTCHAR Nacute
ENCODING 323
SWIDTH 579 0
DWIDTH 6 0
BBX 5 10 1 0
BITMAP
0500
0400
8040
D040
A040
5440
4840
4540
4240
4140
ENDCHAR
STARTCHAR nacute
ENCODING 324
SWIDTH 507 0
DWIDTH 6 0
BBX 5 8 0 0
BITMAP
0200
0000
2A40
5080
5080
5080
5080
1080
ENDCHAR
STARTCHAR uni0145
ENCODING 325
SWIDTH 579 0
DWIDTH 6 0
BBX 5 11 1 -3
BITMAP
8040
D040
A040
5440
4840
4540
4240
4140
0400
0400
0400
ENDCHAR
STARTCHAR uni0146
ENCODING 326
SWIDTH 505 0
DWIDTH 6 0
BBX 5 9 0 -3
BITMAP
2A40
5080
5080
5080
5080
1080
0400
0400
0400
ENDCHAR
STARTCHAR Ncaron
ENCODING 327
SWIDTH 579 0
DWIDTH 6 0
BBX 5 10 1 0
BITMAP
1400
0400
8040
D040
A040
5440
4840
4540
4240
4140
ENDCHAR
STARTCHAR ncaron
ENCODING 328
SWIDTH 507 0
DWIDTH 6 0
BBX 5 8 0 0
BITMAP
0500
0400
2A40
5080
5080
5080
5080
1080
ENDCHAR
STARTCHAR Eng
ENCODING 330
SWIDTH 519 0
DWIDTH 6 0
BBX 5 10 1 -2
BITMAP
8040
D040
A040
9440
8840
8540
8240
4140
0140
0600
ENDCHAR
STARTCHAR eng
ENCODING 331
SWIDTH 507 0
DWIDTH 6 0
BBX 5 8 0 -2
BITMAP
2A40
5080
5080
5080
5080
1080
0080
0240
ENDCHAR
STARTCHAR Omacron
ENCODING 332
SWIDTH 553 0
DWIDTH 6 0
BBX 6 10 0 0
BITMAP
0500
0000
2A80
1050
5050
5050
5050
5050
1050
2A80
ENDCHAR
STARTCHAR omacron
ENCODING 333
SWIDTH 496 0
DWIDTH 5 0
BBX 5 8 0 0
BITMAP
1500
0000
2A40
5080
5080
5080
5080
2A40
ENDCHAR
STARTCHAR Obreve
ENCODING 334
SWIDTH 553 0
DWIDTH 6 0
BBX 6 10 0 0
BITMAP
0500
0500
2A80
1050
5050
5050
5050
5050
1050
2A80
ENDCHAR
STARTCHAR obreve
ENCODING 335
SWIDTH 496 0
DWIDTH 5 0
BBX 5 8 0 0
BITMAP
1100
0500
2A40
5080
5080
5080
5080
2A40
ENDCHAR
STARTCHAR Ohungarumlaut
ENCODING 336
SWIDTH 553 0
DWIDTH 6 0
BBX 6 10 0 0
BITMAP
0540
0500
2A80
1050
5050
5050
5050
5050
1050
2A80
ENDCHAR
STARTCHAR ohungarumlaut
ENCODING 337
SWIDTH 496 0
DWIDTH 5 0
BBX 5 8 0 0
BITMAP
0540
0500
2A40
5080
5080
5080
5080
2A40
ENDCHAR
STARTCHAR OE
ENCODING 338
SWIDTH 775 0
DWIDTH 9 0
BBX 7 8 1 0
BITMAP
AAA4
4200
4200
4200
42A4
4200
4200
AAA4
ENDCHAR
STARTCHAR oe
ENCODING 339
SWIDTH 812 0
DWIDTH 9 0
BBX 9 6 0 0
BITMAP
2A6A00
508140
508140
509600
508000
2AAA00
ENDCHAR
STARTCHAR Racute
ENCODING 340
SWIDTH 534 0
DWIDTH 6 0
BBX 4 10 1 0
BITMAP
08
10
AA
42
41
42
A9
45
42
41
ENDCHAR
STARTCHAR racute
ENCODING 341
SWIDTH 313 0
DWIDTH 3 0
BBX 3 8 0 0
BITMAP
04
00
28
50
50
50
50
10
ENDCHAR
STARTCHAR uni0156
ENCODING 342
SWIDTH 534 0
DWIDTH 6 0
BBX 4 11 1 -3
BITMAP
AA
42
41
42
A9
45
42
41
00
14
10
ENDCHAR
STARTCHAR uni0157
ENCODING 343
SWIDTH 313 0
DWIDTH 3 0
BBX 3 9 0 -3
BITMAP
28
50
50
50
50
10
00
50
40
ENDCHAR
STARTCHAR Rcaron
ENCODING 344
SWIDTH 534 0
DWIDTH 6 0
BBX 4 10 1 0
BITMAP
14
10
AA
42
41
42
A9
45
42
41
ENDCHAR
STARTCHAR rcaron
ENCODING 345
SWIDTH 313 0
DWIDTH 3 0
BBX 3 8 0 0
BITMAP
14
00
28
50
50
50
50
10
ENDCHAR
STARTCHAR Sacute
ENCODING 346
SWIDTH 562 0
DWIDTH 6 0
BBX 5 10 1 0
BITMAP
0800
0400
AA00
8140
4000
A400
0600
0140
8140
AA00
ENDCHAR
STARTCHAR sacute
ENCODING 347
SWIDTH 427 0
DWIDTH 5 0
BBX 4 8 0 0
BITMAP
08
00
69
50
24
06
01
6A
ENDCHAR
STARTCHAR Scircumflex
ENCODING 348
SWIDTH 562 0
DWIDTH 6 0
BBX 5 10 1 0
BITMAP
1400
1400
AA00
8140
4000
A400
0600
0140
8140
AA00
ENDCHAR
STARTCHAR scircumflex
ENCODING 349
SWIDTH 427 0
DWIDTH 5 0
BBX 4 8 0 0
BITMAP
18
00
69
50
24
06
01
6A
ENDCHAR
STARTCHAR uni015E
ENCODING 350
SWIDTH 562 0
DWIDTH 6 0
BBX 5 10 1 -2
BITMAP
AA00
8140
4000
A400
0600
0140
8140
AA00
0400
0400
ENDCHAR
STARTCHAR uni015F
ENCODING 351
SWIDTH 427 0
DWIDTH 5 0
BBX 4 8 0 -2
BITMAP
69
50
24
06
01
6A
08
04
ENDCHAR
STARTCHAR Scaron
ENCODING 352
SWIDTH 562 0
DWIDTH 6 0
BBX 5 10 1 0
BITMAP
1400
0400
AA00
8140
4000
A400
0600
0140
8140
AA00
ENDCHAR
STARTCHAR scaron
ENCODING 353
SWIDTH 427 0
DWIDTH 5 0
BBX 4 8 0 0
BITMAP
14
04
69
50
24
06
01
6A
ENDCHAR
STARTCHAR uni0162
ENCODING 354
SWIDTH 420 0
DWIDTH 5 0
BBX 5 11 0 -3
BITMAP
6A40
0800
0800
0800
0800
0800
0800
0800
0400
0400
0400
ENDCHAR
STARTCHAR uni0163
ENCODING 355
SWIDTH 347 0
DWIDTH 4 0
BBX 4 10 0 -3
BITMAP
20
68
20
20
20
20
19
04
04
04
ENDCHAR
STARTCHAR Tcaron
ENCODING 356
SWIDTH 420 0
DWIDTH 5 0
BBX 5 10 0 0
BITMAP
1400
0400
6A40
0800
0800
0800
0800
0800
0800
0800
ENDCHAR
STARTCHAR tcaron
ENCODING 357
SWIDTH 396 0
DWIDTH 4 0
BBX 5 8 0 0
BITMAP
1140
2100
6900
2000
2000
2000
2000
1900
ENDCHAR
STARTCHAR Tbar
ENCODING 358
SWIDTH 501 0
DWIDTH 6 0
BBX 5 8 0 0
BITMAP
6A40
0800
0800
1900
0800
0800
0800
0800
ENDCHAR
STARTCHAR tbar
ENCODING 359
SWIDTH 350 0
DWIDTH 4 0
BBX 4 7 0 0
BITMAP
20
68
20
68
20
20
19
ENDCHAR
STARTCHAR Utilde
ENCODING 360
SWIDTH 552 0
DWIDTH 6 0
BBX 5 10 1 0
BITMAP
0400
1000
4140
4140
4140
4140
4140
4140
8100
AA00
ENDCHAR
STARTCHAR utilde
ENCODING 361
SWIDTH 507 0
DWIDTH 6 0
BBX 5 8 0 0
BITMAP
1500
1500
5080
5080
5080
5080
5080
2A80
ENDCHAR
STARTCHAR Umacron
ENCODING 362
SWIDTH 552 0
DWIDTH 6 0
BBX 5 10 1 0
BITMAP
1400
0000
4140
4140
4140
4140
4140
4140
8100
AA00
ENDCHAR
STARTCHAR umacron
ENCODING 363
SWIDTH 507 0
DWIDTH 6 0
BBX 5 8 0 0
BITMAP
1500
0000
5080
5080
5080
5080
5080
2A80
ENDCHAR
STARTCHAR Ubreve
ENCODING 364
SWIDTH 552 0
DWIDTH 6 0
BBX 5 10 1 0
BITMAP
1400
1400
4140
4140
4140
4140
4140
4140
8100
AA00
ENDCHAR
STARTCHAR ubreve
ENCODING 365
SWIDTH 507 0
DWIDTH 6 0
BBX 5 8 0 0
BITMAP
1100
0500
5080
5080
5080
5080
5080
2A80
ENDCHAR
STARTCHAR Uring
ENCODING 366
SWIDTH 552 0
DWIDTH 6 0
BBX 5 11 1 0
BITMAP
1400
1400
1400
4140
4140
4140
4140
4140
4140
8100
AA00
ENDCHAR
STARTCHAR uring
ENCODING 367
SWIDTH 507 0
DWIDTH 6 0
BBX 5 9 0 0
BITMAP
0400
1100
0400
5080
5080
5080
5080
5080
2A80
ENDCHAR
STARTCHAR Uhungarumlaut
ENCODING 368
SWIDTH 552 0
DWIDTH 6 0
BBX 5 10 1 0
BITMAP
1500
1400
4140
4140
4140
4140
4140
4140
8100
AA00
ENDCHAR
STARTCHAR uhungarumlaut
ENCODING 369
SWIDTH 507 0
DWIDTH 6 0
BBX 5 8 0 0
BITMAP
0540
0500
5080
5080
5080
5080
5080
2A80
ENDCHAR
STARTCHAR Uogonek
ENCODING 370
SWIDTH 552 0
DWIDTH 6 0
BBX 5 10 1 -2
BITMAP
4140
4140
4140
4140
4140
4140
8100
AA00
1400
1400
ENDCHAR
STARTCHAR uogonek
ENCODING 371
SWIDTH 503 0
DWIDTH 6 0
BBX 5 8 0 -2
BITMAP
5080
5080
5080
5080
5080
2A80
0140
0140
ENDCHAR
STARTCHAR Wcircumflex
ENCODING 372
SWIDTH 795 0
DWIDTH 9 0
BBX 9 10 0 0
BITMAP
018000
010000
808140
518100
525200
221200
212200
251500
181800
180C00
ENDCHAR
STARTCHAR wcircumflex
ENCODING 373
SWIDTH 682 0
DWIDTH 8 0
BBX 7 8 0 0
BITMAP
0240
0000
8204
4248
1148
2454
2460
1820
ENDCHAR
STARTCHAR Ycircumflex
ENCODING 374
SWIDTH 493 0
DWIDTH 5 0
BBX 5 10 0 0
BITMAP
0900
0100
8080
1080
2100
1600
0900
0800
0800
0800
ENDCHAR
STARTCHAR ycircumflex
ENCODING 375
SWIDTH 459 0
DWIDTH 5 0
BBX 5 10 0 -2
BITMAP
0900
0000
8080
5140
2200
2200
1500
0C00
0800
6400
ENDCHAR
STARTCHAR Ydieresis
ENCODING 376
SWIDTH 493 0
DWIDTH 5 0
BBX 5 10 0 0
BITMAP
1200
1100
8080
1080
2100
1600
0900
0800
0800
0800
ENDCHAR
STARTCHAR Zacute
ENCODING 377
SWIDTH 482 0
DWIDTH 5 0
BBX 5 10 0 0
BITMAP
0200
0000
6A80
0140
0200
0500
0800
2000
2000
6A40
ENDCHAR
STARTCHAR zacute
ENCODING 378
SWIDTH 405 0
DWIDTH 4 0
BBX 4 8 0 0
BITMAP
05
00
6A
05
08
14
20
AA
ENDCHAR
STARTCHAR Zdotaccent
ENCODING 379
SWIDTH 482 0
DWIDTH 5 0
BBX 5 10 0 0
BITMAP
0400
0000
6A80
0140
0200
0500
0800
2000
2000
6A40
ENDCHAR
STARTCHAR zdotaccent
ENCODING 380
SWIDTH 405 0
DWIDTH 4 0
BBX 4 8 0 0
BITMAP
08
04
6A
05
08
14
20
AA
ENDCHAR
STARTCHAR Zcaron
ENCODING 381
SWIDTH 482 0
DWIDTH 5 0
BBX 5 10 0 0
BITMAP
0500
0400
6A80
0140
0200
0500
0800
2000
2000
6A40
ENDCHAR
STARTCHAR zcaron
ENCODING 382
SWIDTH 405 0
DWIDTH 4 0
BBX 4 8 0 0
BITMAP
15
04
6A
05
08
14
20
AA
ENDCHAR
STARTCHAR florin
ENCODING 402
SWIDTH 494 0
DWIDTH 5 0
BBX 5 10 0 -2
BITMAP
0180
0200
0200
0100
1A40
0800
0800
0800
1400
6000
ENDCHAR
STARTCHAR AEacute
ENCODING 508
SWIDTH 773 0
DWIDTH 9 0
BBX 8 10 0 0
BITMAP
0020
0040
01E9
0280
0580
0880
14A9
2A80
5080
80A9
ENDCHAR
STARTCHAR aeacute
ENCODING 509
SWIDTH 795 0
DWIDTH 9 0
BBX 8 8 0 0
BITMAP
0050
0000
1AA9
0082
1581
5096
5080
2AAA
ENDCHAR
STARTCHAR Oslashacute
ENCODING 510
SWIDTH 558 0
DWIDTH 6 0
BBX 6 10 0 0
BITMAP
0200
0100
2A90
1090
1190
1150
1450
2450
2050
6A80
ENDCHAR
STARTCHAR oslashacute
ENCODING 511
SWIDTH 521 0
DWIDTH 6 0
BBX 6 8 0 0
BITMAP
0200
0000
2A90
1080
1280
1880
2080
6A40
ENDCHAR
STARTCHAR uni0218
ENCODING 536
SWIDTH 562 0
DWIDTH 6 0
BBX 5 11 1 -3
BITMAP
AA00
8140
4000
A400
0600
0140
8140
AA00
0400
0400
0400
ENDCHAR
STARTCHAR uni0219
ENCODING 537
SWIDTH 427 0
DWIDTH 5 0
BBX 4 9 0 -3
BITMAP
69
50
24
06
01
6A
04
08
04
ENDCHAR
STARTCHAR circumflex
ENCODING 710
SWIDTH 326 0
DWIDTH 4 0
BBX 2 2 1 6
BITMAP
90
10
ENDCHAR
STARTCHAR caron
ENCODING 711
SWIDTH 326 0
DWIDTH 4 0
BBX 2 2 1 6
BITMAP
50
40
ENDCHAR
STARTCHAR uni02C9
ENCODING 713
SWIDTH 358 0
DWIDTH 4 0
BBX 2 1 1 7
BITMAP
50
ENDCHAR
STARTCHAR breve
ENCODING 728
SWIDTH 332 0
DWIDTH 4 0
BBX 3 2 0 6
BITMAP
44
14
ENDCHAR
STARTCHAR dotaccent
ENCODING 729
SWIDTH 183 0
DWIDTH 2 0
BBX 2 1 0 7
BITMAP
50
ENDCHAR
STARTCHAR ring
ENCODING 730
SWIDTH 297 0
DWIDTH 3 0
BBX 3 3 0 6
BITMAP
10
44
10
ENDCHAR
STARTCHAR ogonek
ENCODING 731
SWIDTH 243 0
DWIDTH 3 0
BBX 1 2 1 -2
BITMAP
40
40
ENDCHAR
STARTCHAR tilde
ENCODING 732
SWIDTH 369 0
DWIDTH 4 0
BBX 3 2 0 6
BITMAP
58
14
ENDCHAR
STARTCHAR hungarumlaut
ENCODING 733
SWIDTH 377 0
DWIDTH 4 0
BBX 2 2 1 6
BITMAP
90
10
ENDCHAR
STARTCHAR Mu
ENCODING 924
SWIDTH 527 0
DWIDTH 6 0
BBX 4 8 1 -2
BITMAP
41
42
42
42
82
A6
40
40
ENDCHAR
STARTCHAR Pi
ENCODING 928
SWIDTH 605 0
DWIDTH 7 0
BBX 6 7 0 0
BITMAP
6AA0
1480
1480
1480
1480
1480
1080
ENDCHAR
STARTCHAR Sigma
ENCODING 931
SWIDTH 481 0
DWIDTH 5 0
BBX 5 7 0 0
BITMAP
6A40
2000
0800
0800
0800
2000
6A40
ENDCHAR
STARTCHAR uni0901
ENCODING 2305
SWIDTH 0 0
DWIDTH 0 0
BBX 4 3 -3 7
BITMAP
10
41
54
ENDCHAR
STARTCHAR uni0902
ENCODING 2306
SWIDTH 0 0
DWIDTH 0 0
BBX 1 1 -2 8
BITMAP
40
ENDCHAR
STARTCHAR uni0903
ENCODING 2307
SWIDTH 247 0
DWIDTH 3 0
BBX 1 4 1 1
BITMAP
40
00
00
40
ENDCHAR
STARTCHAR uni0905
ENCODING 2309
SWIDTH 598 0
DWIDTH 7 0
BBX 7 7 0 0
BITMAP
1824
0120
0120
0660
0120
0120
6820
ENDCHAR
STARTCHAR uni0906
ENCODING 2310
SWIDTH 828 0
DWIDTH 9 0
BBX 9 7 0 0
BITMAP
182680
012100
052100
066100
012100
012100
682100
ENDCHAR
STARTCHAR uni0907
ENCODING 2311
SWIDTH 478 0
DWIDTH 5 0
BBX 6 7 0 0
BITMAP
5690
0140
2600
5000
2640
5080
6640
ENDCHAR
STARTCHAR uni0908
ENCODING 2312
SWIDTH 478 0
DWIDTH 5 0
BBX 6 10 0 0
BITMAP
0240
0500
0500
5690
0140
2600
5000
2640
5080
6640
ENDCHAR
STARTCHAR uni0909
ENCODING 2313
SWIDTH 471 0
DWIDTH 5 0
BBX 5 7 0 0
BITMAP
5680
0140
0140
0600
0140
4040
2600
ENDCHAR
STARTCHAR uni090A
ENCODING 2314
SWIDTH 661 0
DWIDTH 7 0
BBX 8 7 0 0
BITMAP
5695
0140
0140
06A4
4148
4048
2614
ENDCHAR
STARTCHAR uni090B
ENCODING 2315
SWIDTH 753 0
DWIDTH 8 0
BBX 9 7 0 0
BITMAP
569540
004000
164900
51A100
018900
055000
245900
ENDCHAR
STARTCHAR uni090C
ENCODING 2316
SWIDTH 676 0
DWIDTH 7 0
BBX 8 10 0 -3
BITMAP
5569
0004
19A4
1214
5204
5004
2414
0040
0040
0028
ENDCHAR
STARTCHAR uni090D
ENCODING 2317
SWIDTH 521 0
DWIDTH 6 0
BBX 6 10 0 0
BITMAP
1040
1940
0000
6590
2080
2080
2140
2000
2000
1A40
ENDCHAR
STARTCHAR uni090E
ENCODING 2318
SWIDTH 522 0
DWIDTH 6 0
BBX 6 10 0 0
BITMAP
0800
0600
0080
6590
2080
2080
2140
2000
2000
1A40
ENDCHAR
STARTCHAR uni090F
ENCODING 2319
SWIDTH 526 0
DWIDTH 6 0
BBX 6 7 0 0
BITMAP
6590
2080
2080
2140
2000
2000
1A40
ENDCHAR
STARTCHAR uni0910
ENCODING 2320
SWIDTH 526 0
DWIDTH 6 0
BBX 6 10 0 0
BITMAP
0100
0100
0040
6590
2080
2080
2140
2000
2000
1A40
ENDCHAR
STARTCHAR uni0911
ENCODING 2321
SWIDTH 829 0
DWIDTH 9 0
BBX 9 9 0 0
BITMAP
001140
001500
182680
012100
012100
066100
012100
012100
682100
ENDCHAR
STARTCHAR uni0912
ENCODING 2322
SWIDTH 828 0
DWIDTH 9 0
BBX 9 10 0 0
BITMAP
002000
001800
000200
182680
012100
012100
066100
012100
012100
682100
ENDCHAR
STARTCHAR uni0913
ENCODING 2323
SWIDTH 829 0
DWIDTH 9 0
BBX 9 10 0 0
BITMAP
000800
000500
000200
182680
012100
012100
066100
012100
012100
682100
ENDCHAR
STARTCHAR uni0914
ENCODING 2324
SWIDTH 829 0
DWIDTH 9 0
BBX 9 10 0 0
BITMAP
000500
000500
000200
182680
012100
012100
066100
012100
012100
682100
ENDCHAR
STARTCHAR uni0915
ENCODING 2325
SWIDTH 725 0
DWIDTH 8 0
BBX 8 7 0 0
BITMAP
5695
1594
5145
5145
5145
1654
0140
ENDCHAR
STARTCHAR uni0916
ENCODING 2326
SWIDTH 696 0
DWIDTH 8 0
BBX 8 7 0 0
BITMAP
5959
0808
0888
6508
1108
1498
0808
ENDCHAR
STARTCHAR uni0917
ENCODING 2327
SWIDTH 494 0
DWIDTH 5 0
BBX 6 7 0 0
BITMAP
6690
2040
2040
2040
5040
0040
0040
ENDCHAR
STARTCHAR uni0918
ENCODING 2328
SWIDTH 559 0
DWIDTH 6 0
BBX 6 7 0 0
BITMAP
AAA0
5040
2840
1040
1040
1980
0040
ENDCHAR
STARTCHAR uni0919
ENCODING 2329
SWIDTH 505 0
DWIDTH 6 0
BBX 6 7 0 0
BITMAP
5690
0140
1600
1040
1640
0080
2640
ENDCHAR
STARTCHAR uni091A
ENCODING 2330
SWIDTH 563 0
DWIDTH 6 0
BBX 6 7 0 0
BITMAP
55A0
0050
6950
2050
2050
1990
0050
ENDCHAR
STARTCHAR uni091B
ENCODING 2331
SWIDTH 581 0
DWIDTH 6 0
BBX 7 7 0 0
BITMAP
65A4
1050
1090
2420
1020
1020
2A90
ENDCHAR
STARTCHAR uni091C
ENCODING 2332
SWIDTH 547 0
DWIDTH 6 0
BBX 6 7 0 0
BITMAP
5590
0080
2A80
0880
0880
6480
0080
ENDCHAR
STARTCHAR uni091D
ENCODING 2333
SWIDTH 664 0
DWIDTH 7 0
BBX 8 7 0 0
BITMAP
5669
1614
5014
2664
0114
5114
6614
ENDCHAR
STARTCHAR uni091E
ENCODING 2334
SWIDTH 592 0
DWIDTH 7 0
BBX 7 7 0 0
BITMAP
55A4
2420
0420
06A0
0420
6420
0010
ENDCHAR
STARTCHAR uni091F
ENCODING 2335
SWIDTH 485 0
DWIDTH 5 0
BBX 6 7 0 0
BITMAP
5690
0140
1A00
5000
5000
5080
2A40
ENDCHAR
STARTCHAR uni0920
ENCODING 2336
SWIDTH 512 0
DWIDTH 6 0
BBX 6 7 0 0
BITMAP
5690
0140
1A40
5080
5080
5080
2A40
ENDCHAR
STARTCHAR uni0921
ENCODING 2337
SWIDTH 475 0
DWIDTH 5 0
BBX 6 7 0 0
BITMAP
5690
0140
1600
1000
1640
1080
2640
ENDCHAR
STARTCHAR uni0922
ENCODING 2338
SWIDTH 485 0
DWIDTH 5 0
BBX 6 7 0 0
BITMAP
5690
0140
1600
1000
5240
5480
2A40
ENDCHAR
STARTCHAR uni0923
ENCODING 2339
SWIDTH 681 0
DWIDTH 7 0
BBX 8 7 0 0
BITMAP
A6A9
1104
1104
2204
1904
0004
0004
ENDCHAR
STARTCHAR uni0924
ENCODING 2340
SWIDTH 496 0
DWIDTH 5 0
BBX 6 7 0 0
BITMAP
5690
0040
2A40
5040
5040
5040
2440
ENDCHAR
STARTCHAR uni0925
ENCODING 2341
SWIDTH 593 0
DWIDTH 7 0
BBX 7 7 0 0
BITMAP
2924
1220
0220
6820
5020
1960
0020
ENDCHAR
STARTCHAR uni0926
ENCODING 2342
SWIDTH 489 0
DWIDTH 5 0
BBX 6 7 0 0
BITMAP
5690
0040
2A40
5000
5040
1980
0040
ENDCHAR
STARTCHAR uni0927
ENCODING 2343
SWIDTH 560 0
DWIDTH 6 0
BBX 6 7 0 0
BITMAP
A5A0
5040
2840
1040
1040
1580
0040
ENDCHAR
STARTCHAR uni0928
ENCODING 2344
SWIDTH 473 0
DWIDTH 5 0
BBX 5 7 0 0
BITMAP
5680
0140
0140
6640
4140
0140
0140
ENDCHAR
STARTCHAR uni0928093C
ENCODING 2345
SWIDTH 473 0
DWIDTH 5 0
BBX 5 7 0 0
BITMAP
5680
0140
0140
6640
4140
0140
1140
ENDCHAR
STARTCHAR uni092A
ENCODING 2346
SWIDTH 503 0
DWIDTH 6 0
BBX 6 7 0 0
BITMAP
A590
1080
1080
1080
1580
0080
0080
ENDCHAR
STARTCHAR uni092B
ENCODING 2347
SWIDTH 739 0
DWIDTH 8 0
BBX 8 7 0 0
BITMAP
A695
1098
1045
2141
1A45
0058
0040
ENDCHAR
STARTCHAR uni092C
ENCODING 2348
SWIDTH 491 0
DWIDTH 5 0
BBX 6 7 0 0
BITMAP
5690
1440
6040
5540
5240
1640
0040
ENDCHAR
STARTCHAR uni092D
ENCODING 2349
SWIDTH 491 0
DWIDTH 5 0
BBX 6 7 0 0
BITMAP
8290
1040
1040
2640
1040
0040
0040
ENDCHAR
STARTCHAR uni092E
ENCODING 2350
SWIDTH 490 0
DWIDTH 5 0
BBX 6 7 0 0
BITMAP
A690
1040
1040
2640
1040
0040
0040
ENDCHAR
STARTCHAR uni092F
ENCODING 2351
SWIDTH 564 0
DWIDTH 6 0
BBX 6 7 0 0
BITMAP
69A0
0850
6450
5050
1050
1590
0050
ENDCHAR
STARTCHAR uni0930
ENCODING 2352
SWIDTH 337 0
DWIDTH 4 0
BBX 4 7 0 0
BITMAP
59
08
08
64
10
10
08
ENDCHAR
STARTCHAR uni0930093C
ENCODING 2353
SWIDTH 347 0
DWIDTH 4 0
BBX 4 8 0 -1
BITMAP
59
08
08
64
20
14
04
40
ENDCHAR
STARTCHAR uni0932
ENCODING 2354
SWIDTH 676 0
DWIDTH 7 0
BBX 8 7 0 0
BITMAP
5569
0004
19A4
1214
5204
5004
2404
ENDCHAR
STARTCHAR uni0933
ENCODING 2355
SWIDTH 672 0
DWIDTH 7 0
BBX 8 7 0 0
BITMAP
55A5
0050
15A0
5208
5208
5208
26A4
ENDCHAR
STARTCHAR uni0933093C
ENCODING 2356
SWIDTH 672 0
DWIDTH 7 0
BBX 8 8 0 -1
BITMAP
55A5
0050
15A0
5208
5208
5208
26A4
0400
ENDCHAR
STARTCHAR uni0935
ENCODING 2357
SWIDTH 484 0
DWIDTH 5 0
BBX 6 7 0 0
BITMAP
5690
1540
5140
5140
5140
1640
0140
ENDCHAR
STARTCHAR uni0936
ENCODING 2358
SWIDTH 614 0
DWIDTH 7 0
BBX 7 7 0 0
BITMAP
2924
5220
0220
6920
2020
1420
0820
ENDCHAR
STARTCHAR uni0937
ENCODING 2359
SWIDTH 505 0
DWIDTH 6 0
BBX 6 7 0 0
BITMAP
A590
2480
1580
1180
1980
0080
0040
ENDCHAR
STARTCHAR uni0938
ENCODING 2360
SWIDTH 575 0
DWIDTH 6 0
BBX 7 7 0 0
BITMAP
59A4
0850
0850
6A90
5050
2050
0450
ENDCHAR
STARTCHAR uni0939
ENCODING 2361
SWIDTH 481 0
DWIDTH 5 0
BBX 6 8 0 -1
BITMAP
5690
1A40
1000
1000
2600
1040
1000
1500
ENDCHAR
STARTCHAR uni093C
ENCODING 2364
SWIDTH 0 0
DWIDTH 0 0
BBX 1 1 -2 -1
BITMAP
40
ENDCHAR
STARTCHAR uni093D
ENCODING 2365
SWIDTH 529 0
DWIDTH 6 0
BBX 4 7 1 0
BITMAP
65
80
60
19
02
42
55
ENDCHAR
STARTCHAR uni093E
ENCODING 2366
SWIDTH 231 0
DWIDTH 3 0
BBX 3 7 0 0
BITMAP
64
20
20
20
20
20
20
ENDCHAR
STARTCHAR uni093F
ENCODING 2367
SWIDTH 231 0
DWIDTH 3 0
BBX 7 10 0 0
BITMAP
2AA4
2008
2000
6400
2000
2000
2000
2000
2000
2000
ENDCHAR
STARTCHAR uni0940
ENCODING 2368
SWIDTH 231 0
DWIDTH 3 0
BBX 5 10 -2 0
BITMAP
6900
8200
0200
0640
0200
0200
0200
0200
0200
0200
ENDCHAR
STARTCHAR uni0941
ENCODING 2369
SWIDTH 0 0
DWIDTH 0 0
BBX 5 3 -4 -3
BITMAP
0100
4140
2600
ENDCHAR
STARTCHAR uni0942
ENCODING 2370
SWIDTH 0 0
DWIDTH 0 0
BBX 4 3 -3 -3
BITMAP
54
81
51
ENDCHAR
STARTCHAR uni0943
ENCODING 2371
SWIDTH 0 0
DWIDTH 0 0
BBX 3 3 -3 -3
BITMAP
50
80
98
ENDCHAR
STARTCHAR uni0945
ENCODING 2373
SWIDTH 0 0
DWIDTH 0 0
BBX 4 2 -3 7
BITMAP
41
54
ENDCHAR
STARTCHAR uni0946
ENCODING 2374
SWIDTH 0 0
DWIDTH 0 0
BBX 3 4 -4 6
BITMAP
80
60
08
04
ENDCHAR
STARTCHAR uni0947
ENCODING 2375
SWIDTH 0 0
DWIDTH 0 0
BBX 3 3 -4 7
BITMAP
50
20
08
ENDCHAR
STARTCHAR uni0948
ENCODING 2376
SWIDTH 0 0
DWIDTH 0 0
BBX 3 3 -4 7
BITMAP
54
28
08
ENDCHAR
STARTCHAR uni0949
ENCODING 2377
SWIDTH 231 0
DWIDTH 3 0
BBX 4 9 -1 0
BITMAP
41
15
19
08
08
08
08
08
08
ENDCHAR
STARTCHAR uni094A
ENCODING 2378
SWIDTH 231 0
DWIDTH 3 0
BBX 5 10 -2 0
BITMAP
5000
2400
0500
0640
0200
0200
0200
0200
0200
0200
ENDCHAR
STARTCHAR uni094B
ENCODING 2379
SWIDTH 231 0
DWIDTH 3 0
BBX 4 10 -1 0
BITMAP
80
20
14
19
08
08
08
08
08
08
ENDCHAR
STARTCHAR uni094C
ENCODING 2380
SWIDTH 231 0
DWIDTH 3 0
BBX 4 10 -1 0
BITMAP
88
18
14
19
08
08
08
08
08
08
ENDCHAR
STARTCHAR uni094D
ENCODING 2381
SWIDTH 0 0
DWIDTH 0 0
BBX 2 2 -2 -2
BITMAP
50
20
ENDCHAR
STARTCHAR uni0950
ENCODING 2384
SWIDTH 847 0
DWIDTH 9 0
BBX 9 9 0 0
BITMAP
001000
000000
1A1500
010000
011A00
0A0140
015040
512040
2A1A40
ENDCHAR
STARTCHAR uni0951
ENCODING 2385
SWIDTH 0 0
DWIDTH 0 0
BBX 1 2 -2 8
BITMAP
80
80
ENDCHAR
STARTCHAR uni0952
ENCODING 2386
SWIDTH 0 0
DWIDTH 0 0
BBX 4 1 -5 -1
BITMAP
55
ENDCHAR
STARTCHAR uni0953
ENCODING 2387
SWIDTH 0 0
DWIDTH 0 0
BBX 2 2 -3 8
BITMAP
40
20
ENDCHAR
STARTCHAR uni0954
ENCODING 2388
SWIDTH 0 0
DWIDTH 0 0
BBX 2 2 -2 8
BITMAP
20
50
ENDCHAR
STARTCHAR uni0915093C
ENCODING 2392
SWIDTH 725 0
DWIDTH 8 0
BBX 8 8 0 -1
BITMAP
5695
1594
5145
5145
5145
1654
0140
1000
ENDCHAR
STARTCHAR uni0916093C
ENCODING 2393
SWIDTH 696 0
DWIDTH 8 0
BBX 8 8 0 -1
BITMAP
5959
0808
0888
6508
1108
1498
0808
4000
ENDCHAR
STARTCHAR uni0917093C
ENCODING 2394
SWIDTH 494 0
DWIDTH 5 0
BBX 6 8 0 -1
BITMAP
6690
2040
2040
2040
5040
0040
0040
1000
ENDCHAR
STARTCHAR uni091C093C
ENCODING 2395
SWIDTH 547 0
DWIDTH 6 0
BBX 6 8 0 -1
BITMAP
5590
0080
2A80
0880
0880
6480
0080
1000
ENDCHAR
STARTCHAR uni0921093C
ENCODING 2396
SWIDTH 475 0
DWIDTH 5 0
BBX 6 9 0 -2
BITMAP
5690
0140
1600
1000
1640
1080
2640
0000
0400
ENDCHAR
STARTCHAR uni0922093C
ENCODING 2397
SWIDTH 485 0
DWIDTH 5 0
BBX 6 9 0 -2
BITMAP
5690
0140
1600
1000
5240
5480
2A40
0000
0400
ENDCHAR
STARTCHAR uni092B093C
ENCODING 2398
SWIDTH 739 0
DWIDTH 8 0
BBX 8 8 0 -1
BITMAP
A695
1098
1045
2141
1A45
0058
0040
1000
ENDCHAR
STARTCHAR uni092F093C
ENCODING 2399
SWIDTH 564 0
DWIDTH 6 0
BBX 6 8 0 -1
BITMAP
69A0
0850
6450
5050
1050
1590
0050
1000
ENDCHAR
STARTCHAR uni0960
ENCODING 2400
SWIDTH 753 0
DWIDTH 8 0
BBX 9 9 0 -2
BITMAP
569540
004000
164500
516500
419500
065000
245900
001000
001500
ENDCHAR
STARTCHAR uni0961
ENCODING 2401
SWIDTH 676 0
DWIDTH 7 0
BBX 8 10 0 -3
BITMAP
5569
0004
19A4
1214
5104
5024
2440
0064
0040
0064
ENDCHAR
STARTCHAR uni0964
ENCODING 2404
SWIDTH 286 0
DWIDTH 3 0
BBX 1 7 1 0
BITMAP
40
40
40
40
40
40
40
ENDCHAR
STARTCHAR uni0965
ENCODING 2405
SWIDTH 518 0
DWIDTH 6 0
BBX 4 7 1 0
BITMAP
42
42
42
42
42
42
42
ENDCHAR
STARTCHAR uni0966
ENCODING 2406
SWIDTH 519 0
DWIDTH 6 0
BBX 5 7 0 0
BITMAP
2A40
5080
5080
5080
5080
5080
2540
ENDCHAR
STARTCHAR uni0967
ENCODING 2407
SWIDTH 288 0
DWIDTH 3 0
BBX 3 7 0 0
BITMAP
64
54
14
14
14
14
14
ENDCHAR
STARTCHAR uni0968
ENCODING 2408
SWIDTH 453 0
DWIDTH 5 0
BBX 5 7 0 0
BITMAP
2A40
4040
0140
0500
1400
5000
6540
ENDCHAR
STARTCHAR uni0969
ENCODING 2409
SWIDTH 489 0
DWIDTH 5 0
BBX 5 7 0 0
BITMAP
2A40
4080
0040
0600
0040
4080
2640
ENDCHAR
STARTCHAR uni096A
ENCODING 2410
SWIDTH 453 0
DWIDTH 5 0
BBX 5 7 0 0
BITMAP
0300
0A00
1500
2100
5100
9680
0100
ENDCHAR
STARTCHAR uni096B
ENCODING 2411
SWIDTH 480 0
DWIDTH 5 0
BBX 5 7 0 0
BITMAP
6A40
5000
6600
0080
0080
5080
2640
ENDCHAR
STARTCHAR uni096C
ENCODING 2412
SWIDTH 495 0
DWIDTH 5 0
BBX 5 7 0 0
BITMAP
2A40
5000
6640
5080
5080
5080
2640
ENDCHAR
STARTCHAR uni096D
ENCODING 2413
SWIDTH 380 0
DWIDTH 4 0
BBX 4 7 0 0
BITMAP
6A
02
05
08
04
20
20
ENDCHAR
STARTCHAR uni096E
ENCODING 2414
SWIDTH 523 0
DWIDTH 6 0
BBX 5 7 0 0
BITMAP
2A40
5080
1080
2A40
1080
5080
2540
ENDCHAR
STARTCHAR uni096F
ENCODING 2415
SWIDTH 493 0
DWIDTH 5 0
BBX 5 7 0 0
BITMAP
2A40
4080
4080
2580
0080
0080
1640
ENDCHAR
STARTCHAR uni0970
ENCODING 2416
SWIDTH 391 0
DWIDTH 4 0
BBX 4 4 0 1
BITMAP
29
82
42
15
ENDCHAR
STARTCHAR uni0972
ENCODING 2418
SWIDTH 598 0
DWIDTH 7 0
BBX 7 9 0 0
BITMAP
0104
0054
1824
0120
0120
0660
0120
0120
6820
ENDCHAR
STARTCHAR Wgrave
ENCODING 7808
SWIDTH 795 0
DWIDTH 9 0
BBX 9 10 0 0
BITMAP
020000
004000
808140
518100
525200
221200
212200
251500
181800
180C00
ENDCHAR
STARTCHAR wgrave
ENCODING 7809
SWIDTH 682 0
DWIDTH 8 0
BBX 7 8 0 0
BITMAP
0500
0000
8204
4248
1148
2454
2460
1820
ENDCHAR
STARTCHAR Wacute
ENCODING 7810
SWIDTH 795 0
DWIDTH 9 0
BBX 9 10 0 0
BITMAP
005000
004000
808140
518100
525200
221200
212200
251500
181800
180C00
ENDCHAR
STARTCHAR wacute
ENCODING 7811
SWIDTH 682 0
DWIDTH 8 0
BBX 7 8 0 0
BITMAP
0080
0000
8204
4248
1148
2454
2460
1820
ENDCHAR
STARTCHAR Wdieresis
ENCODING 7812
SWIDTH 795 0
DWIDTH 9 0
BBX 9 10 0 0
BITMAP
022000
011000
808140
518100
525200
221200
212200
251500
181800
180C00
ENDCHAR
STARTCHAR wdieresis
ENCODING 7813
SWIDTH 682 0
DWIDTH 8 0
BBX 7 8 0 0
BITMAP
0480
0440
8204
4248
1148
2454
2460
1820
ENDCHAR
STARTCHAR uni1E9E
ENCODING 7838
SWIDTH 542 0
DWIDTH 6 0
BBX 5 8 1 0
BITMAP
AA00
4200
4500
4600
4140
4140
4140
4A00
ENDCHAR
STARTCHAR Ygrave
ENCODING 7922
SWIDTH 493 0
DWIDTH 5 0
BBX 5 10 0 0
BITMAP
1400
0400
8080
1080
2100
1600
0900
0800
0800
0800
ENDCHAR
STARTCHAR ygrave
ENCODING 7923
SWIDTH 459 0
DWIDTH 5 0
BBX 5 10 0 -2
BITMAP
1400
0000
8080
5140
2200
2200
1500
0C00
0800
6400
ENDCHAR
STARTCHAR uni200B
ENCODING 8203
SWIDTH 0 0
DWIDTH 0 0
BBX 1 1 0 0
BITMAP
00
ENDCHAR
STARTCHAR uni200C
ENCODING 8204
SWIDTH 0 0
DWIDTH 0 0
BBX 2 12 -1 -3
BITMAP
50
50
50
50
50
50
50
50
50
50
50
50
ENDCHAR
STARTCHAR uni200D
ENCODING 8205
SWIDTH 0 0
DWIDTH 0 0
BBX 3 12 -1 -3
BITMAP
A0
A0
54
50
50
50
50
50
50
50
50
50
ENDCHAR
STARTCHAR endash
ENCODING 8211
SWIDTH 408 0
DWIDTH 4 0
BBX 4 1 0 3
BITMAP
55
ENDCHAR
STARTCHAR emdash
ENCODING 8212
SWIDTH 537 0
DWIDTH 6 0
BBX 6 1 0 3
BITMAP
5550
ENDCHAR
STARTCHAR quoteleft
ENCODING 8216
SWIDTH 179 0
DWIDTH 2 0
BBX 2 2 0 5
BITMAP
50
50
ENDCHAR
STARTCHAR quoteright
ENCODING 8217
SWIDTH 179 0
DWIDTH 2 0
BBX 2 2 0 6
BITMAP
50
40
ENDCHAR
STARTCHAR quotesinglbase
ENCODING 8218
SWIDTH 187 0
DWIDTH 2 0
BBX 2 3 0 -1
BITMAP
50
50
40
ENDCHAR
STARTCHAR quotedblleft
ENCODING 8220
SWIDTH 329 0
DWIDTH 4 0
BBX 3 2 0 5
BITMAP
54
58
ENDCHAR
STARTCHAR quotedblright
ENCODING 8221
SWIDTH 329 0
DWIDTH 4 0
BBX 3 2 0 6
BITMAP
58
44
ENDCHAR
STARTCHAR quotedblbase
ENCODING 8222
SWIDTH 337 0
DWIDTH 4 0
BBX 3 3 0 -1
BITMAP
54
58
44
ENDCHAR
STARTCHAR dagger
ENCODING 8224
SWIDTH 427 0
DWIDTH 5 0
BBX 4 8 0 0
BITMAP
08
04
59
08
08
08
04
04
ENDCHAR
STARTCHAR daggerdbl
ENCODING 8225
SWIDTH 427 0
DWIDTH 5 0
BBX 4 8 0 0
BITMAP
08
04
59
08
08
59
04
08
ENDCHAR
STARTCHAR bullet
ENCODING 8226
SWIDTH 273 0
DWIDTH 3 0
BBX 1 2 1 3
BITMAP
C0
C0
ENDCHAR
STARTCHAR ellipsis
ENCODING 8230
SWIDTH 591 0
DWIDTH 7 0
BBX 6 2 0 0
BITMAP
1110
5220
ENDCHAR
STARTCHAR perthousand
ENCODING 8240
SWIDTH 1027 0
DWIDTH 11 0
BBX 11 8 0 0
BITMAP
581000
414000
414000
144000
011454
014144
054144
045854
ENDCHAR
STARTCHAR guilsinglleft
ENCODING 8249
SWIDTH 290 0
DWIDTH 3 0
BBX 2 4 1 1
BITMAP
10
80
40
50
ENDCHAR
STARTCHAR guilsinglright
ENCODING 8250
SWIDTH 290 0
DWIDTH 3 0
BBX 2 3 1 1
BITMAP
40
50
40
ENDCHAR
STARTCHAR fraction
ENCODING 8260
SWIDTH 117 0
DWIDTH 1 0
BBX 6 8 -2 0
BITMAP
0050
0040
0200
0500
0400
1000
5000
4000
ENDCHAR
STARTCHAR Euro
ENCODING 8364
SWIDTH 523 0
DWIDTH 6 0
BBX 5 8 0 0
BITMAP
1A40
2080
2040
6500
6500
2040
2080
1A40
ENDCHAR
STARTCHAR uni20B9
ENCODING 8377
SWIDTH 414 0
DWIDTH 5 0
BBX 4 7 0 0
BITMAP
69
59
08
64
20
14
08
ENDCHAR
STARTCHAR trademark
ENCODING 8482
SWIDTH 591 0
DWIDTH 7 0
BBX 5 3 1 4
BITMAP
9880
4640
4440
ENDCHAR
STARTCHAR uni2126
ENCODING 8486
SWIDTH 629 0
DWIDTH 7 0
BBX 7 7 0 0
BITMAP
1A90
2020
2020
2020
2020
2020
68A4
ENDCHAR
STARTCHAR partialdiff
ENCODING 8706
SWIDTH 481 0
DWIDTH 5 0
BBX 5 8 0 0
BITMAP
1400
0600
0040
1980
5080
5080
5080
2A40
ENDCHAR
STARTCHAR uni2206
ENCODING 8710
SWIDTH 594 0
DWIDTH 7 0
BBX 6 7 0 0
BITMAP
0600
0940
0880
1480
2050
1020
AAA0
ENDCHAR
STARTCHAR minus
ENCODING 8722
SWIDTH 523 0
DWIDTH 6 0
BBX 4 1 1 3
BITMAP
A9
ENDCHAR
STARTCHAR approxequal
ENCODING 8776
SWIDTH 523 0
DWIDTH 6 0
BBX 4 3 1 2
BITMAP
55
00
55
ENDCHAR
STARTCHAR notequal
ENCODING 8800
SWIDTH 523 0
DWIDTH 6 0
BBX 4 5 1 1
BITMAP
04
69
10
65
10
ENDCHAR
STARTCHAR lessequal
ENCODING 8804
SWIDTH 523 0
DWIDTH 6 0
BBX 4 5 1 1
BITMAP
01
54
54
05
55
ENDCHAR
STARTCHAR greaterequal
ENCODING 8805
SWIDTH 523 0
DWIDTH 6 0
BBX 4 5 1 1
BITMAP
40
55
15
40
55
ENDCHAR
STARTCHAR uni25CC
ENCODING 9676
SWIDTH 701 0
DWIDTH 8 0
BBX 6 7 1 0
BITMAP
0940
2050
8000
0020
8020
5080
1600
ENDCHAR
STARTCHAR commaaccent
ENCODING 63171
SWIDTH 0 0
DWIDTH 0 0
BBX 1 2 2 -3
BITMAP
80
40
ENDCHAR
STARTCHAR .notdef
ENCODING -1
SWIDTH 600 0
DWIDTH 7 0
BBX 5 7 1 0
BITMAP
6A40
8140
8140
8140
8140
8140
6A40
ENDCHAR
STARTCHAR .null
ENCODING -1
SWIDTH 0 0
DWIDTH 0 0
BBX 1 1 0 0
BITMAP
00
ENDCHAR
STARTCHAR nonmarkingreturn
ENCODING -1
SWIDTH 333 0
DWIDTH 4 0
BBX 1 1 0 0
BITMAP
00
ENDCHAR
STARTCHAR uni0915094D
ENCODING -1
SWIDTH 519 0
DWIDTH 6 0
BBX 7 7 0 0
BITMAP
5694
1594
5140
5140
5140
1640
0140
ENDCHAR
STARTCHAR uni0916094D
ENCODING -1
SWIDTH 468 0
DWIDTH 5 0
BBX 6 7 0 0
BITMAP
5950
0800
0880
6500
1100
1490
0800
ENDCHAR
STARTCHAR uni0917094D
ENCODING -1
SWIDTH 264 0
DWIDTH 3 0
BBX 3 5 0 2
BITMAP
64
20
20
20
50
ENDCHAR
STARTCHAR uni0918094D
ENCODING -1
SWIDTH 321 0
DWIDTH 4 0
BBX 5 6 0 1
BITMAP
AA40
5000
2800
1000
1000
1940
ENDCHAR
STARTCHAR uni0919094D
ENCODING -1
SWIDTH 505 0
DWIDTH 6 0
BBX 6 10 0 -3
BITMAP
5690
0140
1600
1040
1640
0080
2640
0400
0100
0100
ENDCHAR
STARTCHAR uni091A094D
ENCODING -1
SWIDTH 330 0
DWIDTH 4 0
BBX 5 6 0 1
BITMAP
5540
0000
6900
2000
2000
1940
ENDCHAR
STARTCHAR uni091B094D
ENCODING -1
SWIDTH 581 0
DWIDTH 6 0
BBX 7 7 0 0
BITMAP
6554
1000
1080
2420
1020
1020
2A90
ENDCHAR
STARTCHAR uni091C094D
ENCODING -1
SWIDTH 309 0
DWIDTH 3 0
BBX 5 6 0 1
BITMAP
5540
0000
2A40
0800
0800
6400
ENDCHAR
STARTCHAR uni091D094D
ENCODING -1
SWIDTH 432 0
DWIDTH 5 0
BBX 6 8 0 -1
BITMAP
5650
0200
1600
5000
1650
5140
6600
5000
ENDCHAR
STARTCHAR uni091E094D
ENCODING -1
SWIDTH 359 0
DWIDTH 4 0
BBX 5 6 0 1
BITMAP
5540
2400
0400
0640
0400
6400
ENDCHAR
STARTCHAR uni091F094D
ENCODING -1
SWIDTH 485 0
DWIDTH 5 0
BBX 6 10 0 -3
BITMAP
5690
0140
1A00
5000
5000
5080
2A40
0000
0100
0100
ENDCHAR
STARTCHAR uni0920094D
ENCODING -1
SWIDTH 512 0
DWIDTH 6 0
BBX 6 10 0 -3
BITMAP
5690
0140
1A40
5080
5080
5080
2A40
0000
0500
0100
ENDCHAR
STARTCHAR uni0921094D
ENCODING -1
SWIDTH 475 0
DWIDTH 5 0
BBX 6 10 0 -3
BITMAP
5690
0140
1600
1000
1640
1080
2640
0400
0100
0100
ENDCHAR
STARTCHAR uni0922094D
ENCODING -1
SWIDTH 485 0
DWIDTH 5 0
BBX 6 10 0 -3
BITMAP
5690
0140
1600
1000
5240
5480
2A40
0000
0100
0100
ENDCHAR
STARTCHAR uni0923094D
ENCODING -1
SWIDTH 454 0
DWIDTH 5 0
BBX 5 5 0 2
BITMAP
A680
1100
1100
2200
1900
ENDCHAR
STARTCHAR uni0924094D
ENCODING -1
SWIDTH 263 0
DWIDTH 3 0
BBX 4 7 0 0
BITMAP
55
00
19
50
50
50
24
ENDCHAR
STARTCHAR uni0925094D
ENCODING -1
SWIDTH 359 0
DWIDTH 4 0
BBX 5 6 0 1
BITMAP
2900
1200
0200
6800
5000
1940
ENDCHAR
STARTCHAR uni0926094D
ENCODING -1
SWIDTH 489 0
DWIDTH 5 0
BBX 6 9 0 -2
BITMAP
5690
0040
2A40
5000
5040
1980
0040
0500
0100
ENDCHAR
STARTCHAR uni0927094D
ENCODING -1
SWIDTH 321 0
DWIDTH 4 0
BBX 5 6 0 1
BITMAP
A540
5000
2800
1000
1000
1940
ENDCHAR
STARTCHAR uni0928094D
ENCODING -1
SWIDTH 233 0
DWIDTH 3 0
BBX 4 5 0 2
BITMAP
55
00
00
65
40
ENDCHAR
STARTCHAR uni092A094D
ENCODING -1
SWIDTH 269 0
DWIDTH 3 0
BBX 5 5 0 2
BITMAP
A540
1000
1000
1000
1A00
ENDCHAR
STARTCHAR uni092B094D
ENCODING -1
SWIDTH 530 0
DWIDTH 6 0
BBX 7 7 0 0
BITMAP
A694
1094
1040
2140
1A40
0040
0040
ENDCHAR
STARTCHAR uni092C094D
ENCODING -1
SWIDTH 265 0
DWIDTH 3 0
BBX 5 6 0 1
BITMAP
5500
1400
6000
5400
5240
1900
ENDCHAR
STARTCHAR uni092D094D
ENCODING -1
SWIDTH 261 0
DWIDTH 3 0
BBX 4 5 0 2
BITMAP
81
10
10
25
10
ENDCHAR
STARTCHAR uni092E094D
ENCODING -1
SWIDTH 261 0
DWIDTH 3 0
BBX 4 5 0 2
BITMAP
A5
10
10
25
10
ENDCHAR
STARTCHAR uni092F094D
ENCODING -1
SWIDTH 323 0
DWIDTH 4 0
BBX 5 6 0 1
BITMAP
6940
0800
6400
5000
1040
1540
ENDCHAR
STARTCHAR uni0930094D
ENCODING -1
SWIDTH 337 0
DWIDTH 4 0
BBX 4 10 0 -3
BITMAP
59
08
08
64
10
10
08
10
04
04
ENDCHAR
STARTCHAR uni0932094D
ENCODING -1
SWIDTH 431 0
DWIDTH 5 0
BBX 6 7 0 0
BITMAP
5550
0000
1990
1200
5200
5000
2400
ENDCHAR
STARTCHAR uni0933094D
ENCODING -1
SWIDTH 677 0
DWIDTH 7 0
BBX 8 7 0 0
BITMAP
5555
0000
15A0
5204
5208
5208
26A4
ENDCHAR
STARTCHAR uni0935094D
ENCODING -1
SWIDTH 255 0
DWIDTH 3 0
BBX 5 6 0 1
BITMAP
5500
1400
5000
5000
5040
1900
ENDCHAR
STARTCHAR uni0936094D
ENCODING -1
SWIDTH 378 0
DWIDTH 4 0
BBX 4 7 0 0
BITMAP
29
52
02
69
20
14
08
ENDCHAR
STARTCHAR uni0937094D
ENCODING -1
SWIDTH 282 0
DWIDTH 3 0
BBX 5 5 0 2
BITMAP
A540
2400
1500
1140
1900
ENDCHAR
STARTCHAR uni0938094D
ENCODING -1
SWIDTH 338 0
DWIDTH 4 0
BBX 5 7 0 0
BITMAP
5940
0800
0800
6A40
5000
2000
0400
ENDCHAR
STARTCHAR uni0939094D
ENCODING -1
SWIDTH 457 0
DWIDTH 5 0
BBX 6 8 0 -1
BITMAP
5690
1A40
1000
1000
2950
1000
1000
1500
ENDCHAR
STARTCHAR uni0915093C094D
ENCODING -1
SWIDTH 519 0
DWIDTH 6 0
BBX 7 8 0 -1
BITMAP
5694
1594
5140
5140
5140
1640
0140
1000
ENDCHAR
STARTCHAR uni0916093C094D
ENCODING -1
SWIDTH 463 0
DWIDTH 5 0
BBX 6 8 0 -1
BITMAP
5950
0800
0880
6500
1100
1490
0800
1000
ENDCHAR
STARTCHAR uni0917093C094D
ENCODING -1
SWIDTH 264 0
DWIDTH 3 0
BBX 3 7 0 0
BITMAP
64
20
20
20
50
00
10
ENDCHAR
STARTCHAR uni091C093C094D
ENCODING -1
SWIDTH 314 0
DWIDTH 3 0
BBX 5 8 0 -1
BITMAP
5540
0000
2A40
0800
0800
6400
0000
1000
ENDCHAR
STARTCHAR uni0928093C094D
ENCODING -1
SWIDTH 241 0
DWIDTH 3 0
BBX 4 7 0 0
BITMAP
55
00
00
65
40
00
10
ENDCHAR
STARTCHAR uni092B093C094D
ENCODING -1
SWIDTH 530 0
DWIDTH 6 0
BBX 7 8 0 -1
BITMAP
A694
1094
1040
2140
1A40
0040
0040
1000
ENDCHAR
STARTCHAR uni092F093C094D
ENCODING -1
SWIDTH 325 0
DWIDTH 4 0
BBX 5 8 0 -1
BITMAP
6940
0800
6400
5000
1040
1540
0000
1000
ENDCHAR
STARTCHAR uni09080902
ENCODING -1
SWIDTH 478 0
DWIDTH 5 0
BBX 6 10 0 0
BITMAP
0240
0540
0500
5690
0140
2600
5000
2640
5080
6640
ENDCHAR
STARTCHAR uni09300941
ENCODING -1
SWIDTH 533 0
DWIDTH 6 0
BBX 6 7 0 0
BITMAP
5950
0800
0980
6440
1080
1100
0800
ENDCHAR
STARTCHAR uni09300942
ENCODING -1
SWIDTH 645 0
DWIDTH 7 0
BBX 7 7 0 0
BITMAP
5954
08A0
0914
6504
1020
1080
0800
ENDCHAR
STARTCHAR uni09390941
ENCODING -1
SWIDTH 495 0
DWIDTH 5 0
BBX 6 10 0 -3
BITMAP
5690
0140
1A40
1000
2600
1040
1000
1540
5080
1540
ENDCHAR
STARTCHAR uni09390942
ENCODING -1
SWIDTH 492 0
DWIDTH 5 0
BBX 6 10 0 -3
BITMAP
5690
0140
1A40
1000
2600
1040
2500
2140
2040
1440
ENDCHAR
STARTCHAR uni09260943
ENCODING -1
SWIDTH 390 0
DWIDTH 4 0
BBX 5 7 0 0
BITMAP
5A40
0100
1500
1000
2400
1000
2900
ENDCHAR
STARTCHAR uni09390943
ENCODING -1
SWIDTH 519 0
DWIDTH 6 0
BBX 6 9 0 -2
BITMAP
5690
0140
2A40
5000
2A80
5440
5640
5000
1500
ENDCHAR
STARTCHAR uni094D0930
ENCODING -1
SWIDTH 0 0
DWIDTH 0 0
BBX 4 2 -5 -2
BITMAP
18
52
ENDCHAR
STARTCHAR uni0930094D.1
ENCODING -1
SWIDTH 192 0
DWIDTH 2 0
BBX 4 3 -1 4
BITMAP
14
00
69
ENDCHAR
STARTCHAR uni0930094D.2
ENCODING -1
SWIDTH 0 0
DWIDTH 0 0
BBX 2 3 -2 7
BITMAP
60
80
80
ENDCHAR
STARTCHAR uni0930094D0902
ENCODING -1
SWIDTH 0 0
DWIDTH 0 0
BBX 2 3 -2 7
BITMAP
60
90
80
ENDCHAR
STARTCHAR uni093E0930094D
ENCODING -1
SWIDTH 231 0
DWIDTH 3 0
BBX 3 10 0 0
BITMAP
24
20
20
64
20
20
20
20
20
20
ENDCHAR
STARTCHAR uni093E0930094D0902
ENCODING -1
SWIDTH 231 0
DWIDTH 3 0
BBX 3 10 0 0
BITMAP
24
24
20
64
20
20
20
20
20
20
ENDCHAR
STARTCHAR uni0930094D.aMatraI
ENCODING -1
SWIDTH 0 0
DWIDTH 0 0
BBX 2 3 -1 7
BITMAP
20
40
80
ENDCHAR
STARTCHAR uni0902.aMatraI
ENCODING -1
SWIDTH 0 0
DWIDTH 0 0
BBX 1 1 0 8
BITMAP
40
ENDCHAR
STARTCHAR uni0930094D0902.aMatraI
ENCODING -1
SWIDTH 0 0
DWIDTH 0 0
BBX 2 3 -1 7
BITMAP
20
40
90
ENDCHAR
STARTCHAR uni09400930094D
ENCODING -1
SWIDTH 231 0
DWIDTH 3 0
BBX 5 10 -2 0
BITMAP
6A40
8200
0200
0640
0200
0200
0200
0200
0200
0200
ENDCHAR
STARTCHAR uni09400902
ENCODING -1
SWIDTH 231 0
DWIDTH 3 0
BBX 5 10 -2 0
BITMAP
6900
8240
0200
0640
0200
0200
0200
0200
0200
0200
ENDCHAR
STARTCHAR uni09400930094D0902
ENCODING -1
SWIDTH 231 0
DWIDTH 3 0
BBX 5 10 -2 0
BITMAP
6A40
4240
0200
0640
0200
0200
0200
0200
0200
0200
ENDCHAR
STARTCHAR uni0940.aLong
ENCODING -1
SWIDTH 231 0
DWIDTH 3 0
BBX 8 10 -5 0
BITMAP
2AA4
5008
0008
0019
0008
0008
0008
0008
0008
0008
ENDCHAR
STARTCHAR uni09400930094D.aLong
ENCODING -1
SWIDTH 231 0
DWIDTH 3 0
BBX 8 10 -5 0
BITMAP
2AA9
5008
0008
0019
0008
0008
0008
0008
0008
0008
ENDCHAR
STARTCHAR uni09400902.aLong
ENCODING -1
SWIDTH 231 0
DWIDTH 3 0
BBX 8 10 -5 0
BITMAP
2AA4
5009
0008
0019
0008
0008
0008
0008
0008
0008
ENDCHAR
STARTCHAR uni09400930094D0902.aLong
ENCODING -1
SWIDTH 231 0
DWIDTH 3 0
BBX 8 10 -5 0
BITMAP
26A9
5009
0008
0019
0008
0008
0008
0008
0008
0008
ENDCHAR
STARTCHAR uni09470930094D
ENCODING -1
SWIDTH 0 0
DWIDTH 0 0
BBX 3 3 -3 7
BITMAP
58
60
20
ENDCHAR
STARTCHAR uni09470902
ENCODING -1
SWIDTH 0 0
DWIDTH 0 0
BBX 4 3 -4 7
BITMAP
50
21
08
ENDCHAR
STARTCHAR uni09470901
ENCODING -1
SWIDTH 0 0
DWIDTH 0 0
BBX 6 3 -4 7
BITMAP
5040
2510
0950
ENDCHAR
STARTCHAR uni09470930094D0902
ENCODING -1
SWIDTH 0 0
DWIDTH 0 0
BBX 3 3 -3 7
BITMAP
98
64
20
ENDCHAR
STARTCHAR uni09480930094D
ENCODING -1
SWIDTH 0 0
DWIDTH 0 0
BBX 4 3 -4 7
BITMAP
5A
18
08
ENDCHAR
STARTCHAR uni09480902
ENCODING -1
SWIDTH 0 0
DWIDTH 0 0
BBX 4 3 -4 7
BITMAP
54
19
08
ENDCHAR
STARTCHAR uni09480901
ENCODING -1
SWIDTH 0 0
DWIDTH 0 0
BBX 7 3 -4 7
BITMAP
5414
2854
0800
ENDCHAR
STARTCHAR uni09480930094D0902
ENCODING -1
SWIDTH 0 0
DWIDTH 0 0
BBX 4 3 -4 7
BITMAP
5A
29
08
ENDCHAR
STARTCHAR uni094B0930094D
ENCODING -1
SWIDTH 231 0
DWIDTH 3 0
BBX 4 10 -1 0
BITMAP
89
28
18
19
08
08
08
08
08
08
ENDCHAR
STARTCHAR uni094B0902
ENCODING -1
SWIDTH 231 0
DWIDTH 3 0
BBX 4 10 -1 0
BITMAP
80
25
14
19
08
08
08
08
08
08
ENDCHAR
STARTCHAR uni094B0930094D0902
ENCODING -1
SWIDTH 231 0
DWIDTH 3 0
BBX 4 10 -1 0
BITMAP
89
29
18
19
08
08
08
08
08
08
ENDCHAR
STARTCHAR uni094C0930094D
ENCODING -1
SWIDTH 231 0
DWIDTH 3 0
BBX 4 10 -1 0
BITMAP
99
68
18
19
08
08
08
08
08
08
ENDCHAR
STARTCHAR uni094C0902
ENCODING -1
SWIDTH 231 0
DWIDTH 3 0
BBX 4 10 -1 0
BITMAP
88
19
14
19
08
08
08
08
08
08
ENDCHAR
STARTCHAR uni094C0930094D0902
ENCODING -1
SWIDTH 231 0
DWIDTH 3 0
BBX 4 10 -1 0
BITMAP
99
69
18
19
08
08
08
08
08
08
ENDCHAR
STARTCHAR uni0915094D0937
ENCODING -1
SWIDTH 656 0
DWIDTH 7 0
BBX 7 7 0 0
BITMAP
1618
2154
2AA4
5014
5154
1654
0150
ENDCHAR
STARTCHAR uni0915094D0937094D
ENCODING -1
SWIDTH 429 0
DWIDTH 5 0
BBX 6 7 0 0
BITMAP
1600
2140
2A90
5000
5140
1640
0140
ENDCHAR
STARTCHAR uni0915094D0937094D092E
ENCODING -1
SWIDTH 933 0
DWIDTH 10 0
BBX 11 7 0 0
BITMAP
1629A4
215450
2AA450
501990
515450
164050
014050
ENDCHAR
STARTCHAR uni0915094D0937094D092E094D
ENCODING -1
SWIDTH 717 0
DWIDTH 8 0
BBX 9 7 0 0
BITMAP
162940
215400
2AA400
501940
515400
164000
014000
ENDCHAR
STARTCHAR uni0915094D0937094D092E094D092F
ENCODING -1
SWIDTH 1283 0
DWIDTH 14 0
BBX 14 7 0 0
BITMAP
162969A0
21540840
2AA46440
50199040
51545080
16401580
01400040
ENDCHAR
STARTCHAR uni0915094D0937094D092F
ENCODING -1
SWIDTH 989 0
DWIDTH 11 0
BBX 11 7 0 0
BITMAP
161A64
214220
2AA920
502020
515020
164560
014020
ENDCHAR
STARTCHAR uni0915094D0937094D0935
ENCODING -1
SWIDTH 936 0
DWIDTH 10 0
BBX 11 7 0 0
BITMAP
1615A4
214550
2AA450
501450
515450
164590
014050
ENDCHAR
STARTCHAR uni091C094D091E
ENCODING -1
SWIDTH 629 0
DWIDTH 7 0
BBX 7 8 0 -1
BITMAP
5564
0020
2AA0
5020
1620
5060
6660
1000
ENDCHAR
STARTCHAR uni091C094D091E094D
ENCODING -1
SWIDTH 398 0
DWIDTH 4 0
BBX 6 8 0 -1
BITMAP
5550
0000
2A90
5000
1600
1040
6640
5000
ENDCHAR
STARTCHAR uni091C094D091E094D092F
ENCODING -1
SWIDTH 975 0
DWIDTH 11 0
BBX 11 8 0 -1
BITMAP
555A64
000120
2A9120
502820
162020
505960
664020
100000
ENDCHAR
STARTCHAR uni0915094D0928
ENCODING -1
SWIDTH 1003 0
DWIDTH 11 0
BBX 11 7 0 0
BITMAP
569564
159420
514420
514660
514420
164020
014010
ENDCHAR
STARTCHAR uni0916094D0928
ENCODING -1
SWIDTH 958 0
DWIDTH 11 0
BBX 11 7 0 0
BITMAP
595564
080020
08A020
650960
10A420
140020
080020
ENDCHAR
STARTCHAR uni0917094D0928
ENCODING -1
SWIDTH 736 0
DWIDTH 8 0
BBX 8 7 0 0
BITMAP
655A
2004
2004
2198
5104
0004
0004
ENDCHAR
STARTCHAR uni0918094D0928
ENCODING -1
SWIDTH 814 0
DWIDTH 9 0
BBX 9 7 0 0
BITMAP
A55640
500200
280200
105600
108200
158200
000200
ENDCHAR
STARTCHAR uni091A094D0928
ENCODING -1
SWIDTH 829 0
DWIDTH 9 0
BBX 9 7 0 0
BITMAP
555680
000100
690100
206600
208100
158100
000100
ENDCHAR
STARTCHAR uni091B094D0928
ENCODING -1
SWIDTH 977 0
DWIDTH 11 0
BBX 11 7 0 0
BITMAP
655564
108020
102020
242560
102820
102020
2A9020
ENDCHAR
STARTCHAR uni091C094D0928
ENCODING -1
SWIDTH 831 0
DWIDTH 9 0
BBX 9 7 0 0
BITMAP
555680
000100
2AAA00
088100
044100
080100
640100
ENDCHAR
STARTCHAR uni091D094D0928
ENCODING -1
SWIDTH 935 0
DWIDTH 10 0
BBX 11 8 0 -1
BITMAP
5655A4
160050
500050
166450
011050
510050
660050
500000
ENDCHAR
STARTCHAR uni091F094D0928
ENCODING -1
SWIDTH 494 0
DWIDTH 5 0
BBX 6 10 0 -3
BITMAP
5690
0140
1A00
1000
5040
1080
1640
2640
5140
0140
ENDCHAR
STARTCHAR uni0920094D0928
ENCODING -1
SWIDTH 516 0
DWIDTH 6 0
BBX 6 10 0 -3
BITMAP
5690
0140
1A40
5080
5080
5080
1640
2640
5140
0140
ENDCHAR
STARTCHAR uni0921094D0928
ENCODING -1
SWIDTH 481 0
DWIDTH 5 0
BBX 6 10 0 -3
BITMAP
5690
0140
2640
1000
1540
5080
1640
2640
1140
1140
ENDCHAR
STARTCHAR uni0924094D0928
ENCODING -1
SWIDTH 756 0
DWIDTH 8 0
BBX 9 7 0 0
BITMAP
555A40
000500
1A0500
519900
514500
500500
240500
ENDCHAR
STARTCHAR uni0925094D0928
ENCODING -1
SWIDTH 855 0
DWIDTH 9 0
BBX 10 7 0 0
BITMAP
295690
120040
020040
682A40
505040
155040
000040
ENDCHAR
STARTCHAR uni0926094D0928
ENCODING -1
SWIDTH 955 0
DWIDTH 11 0
BBX 11 10 0 -3
BITMAP
5695A4
004020
2A4020
5009A0
504420
198020
004010
004000
004000
001000
ENDCHAR
STARTCHAR uni0927094D0928
ENCODING -1
SWIDTH 814 0
DWIDTH 9 0
BBX 9 7 0 0
BITMAP
A45640
500200
280200
105600
108200
164200
000200
ENDCHAR
STARTCHAR uni0928094D0928
ENCODING -1
SWIDTH 738 0
DWIDTH 8 0
BBX 8 7 0 0
BITMAP
555A
0004
0004
6698
4204
0004
0004
ENDCHAR
STARTCHAR uni092A094D0928
ENCODING -1
SWIDTH 782 0
DWIDTH 9 0
BBX 9 7 0 0
BITMAP
A55640
100200
100200
20AA00
154200
000200
000200
ENDCHAR
STARTCHAR uni092B094D0928
ENCODING -1
SWIDTH 1013 0
DWIDTH 11 0
BBX 11 7 0 0
BITMAP
A69568
109410
104410
214660
1A4410
004010
004010
ENDCHAR
STARTCHAR uni092C094D0928
ENCODING -1
SWIDTH 810 0
DWIDTH 9 0
BBX 9 7 0 0
BITMAP
555640
140200
600200
585600
524200
190200
000200
ENDCHAR
STARTCHAR uni092D094D0928
ENCODING -1
SWIDTH 757 0
DWIDTH 8 0
BBX 9 7 0 0
BITMAP
815A40
100500
100500
2A9900
110500
000500
000500
ENDCHAR
STARTCHAR uni092E094D0928
ENCODING -1
SWIDTH 757 0
DWIDTH 8 0
BBX 9 7 0 0
BITMAP
A55A40
100500
100500
2A9900
110500
000500
000500
ENDCHAR
STARTCHAR uni092F094D0928
ENCODING -1
SWIDTH 829 0
DWIDTH 9 0
BBX 9 7 0 0
BITMAP
695680
080100
640100
506600
108100
154100
000100
ENDCHAR
STARTCHAR uni0935094D0928
ENCODING -1
SWIDTH 798 0
DWIDTH 9 0
BBX 9 7 0 0
BITMAP
555640
140200
500200
505600
504200
190200
000200
ENDCHAR
STARTCHAR uni0936094D0928
ENCODING -1
SWIDTH 845 0
DWIDTH 9 0
BBX 10 7 0 0
BITMAP
295690
120140
020140
694140
204140
140140
080140
ENDCHAR
STARTCHAR uni0938094D0928
ENCODING -1
SWIDTH 831 0
DWIDTH 9 0
BBX 9 7 0 0
BITMAP
595680
080100
080100
6A8100
504100
200100
040100
ENDCHAR
STARTCHAR uni0939094D0928
ENCODING -1
SWIDTH 500 0
DWIDTH 6 0
BBX 6 9 0 -2
BITMAP
5590
0080
1540
1000
2680
1280
5540
1000
1500
ENDCHAR
STARTCHAR uni0915094D0930
ENCODING -1
SWIDTH 725 0
DWIDTH 8 0
BBX 8 8 0 -1
BITMAP
5695
1594
5145
5145
5145
1A54
0940
1000
ENDCHAR
STARTCHAR uni0916094D0930
ENCODING -1
SWIDTH 698 0
DWIDTH 8 0
BBX 8 8 0 -1
BITMAP
5959
0808
0888
6508
1108
1468
0848
0040
ENDCHAR
STARTCHAR uni0917094D0930
ENCODING -1
SWIDTH 494 0
DWIDTH 5 0
BBX 6 7 0 0
BITMAP
6690
2040
2040
2040
5240
0940
1040
ENDCHAR
STARTCHAR uni0918094D0930
ENCODING -1
SWIDTH 559 0
DWIDTH 6 0
BBX 6 8 0 -1
BITMAP
A5A0
5040
2840
1040
1040
1A80
0540
0400
ENDCHAR
STARTCHAR uni0919094D0930
ENCODING -1
SWIDTH 505 0
DWIDTH 6 0
BBX 6 9 0 -2
BITMAP
5690
0140
1600
1040
1640
0080
2640
1900
2100
ENDCHAR
STARTCHAR uni091A094D0930
ENCODING -1
SWIDTH 563 0
DWIDTH 6 0
BBX 6 8 0 -1
BITMAP
55A0
0050
6950
2050
2050
1A90
0550
0400
ENDCHAR
STARTCHAR uni091B094D0930
ENCODING -1
SWIDTH 581 0
DWIDTH 6 0
BBX 7 9 0 -2
BITMAP
65A4
1050
1090
2420
1020
1020
2A90
0940
1040
ENDCHAR
STARTCHAR uni091C094D0930
ENCODING -1
SWIDTH 547 0
DWIDTH 6 0
BBX 6 8 0 -1
BITMAP
5590
0080
2980
0880
0880
6580
0540
0400
ENDCHAR
STARTCHAR uni091D094D0930
ENCODING -1
SWIDTH 684 0
DWIDTH 8 0
BBX 8 7 0 0
BITMAP
5659
1608
5008
1658
5108
5168
6688
ENDCHAR
STARTCHAR uni091E094D0930
ENCODING -1
SWIDTH 598 0
DWIDTH 7 0
BBX 7 7 0 0
BITMAP
5564
2420
0420
0660
0460
6460
0220
ENDCHAR
STARTCHAR uni091F094D0930
ENCODING -1
SWIDTH 485 0
DWIDTH 5 0
BBX 6 9 0 -2
BITMAP
5690
0140
1A00
5000
5000
5080
2A40
0A00
1140
ENDCHAR
STARTCHAR uni0920094D0930
ENCODING -1
SWIDTH 512 0
DWIDTH 6 0
BBX 6 9 0 -2
BITMAP
5690
0140
1A40
5080
5080
5080
2A40
1600
1040
ENDCHAR
STARTCHAR uni0921094D0930
ENCODING -1
SWIDTH 475 0
DWIDTH 5 0
BBX 6 8 0 -1
BITMAP
5690
0140
1600
1000
1640
5080
2640
1600
ENDCHAR
STARTCHAR uni0922094D0930
ENCODING -1
SWIDTH 485 0
DWIDTH 5 0
BBX 6 9 0 -2
BITMAP
5690
0140
1600
1000
5240
5480
2540
1600
1040
ENDCHAR
STARTCHAR uni0923094D0930
ENCODING -1
SWIDTH 681 0
DWIDTH 7 0
BBX 8 7 0 0
BITMAP
A6A9
1104
1104
2204
1924
0084
0104
ENDCHAR
STARTCHAR uni0924094D0930
ENCODING -1
SWIDTH 493 0
DWIDTH 5 0
BBX 6 7 0 0
BITMAP
5690
0040
1640
5140
0140
0540
2040
ENDCHAR
STARTCHAR uni0925094D0930
ENCODING -1
SWIDTH 593 0
DWIDTH 7 0
BBX 7 8 0 -1
BITMAP
2924
1220
0220
6820
5020
1AA0
0520
0400
ENDCHAR
STARTCHAR uni0926094D0930
ENCODING -1
SWIDTH 489 0
DWIDTH 5 0
BBX 6 8 0 -1
BITMAP
5690
0040
2A40
5000
5040
1A80
0940
0400
ENDCHAR
STARTCHAR uni0927094D0930
ENCODING -1
SWIDTH 560 0
DWIDTH 6 0
BBX 6 8 0 -1
BITMAP
A5A0
5040
2840
1040
1040
1A80
0540
0400
ENDCHAR
STARTCHAR uni0928094D0930
ENCODING -1
SWIDTH 473 0
DWIDTH 5 0
BBX 5 7 0 0
BITMAP
5680
0140
0140
6640
4240
0940
2140
ENDCHAR
STARTCHAR uni092A094D0930
ENCODING -1
SWIDTH 503 0
DWIDTH 6 0
BBX 6 7 0 0
BITMAP
A590
1080
1080
1080
1680
0880
1080
ENDCHAR
STARTCHAR uni092B094D0930
ENCODING -1
SWIDTH 741 0
DWIDTH 8 0
BBX 8 7 0 0
BITMAP
A695
1098
1081
1141
1A41
0858
2040
ENDCHAR
STARTCHAR uni092C094D0930
ENCODING -1
SWIDTH 491 0
DWIDTH 5 0
BBX 6 8 0 -1
BITMAP
5690
1440
6040
5540
5240
1A40
0840
1000
ENDCHAR
STARTCHAR uni092D094D0930
ENCODING -1
SWIDTH 491 0
DWIDTH 5 0
BBX 6 7 0 0
BITMAP
8290
1040
1040
2640
1240
0940
1040
ENDCHAR
STARTCHAR uni092E094D0930
ENCODING -1
SWIDTH 490 0
DWIDTH 5 0
BBX 6 7 0 0
BITMAP
A690
1040
1040
2A40
1240
0940
2040
ENDCHAR
STARTCHAR uni092F094D0930
ENCODING -1
SWIDTH 564 0
DWIDTH 6 0
BBX 6 8 0 -1
BITMAP
69A0
0850
6450
5050
1050
1690
0950
0400
ENDCHAR
STARTCHAR uni0935094D0930
ENCODING -1
SWIDTH 484 0
DWIDTH 5 0
BBX 6 8 0 -1
BITMAP
5690
1540
5140
5140
5140
1A40
0940
1000
ENDCHAR
STARTCHAR uni0936094D0930
ENCODING -1
SWIDTH 558 0
DWIDTH 6 0
BBX 6 7 0 0
BITMAP
2960
5240
2140
1C40
5280
0280
1840
ENDCHAR
STARTCHAR uni0938094D0930
ENCODING -1
SWIDTH 604 0
DWIDTH 7 0
BBX 7 7 0 0
BITMAP
5964
0820
0820
6AA0
50A0
2120
0420
ENDCHAR
STARTCHAR uni0939094D0930
ENCODING -1
SWIDTH 505 0
DWIDTH 6 0
BBX 6 9 0 -2
BITMAP
5690
0040
1540
5000
2680
5280
5440
5000
1500
ENDCHAR
STARTCHAR uni0915093C094D0930
ENCODING -1
SWIDTH 725 0
DWIDTH 8 0
BBX 8 8 0 -1
BITMAP
5695
1594
5145
5145
5145
1A54
1540
0400
ENDCHAR
STARTCHAR uni0916093C094D0930
ENCODING -1
SWIDTH 698 0
DWIDTH 8 0
BBX 8 8 0 -1
BITMAP
5959
0808
0888
6508
1108
1468
0848
0050
ENDCHAR
STARTCHAR uni0917093C094D0930
ENCODING -1
SWIDTH 494 0
DWIDTH 5 0
BBX 6 8 0 -1
BITMAP
6690
2040
2040
2040
5240
0940
1040
0400
ENDCHAR
STARTCHAR uni091C093C094D0930
ENCODING -1
SWIDTH 547 0
DWIDTH 6 0
BBX 6 8 0 -1
BITMAP
5590
0080
2980
0880
0880
6580
0540
4000
ENDCHAR
STARTCHAR uni0921093C094D0930
ENCODING -1
SWIDTH 475 0
DWIDTH 5 0
BBX 6 8 0 -1
BITMAP
5690
0140
1600
1000
1640
5080
2640
5600
ENDCHAR
STARTCHAR uni0922093C094D0930
ENCODING -1
SWIDTH 485 0
DWIDTH 5 0
BBX 6 9 0 -2
BITMAP
5690
0140
1600
1000
5240
5480
2540
5A00
1040
ENDCHAR
STARTCHAR uni0928093C094D0930
ENCODING -1
SWIDTH 473 0
DWIDTH 5 0
BBX 5 8 0 -1
BITMAP
5680
0140
0140
6640
4240
0940
2140
0400
ENDCHAR
STARTCHAR uni092B093C094D0930
ENCODING -1
SWIDTH 741 0
DWIDTH 8 0
BBX 8 8 0 -1
BITMAP
A695
1098
1081
1141
1A41
0858
2040
0400
ENDCHAR
STARTCHAR uni092F093C094D0930
ENCODING -1
SWIDTH 564 0
DWIDTH 6 0
BBX 6 8 0 -1
BITMAP
69A0
0850
6450
5050
1050
1690
0850
0100
ENDCHAR
STARTCHAR uni0915094D0930094D
ENCODING -1
SWIDTH 518 0
DWIDTH 6 0
BBX 7 8 0 -1
BITMAP
5694
1594
5140
5140
5140
1A40
0940
1000
ENDCHAR
STARTCHAR uni0916094D0930094D
ENCODING -1
SWIDTH 469 0
DWIDTH 5 0
BBX 6 8 0 -1
BITMAP
5950
0800
0880
6500
1100
1460
0840
0040
ENDCHAR
STARTCHAR uni0917094D0930094D
ENCODING -1
SWIDTH 264 0
DWIDTH 3 0
BBX 4 7 0 0
BITMAP
64
20
20
20
52
08
10
ENDCHAR
STARTCHAR uni0918094D0930094D
ENCODING -1
SWIDTH 319 0
DWIDTH 4 0
BBX 5 8 0 -1
BITMAP
AA40
5000
2800
1000
1040
1A40
0500
0400
ENDCHAR
STARTCHAR uni091A094D0930094D
ENCODING -1
SWIDTH 331 0
DWIDTH 4 0
BBX 5 8 0 -1
BITMAP
5540
0000
6900
2000
2040
1A40
0500
0400
ENDCHAR
STARTCHAR uni091C094D0930094D
ENCODING -1
SWIDTH 312 0
DWIDTH 3 0
BBX 5 7 0 0
BITMAP
5540
0000
2940
0800
0840
6540
0500
ENDCHAR
STARTCHAR uni091D094D0930094D
ENCODING -1
SWIDTH 441 0
DWIDTH 5 0
BBX 6 8 0 -1
BITMAP
5650
0200
1600
5000
1660
5150
6660
5080
ENDCHAR
STARTCHAR uni091E094D0930094D
ENCODING -1
SWIDTH 374 0
DWIDTH 4 0
BBX 6 7 0 0
BITMAP
5540
2400
0400
0650
0410
6480
0200
ENDCHAR
STARTCHAR uni091F094D0930094D
ENCODING -1
SWIDTH 485 0
DWIDTH 5 0
BBX 6 10 0 -3
BITMAP
5690
0140
1A00
5000
5040
5080
2A40
1500
0500
0200
ENDCHAR
STARTCHAR uni0920094D0930094D
ENCODING -1
SWIDTH 512 0
DWIDTH 6 0
BBX 6 10 0 -3
BITMAP
5690
0140
1A40
5080
5080
5080
2A40
1600
1140
0200
ENDCHAR
STARTCHAR uni0921094D0930094D
ENCODING -1
SWIDTH 475 0
DWIDTH 5 0
BBX 6 11 0 -4
BITMAP
5690
0140
1600
1000
1640
0080
2640
1A00
1100
0100
0100
ENDCHAR
STARTCHAR uni0922094D0930094D
ENCODING -1
SWIDTH 485 0
DWIDTH 5 0
BBX 6 11 0 -4
BITMAP
5690
0140
1600
1000
5240
5480
2540
0A00
1140
0200
0100
ENDCHAR
STARTCHAR uni0923094D0930094D
ENCODING -1
SWIDTH 457 0
DWIDTH 5 0
BBX 7 7 0 0
BITMAP
A680
1100
1100
2204
1920
0080
0100
ENDCHAR
STARTCHAR uni0924094D0930094D
ENCODING -1
SWIDTH 268 0
DWIDTH 3 0
BBX 5 7 0 0
BITMAP
5540
0000
1500
5140
0140
0500
2000
ENDCHAR
STARTCHAR uni0925094D0930094D
ENCODING -1
SWIDTH 358 0
DWIDTH 4 0
BBX 5 8 0 -1
BITMAP
2900
1200
0200
6800
5000
1A80
0500
0400
ENDCHAR
STARTCHAR uni0926094D0930094D
ENCODING -1
SWIDTH 489 0
DWIDTH 5 0
BBX 6 9 0 -2
BITMAP
5690
0040
2A40
5000
5040
1A80
0840
0100
0140
ENDCHAR
STARTCHAR uni0927094D0930094D
ENCODING -1
SWIDTH 322 0
DWIDTH 4 0
BBX 5 8 0 -1
BITMAP
A540
5000
1000
2800
1040
1640
0500
0400
ENDCHAR
STARTCHAR uni0928094D0930094D
ENCODING -1
SWIDTH 247 0
DWIDTH 3 0
BBX 4 7 0 0
BITMAP
55
00
00
66
41
08
20
ENDCHAR
STARTCHAR uni092A094D0930094D
ENCODING -1
SWIDTH 270 0
DWIDTH 3 0
BBX 4 7 0 0
BITMAP
A5
10
10
10
16
08
20
ENDCHAR
STARTCHAR uni092B094D0930094D
ENCODING -1
SWIDTH 523 0
DWIDTH 6 0
BBX 7 7 0 0
BITMAP
A694
5194
5140
5140
1A40
0940
2140
ENDCHAR
STARTCHAR uni092C094D0930094D
ENCODING -1
SWIDTH 267 0
DWIDTH 3 0
BBX 5 8 0 -1
BITMAP
5500
1400
6000
5400
5240
1A00
0800
1000
ENDCHAR
STARTCHAR uni092D094D0930094D
ENCODING -1
SWIDTH 257 0
DWIDTH 3 0
BBX 4 7 0 0
BITMAP
81
10
10
2A
12
08
10
ENDCHAR
STARTCHAR uni092E094D0930094D
ENCODING -1
SWIDTH 261 0
DWIDTH 3 0
BBX 4 7 0 0
BITMAP
A5
10
10
2A
12
08
10
ENDCHAR
STARTCHAR uni092F094D0930094D
ENCODING -1
SWIDTH 323 0
DWIDTH 4 0
BBX 5 8 0 -1
BITMAP
6900
0800
6400
5000
1040
1640
0900
0400
ENDCHAR
STARTCHAR uni0935094D0930094D
ENCODING -1
SWIDTH 255 0
DWIDTH 3 0
BBX 4 8 0 -1
BITMAP
55
14
50
50
50
1A
08
10
ENDCHAR
STARTCHAR uni0938094D0930094D
ENCODING -1
SWIDTH 347 0
DWIDTH 4 0
BBX 5 7 0 0
BITMAP
5940
0800
0800
6A80
5040
2200
0400
ENDCHAR
STARTCHAR uni0915093C094D0930094D
ENCODING -1
SWIDTH 518 0
DWIDTH 6 0
BBX 7 8 0 -1
BITMAP
5694
1594
5140
5140
5140
1A40
1540
0400
ENDCHAR
STARTCHAR uni0916093C094D0930094D
ENCODING -1
SWIDTH 466 0
DWIDTH 5 0
BBX 6 8 0 -1
BITMAP
5950
0800
0880
6500
1100
1460
0840
0010
ENDCHAR
STARTCHAR uni0917093C094D0930094D
ENCODING -1
SWIDTH 264 0
DWIDTH 3 0
BBX 4 8 0 -1
BITMAP
64
20
20
20
52
08
10
04
ENDCHAR
STARTCHAR uni091C093C094D0930094D
ENCODING -1
SWIDTH 320 0
DWIDTH 4 0
BBX 5 8 0 -1
BITMAP
5540
0000
2940
0800
0840
6540
0500
4000
ENDCHAR
STARTCHAR uni0928093C094D0930094D
ENCODING -1
SWIDTH 247 0
DWIDTH 3 0
BBX 4 8 0 -1
BITMAP
55
00
00
66
41
08
20
04
ENDCHAR
STARTCHAR uni092B093C094D0930094D
ENCODING -1
SWIDTH 523 0
DWIDTH 6 0
BBX 7 8 0 -1
BITMAP
A694
5194
5140
5140
1A40
0940
2140
0400
ENDCHAR
STARTCHAR uni092F093C094D0930094D
ENCODING -1
SWIDTH 323 0
DWIDTH 4 0
BBX 5 8 0 -1
BITMAP
6900
0800
6400
5000
1040
1640
0800
0100
ENDCHAR
STARTCHAR uni0915094D0915
ENCODING -1
SWIDTH 1255 0
DWIDTH 14 0
BBX 14 7 0 0
BITMAP
56956950
15965540
51441040
51481040
51442040
16426240
01401000
ENDCHAR
STARTCHAR uni0915094D0916
ENCODING -1
SWIDTH 1256 0
DWIDTH 14 0
BBX 14 7 0 0
BITMAP
56959590
15948080
51488980
51465480
51421480
16414080
01408080
ENDCHAR
STARTCHAR uni0915094D091A
ENCODING -1
SWIDTH 1086 0
DWIDTH 12 0
BBX 12 7 0 0
BITMAP
569559
15A008
514A88
514208
514208
164198
014008
ENDCHAR
STARTCHAR uni0915094D091C
ENCODING -1
SWIDTH 1071 0
DWIDTH 12 0
BBX 12 7 0 0
BITMAP
569559
154008
51A2A8
514088
514088
164648
014008
ENDCHAR
STARTCHAR uni0915094D091F
ENCODING -1
SWIDTH 984 0
DWIDTH 11 0
BBX 11 7 0 0
BITMAP
569564
159420
514A90
514800
514804
164814
0146A0
ENDCHAR
STARTCHAR uni0915094D0923
ENCODING -1
SWIDTH 1183 0
DWIDTH 13 0
BBX 13 7 0 0
BITMAP
56996640
15482200
51A82200
51482200
51468200
16400200
01400100
ENDCHAR
STARTCHAR uni0915094D0924
ENCODING -1
SWIDTH 761 0
DWIDTH 8 0
BBX 9 7 0 0
BITMAP
559540
008000
299900
208200
208200
189900
008000
ENDCHAR
STARTCHAR uni0915094D0925
ENCODING -1
SWIDTH 1118 0
DWIDTH 12 0
BBX 13 7 0 0
BITMAP
56929640
15405500
519A8500
51480500
51440500
16419900
01400500
ENDCHAR
STARTCHAR uni0915094D0926
ENCODING -1
SWIDTH 1009 0
DWIDTH 11 0
BBX 11 7 0 0
BITMAP
569568
159410
514AA0
514400
514814
164264
014014
ENDCHAR
STARTCHAR uni0915094D092A
ENCODING -1
SWIDTH 1007 0
DWIDTH 11 0
BBX 11 7 0 0
BITMAP
569968
154810
51A810
514820
514260
164010
014010
ENDCHAR
STARTCHAR uni0915094D092B
ENCODING -1
SWIDTH 1242 0
DWIDTH 14 0
BBX 14 7 0 0
BITMAP
56996550
15482540
51A82080
51482080
5142A080
16402240
01402000
ENDCHAR
STARTCHAR uni0915094D092E
ENCODING -1
SWIDTH 994 0
DWIDTH 11 0
BBX 11 7 0 0
BITMAP
569964
154820
51A820
514960
514420
164020
014020
ENDCHAR
STARTCHAR uni0915094D092F
ENCODING -1
SWIDTH 1076 0
DWIDTH 12 0
BBX 12 7 0 0
BITMAP
569699
154048
519A08
514808
514408
164158
014008
ENDCHAR
STARTCHAR uni0915094D0932
ENCODING -1
SWIDTH 1178 0
DWIDTH 13 0
BBX 13 7 0 0
BITMAP
56955640
15940200
514A5A00
51485200
51481200
16480200
01464200
ENDCHAR
STARTCHAR uni0915094D0935
ENCODING -1
SWIDTH 1013 0
DWIDTH 11 0
BBX 11 7 0 0
BITMAP
569568
159650
514410
514410
514410
164260
014010
ENDCHAR
STARTCHAR uni0915094D0936
ENCODING -1
SWIDTH 1194 0
DWIDTH 13 0
BBX 13 7 0 0
BITMAP
56916180
15421100
51A82100
51469100
51420100
16404100
01405100
ENDCHAR
STARTCHAR uni0915094D0938
ENCODING -1
SWIDTH 1143 0
DWIDTH 13 0
BBX 13 7 0 0
BITMAP
56959640
15948200
51448200
5146AA00
51420200
16414200
01408200
ENDCHAR
STARTCHAR uni0916094D0916
ENCODING -1
SWIDTH 1223 0
DWIDTH 13 0
BBX 14 7 0 0
BITMAP
59559690
08008040
08808840
650A2040
11092040
14920940
08008040
ENDCHAR
STARTCHAR uni0916094D0924
ENCODING -1
SWIDTH 984 0
DWIDTH 11 0
BBX 11 7 0 0
BITMAP
595564
080020
0886A0
650820
110820
149820
080920
ENDCHAR
STARTCHAR uni0916094D092E
ENCODING -1
SWIDTH 965 0
DWIDTH 11 0
BBX 11 7 0 0
BITMAP
595964
080820
088820
650960
110820
145020
080020
ENDCHAR
STARTCHAR uni0916094D092F
ENCODING -1
SWIDTH 1047 0
DWIDTH 12 0
BBX 12 7 0 0
BITMAP
595699
080148
080908
650808
110808
149658
080008
ENDCHAR
STARTCHAR uni0916094D0935
ENCODING -1
SWIDTH 975 0
DWIDTH 11 0
BBX 11 7 0 0
BITMAP
595564
080620
088820
650820
110820
149660
080020
ENDCHAR
STARTCHAR uni0916094D0936
ENCODING -1
SWIDTH 1123 0
DWIDTH 12 0
BBX 13 7 0 0
BITMAP
59568640
08085500
08845500
65198500
11080500
14950500
08020500
ENDCHAR
STARTCHAR uni0917094D0917
ENCODING -1
SWIDTH 744 0
DWIDTH 8 0
BBX 8 7 0 0
BITMAP
659A
2085
2085
2085
5245
0005
0004
ENDCHAR
STARTCHAR uni0917094D0918
ENCODING -1
SWIDTH 823 0
DWIDTH 9 0
BBX 9 7 0 0
BITMAP
669680
214100
209100
214100
514200
006600
000100
ENDCHAR
STARTCHAR uni0917094D091C
ENCODING -1
SWIDTH 801 0
DWIDTH 9 0
BBX 9 7 0 0
BITMAP
655640
200200
21AA00
202200
502200
019200
000200
ENDCHAR
STARTCHAR uni0917094D0923
ENCODING -1
SWIDTH 945 0
DWIDTH 10 0
BBX 11 7 0 0
BITMAP
6699A4
214810
214810
204810
506410
000010
000010
ENDCHAR
STARTCHAR uni0917094D0926
ENCODING -1
SWIDTH 748 0
DWIDTH 8 0
BBX 8 7 0 0
BITMAP
655A
2005
20A8
2140
5141
00A9
0001
ENDCHAR
STARTCHAR uni0917094D0927
ENCODING -1
SWIDTH 823 0
DWIDTH 9 0
BBX 9 7 0 0
BITMAP
669680
214100
209100
214100
514200
005600
000100
ENDCHAR
STARTCHAR uni0917094D092C
ENCODING -1
SWIDTH 755 0
DWIDTH 8 0
BBX 9 7 0 0
BITMAP
655A40
205500
218500
215500
514900
005900
000500
ENDCHAR
STARTCHAR uni0917094D092D
ENCODING -1
SWIDTH 755 0
DWIDTH 8 0
BBX 9 7 0 0
BITMAP
660A40
214500
214500
219900
514500
000500
000500
ENDCHAR
STARTCHAR uni0917094D092E
ENCODING -1
SWIDTH 754 0
DWIDTH 8 0
BBX 9 7 0 0
BITMAP
669A40
214500
214500
219900
514500
000500
000500
ENDCHAR
STARTCHAR uni0917094D092F
ENCODING -1
SWIDTH 828 0
DWIDTH 9 0
BBX 9 7 0 0
BITMAP
65A680
202100
219100
214100
514200
005600
000100
ENDCHAR
STARTCHAR uni0917094D0932
ENCODING -1
SWIDTH 924 0
DWIDTH 10 0
BBX 10 7 0 0
BITMAP
6555A0
200040
20A680
210840
510440
010040
009040
ENDCHAR
STARTCHAR uni0917094D0935
ENCODING -1
SWIDTH 747 0
DWIDTH 8 0
BBX 8 7 0 0
BITMAP
655A
2055
2145
2105
5145
0059
0005
ENDCHAR
STARTCHAR uni0917094D0938
ENCODING -1
SWIDTH 839 0
DWIDTH 9 0
BBX 10 7 0 0
BITMAP
65A690
201140
201140
22AA40
514140
008140
001140
ENDCHAR
STARTCHAR uni0918094D092E
ENCODING -1
SWIDTH 818 0
DWIDTH 9 0
BBX 9 7 0 0
BITMAP
A59640
508200
288200
10AA00
508200
1A4200
000200
ENDCHAR
STARTCHAR uni0918094D092F
ENCODING -1
SWIDTH 867 0
DWIDTH 10 0
BBX 10 7 0 0
BITMAP
A56990
501480
28A080
108080
108080
1A5580
000080
ENDCHAR
STARTCHAR uni091A094D091A
ENCODING -1
SWIDTH 868 0
DWIDTH 10 0
BBX 10 7 0 0
BITMAP
555590
000080
68A480
204080
204080
196580
000080
ENDCHAR
STARTCHAR uni091A094D091B
ENCODING -1
SWIDTH 922 0
DWIDTH 10 0
BBX 10 7 0 0
BITMAP
55A5A0
004040
695180
202450
205050
108050
056A80
ENDCHAR
STARTCHAR uni091A094D092E
ENCODING -1
SWIDTH 830 0
DWIDTH 9 0
BBX 9 7 0 0
BITMAP
55A680
004100
694100
206600
204100
1A4100
000100
ENDCHAR
STARTCHAR uni091A094D092F
ENCODING -1
SWIDTH 904 0
DWIDTH 10 0
BBX 10 7 0 0
BITMAP
556990
000880
696480
208080
209080
1A5A80
000080
ENDCHAR
STARTCHAR uni091B094D092F
ENCODING -1
SWIDTH 1068 0
DWIDTH 12 0
BBX 12 7 0 0
BITMAP
655559
10A648
102088
102648
102508
102158
2A8008
ENDCHAR
STARTCHAR uni091B094D0935
ENCODING -1
SWIDTH 581 0
DWIDTH 6 0
BBX 7 8 0 -1
BITMAP
A5A4
1050
2450
1020
1010
2A90
2050
1540
ENDCHAR
STARTCHAR uni091C094D0915
ENCODING -1
SWIDTH 1054 0
DWIDTH 12 0
BBX 12 7 0 0
BITMAP
555655
001664
2A8208
088208
088208
642624
000100
ENDCHAR
STARTCHAR uni091C094D091C
ENCODING -1
SWIDTH 903 0
DWIDTH 10 0
BBX 10 7 0 0
BITMAP
555590
000080
2A2A80
080880
080880
646480
000080
ENDCHAR
STARTCHAR uni091C094D091D
ENCODING -1
SWIDTH 990 0
DWIDTH 11 0
BBX 11 8 0 -1
BITMAP
555A64
001920
2A8020
086A60
080220
648220
009920
004000
ENDCHAR
STARTCHAR uni091C094D091F
ENCODING -1
SWIDTH 815 0
DWIDTH 9 0
BBX 9 7 0 0
BITMAP
555640
000200
2A6A00
088000
088000
088040
546A00
ENDCHAR
STARTCHAR uni091C094D0921
ENCODING -1
SWIDTH 797 0
DWIDTH 9 0
BBX 9 7 0 0
BITMAP
555640
000200
29A500
088000
085500
644200
005600
ENDCHAR
STARTCHAR uni091C094D0924
ENCODING -1
SWIDTH 830 0
DWIDTH 9 0
BBX 9 7 0 0
BITMAP
555680
000100
2AAA00
088100
088100
648100
006100
ENDCHAR
STARTCHAR uni091C094D0926
ENCODING -1
SWIDTH 817 0
DWIDTH 9 0
BBX 9 7 0 0
BITMAP
555640
000200
2AAA00
088000
088100
642600
000100
ENDCHAR
STARTCHAR uni091C094D092C
ENCODING -1
SWIDTH 820 0
DWIDTH 9 0
BBX 9 7 0 0
BITMAP
555640
001600
2A9200
089600
088200
642600
000200
ENDCHAR
STARTCHAR uni091C094D092E
ENCODING -1
SWIDTH 813 0
DWIDTH 9 0
BBX 9 7 0 0
BITMAP
559640
008200
2A8200
089600
084200
640200
000200
ENDCHAR
STARTCHAR uni091C094D092F
ENCODING -1
SWIDTH 893 0
DWIDTH 10 0
BBX 10 7 0 0
BITMAP
556990
000880
2AA080
088080
088080
642580
000080
ENDCHAR
STARTCHAR uni091C094D0935
ENCODING -1
SWIDTH 813 0
DWIDTH 9 0
BBX 9 7 0 0
BITMAP
555640
001600
2A8200
088200
088200
642600
000200
ENDCHAR
STARTCHAR uni091D094D092E
ENCODING -1
SWIDTH 936 0
DWIDTH 10 0
BBX 11 8 0 -1
BITMAP
5669A4
161450
501450
166990
011450
510050
660050
500000
ENDCHAR
STARTCHAR uni091D094D092F
ENCODING -1
SWIDTH 1000 0
DWIDTH 11 0
BBX 11 8 0 -1
BITMAP
565A64
160220
501920
166020
011420
510560
660020
500000
ENDCHAR
STARTCHAR uni091E094D091B
ENCODING -1
SWIDTH 913 0
DWIDTH 10 0
BBX 10 7 0 0
BITMAP
55A590
004080
008180
046450
068050
688050
006A80
ENDCHAR
STARTCHAR uni091E094D091C
ENCODING -1
SWIDTH 932 0
DWIDTH 10 0
BBX 11 7 0 0
BITMAP
5555A4
000050
141A90
040550
064550
585850
000050
ENDCHAR
STARTCHAR uni091E094D0936
ENCODING -1
SWIDTH 975 0
DWIDTH 11 0
BBX 11 7 0 0
BITMAP
552924
241220
040220
06A820
041020
641420
000820
ENDCHAR
STARTCHAR uni091F094D091F
ENCODING -1
SWIDTH 494 0
DWIDTH 5 0
BBX 6 11 0 -4
BITMAP
5690
0100
1600
5000
5080
1640
1600
1000
5040
5080
1600
ENDCHAR
STARTCHAR uni091F094D0920
ENCODING -1
SWIDTH 495 0
DWIDTH 5 0
BBX 6 11 0 -4
BITMAP
5690
0100
1600
5000
5080
1640
1600
1040
5080
5080
1A40
ENDCHAR
STARTCHAR uni091F094D092F
ENCODING -1
SWIDTH 990 0
DWIDTH 11 0
BBX 11 7 0 0
BITMAP
569564
014020
1AA920
500220
504920
508420
2A4960
ENDCHAR
STARTCHAR uni091F094D0935
ENCODING -1
SWIDTH 501 0
DWIDTH 6 0
BBX 6 8 0 -1
BITMAP
5690
0140
1600
5000
5080
2980
1080
1500
ENDCHAR
STARTCHAR uni0920094D092F
ENCODING -1
SWIDTH 998 0
DWIDTH 11 0
BBX 11 7 0 0
BITMAP
569564
014020
165520
508220
508920
508420
2A4560
ENDCHAR
STARTCHAR uni0921094D0921
ENCODING -1
SWIDTH 493 0
DWIDTH 5 0
BBX 6 11 0 -4
BITMAP
5690
1600
1000
1540
1080
2540
1000
1600
0080
5080
1600
ENDCHAR
STARTCHAR uni0921094D0922
ENCODING -1
SWIDTH 493 0
DWIDTH 5 0
BBX 6 10 0 -3
BITMAP
5690
0140
1600
1000
1540
1080
2640
5580
5040
2A40
ENDCHAR
STARTCHAR uni0921094D092F
ENCODING -1
SWIDTH 973 0
DWIDTH 11 0
BBX 11 7 0 0
BITMAP
569564
014020
169920
100220
165920
508560
264020
ENDCHAR
STARTCHAR uni0921094D0935
ENCODING -1
SWIDTH 493 0
DWIDTH 5 0
BBX 6 9 0 -2
BITMAP
5690
1600
1000
1540
1080
2580
1080
1080
1A00
ENDCHAR
STARTCHAR uni0922094D092F
ENCODING -1
SWIDTH 981 0
DWIDTH 11 0
BBX 11 7 0 0
BITMAP
569564
014020
169520
114220
545920
549420
2A49A0
ENDCHAR
STARTCHAR uni0923094D091F
ENCODING -1
SWIDTH 908 0
DWIDTH 10 0
BBX 10 7 0 0
BITMAP
A69590
110080
110A80
112000
122000
192010
001A80
ENDCHAR
STARTCHAR uni0923094D0920
ENCODING -1
SWIDTH 936 0
DWIDTH 10 0
BBX 11 7 0 0
BITMAP
A69594
110080
110A80
112050
122010
192010
001A80
ENDCHAR
STARTCHAR uni0923094D0921
ENCODING -1
SWIDTH 892 0
DWIDTH 10 0
BBX 10 7 0 0
BITMAP
A69590
110080
111A80
221000
190040
001040
001580
ENDCHAR
STARTCHAR uni0923094D0922
ENCODING -1
SWIDTH 908 0
DWIDTH 10 0
BBX 10 7 0 0
BITMAP
A69590
110080
110980
111000
112180
002110
001A90
ENDCHAR
STARTCHAR uni0923094D0923
ENCODING -1
SWIDTH 1127 0
DWIDTH 12 0
BBX 13 7 0 0
BITMAP
A6A99A40
11148100
11148100
22048100
19064100
00000100
00000100
ENDCHAR
STARTCHAR uni0923094D092E
ENCODING -1
SWIDTH 932 0
DWIDTH 10 0
BBX 11 7 0 0
BITMAP
A6A9A4
111450
111450
221990
191450
000050
000050
ENDCHAR
STARTCHAR uni0923094D092F
ENCODING -1
SWIDTH 998 0
DWIDTH 11 0
BBX 11 7 0 0
BITMAP
A69A64
110220
111920
221020
191420
000560
000020
ENDCHAR
STARTCHAR uni0923094D0935
ENCODING -1
SWIDTH 923 0
DWIDTH 10 0
BBX 10 7 0 0
BITMAP
A695A0
110940
111040
221040
191040
000980
000040
ENDCHAR
STARTCHAR uni0924094D0915
ENCODING -1
SWIDTH 992 0
DWIDTH 11 0
BBX 11 7 0 0
BITMAP
555A54
005650
1A4510
510514
514510
509950
240500
ENDCHAR
STARTCHAR uni0924094D0916
ENCODING -1
SWIDTH 1014 0
DWIDTH 11 0
BBX 11 7 0 0
BITMAP
556968
001410
2A1550
50A210
508210
502160
241410
ENDCHAR
STARTCHAR uni0924094D0924
ENCODING -1
SWIDTH 542 0
DWIDTH 6 0
BBX 6 7 0 0
BITMAP
5590
0080
6A80
2080
2080
2080
1880
ENDCHAR
STARTCHAR uni0924094D0925
ENCODING -1
SWIDTH 869 0
DWIDTH 10 0
BBX 10 7 0 0
BITMAP
54A490
004880
2AA480
514080
504080
506580
240080
ENDCHAR
STARTCHAR uni0924094D092A
ENCODING -1
SWIDTH 757 0
DWIDTH 8 0
BBX 9 7 0 0
BITMAP
569A40
014500
1A4500
514500
505900
500500
240500
ENDCHAR
STARTCHAR uni0924094D092B
ENCODING -1
SWIDTH 992 0
DWIDTH 11 0
BBX 11 7 0 0
BITMAP
569A54
014650
1A4510
514514
506910
500550
240500
ENDCHAR
STARTCHAR uni0924094D092E
ENCODING -1
SWIDTH 764 0
DWIDTH 8 0
BBX 9 7 0 0
BITMAP
569A40
004100
1A4100
509900
504100
500100
240100
ENDCHAR
STARTCHAR uni0924094D092F
ENCODING -1
SWIDTH 830 0
DWIDTH 9 0
BBX 9 7 0 0
BITMAP
55A680
002100
2A9100
514100
514200
505600
240100
ENDCHAR
STARTCHAR uni0924094D0932
ENCODING -1
SWIDTH 957 0
DWIDTH 11 0
BBX 11 7 0 0
BITMAP
555564
000020
156660
514820
504820
504020
24A020
ENDCHAR
STARTCHAR uni0924094D0935
ENCODING -1
SWIDTH 751 0
DWIDTH 8 0
BBX 9 7 0 0
BITMAP
555A40
005500
1A4500
514500
514500
509900
240500
ENDCHAR
STARTCHAR uni0924094D0938
ENCODING -1
SWIDTH 876 0
DWIDTH 10 0
BBX 10 7 0 0
BITMAP
556590
002080
2A2080
51AA80
508080
505080
242080
ENDCHAR
STARTCHAR uni0925094D092F
ENCODING -1
SWIDTH 931 0
DWIDTH 10 0
BBX 11 7 0 0
BITMAP
2959A4
120850
022450
685050
505050
1A5A90
000050
ENDCHAR
STARTCHAR uni0925094D0935
ENCODING -1
SWIDTH 862 0
DWIDTH 9 0
BBX 10 7 0 0
BITMAP
295690
121440
021040
681040
505040
1A5540
000040
ENDCHAR
STARTCHAR uni0926094D0917
ENCODING -1
SWIDTH 489 0
DWIDTH 5 0
BBX 6 8 0 -1
BITMAP
5690
1A40
1000
5000
1080
1A80
0440
2000
ENDCHAR
STARTCHAR uni0926094D0918
ENCODING -1
SWIDTH 686 0
DWIDTH 8 0
BBX 8 8 0 -1
BITMAP
5559
0008
2600
4100
2504
41A8
4104
1500
ENDCHAR
STARTCHAR uni0926094D0926
ENCODING -1
SWIDTH 506 0
DWIDTH 6 0
BBX 6 8 0 -1
BITMAP
5690
0080
1540
1000
2900
1040
2680
0080
ENDCHAR
STARTCHAR uni0926094D0927
ENCODING -1
SWIDTH 686 0
DWIDTH 8 0
BBX 8 8 0 -1
BITMAP
5559
0008
2100
4100
2604
42A8
4104
1500
ENDCHAR
STARTCHAR uni0926094D092C
ENCODING -1
SWIDTH 481 0
DWIDTH 5 0
BBX 6 9 0 -2
BITMAP
5690
0040
2A40
5000
5040
2A80
2840
1240
1600
ENDCHAR
STARTCHAR uni0926094D092D
ENCODING -1
SWIDTH 499 0
DWIDTH 5 0
BBX 6 9 0 -2
BITMAP
5690
1A40
1000
1040
1A40
5040
2040
2540
1040
ENDCHAR
STARTCHAR uni0926094D092E
ENCODING -1
SWIDTH 706 0
DWIDTH 8 0
BBX 8 7 0 0
BITMAP
5699
2A08
5008
5008
2648
0198
0148
ENDCHAR
STARTCHAR uni0926094D092F
ENCODING -1
SWIDTH 583 0
DWIDTH 6 0
BBX 7 7 0 0
BITMAP
5AA4
1910
1010
2410
1010
1010
2990
ENDCHAR
STARTCHAR uni0926094D0935
ENCODING -1
SWIDTH 483 0
DWIDTH 5 0
BBX 6 9 0 -2
BITMAP
5690
0040
2A40
5000
5040
2980
1080
1040
1600
ENDCHAR
STARTCHAR uni0927094D092E
ENCODING -1
SWIDTH 817 0
DWIDTH 9 0
BBX 9 7 0 0
BITMAP
A4A640
508200
288200
10A600
108200
1A4200
000200
ENDCHAR
STARTCHAR uni0927094D092F
ENCODING -1
SWIDTH 886 0
DWIDTH 10 0
BBX 10 7 0 0
BITMAP
A46990
500480
286080
108080
104080
195580
000080
ENDCHAR
STARTCHAR uni0927094D0935
ENCODING -1
SWIDTH 810 0
DWIDTH 9 0
BBX 9 7 0 0
BITMAP
A45640
502600
288200
108200
108200
196600
000100
ENDCHAR
STARTCHAR uni0928094D0915
ENCODING -1
SWIDTH 973 0
DWIDTH 11 0
BBX 11 7 0 0
BITMAP
555954
005950
010820
560820
420820
019890
000400
ENDCHAR
STARTCHAR uni0928094D091A
ENCODING -1
SWIDTH 820 0
DWIDTH 9 0
BBX 9 7 0 0
BITMAP
555640
000200
01A600
698200
808200
006600
000200
ENDCHAR
STARTCHAR uni0928094D091B
ENCODING -1
SWIDTH 781 0
DWIDTH 9 0
BBX 9 7 0 0
BITMAP
569A40
020200
020500
668200
410200
020200
01A900
ENDCHAR
STARTCHAR uni0928094D091F
ENCODING -1
SWIDTH 715 0
DWIDTH 8 0
BBX 8 7 0 0
BITMAP
5559
0008
0064
6600
8200
0205
01A8
ENDCHAR
STARTCHAR uni0928094D0921
ENCODING -1
SWIDTH 705 0
DWIDTH 8 0
BBX 8 7 0 0
BITMAP
5559
0008
01A4
6600
4154
0108
0158
ENDCHAR
STARTCHAR uni0928094D0924
ENCODING -1
SWIDTH 717 0
DWIDTH 8 0
BBX 8 7 0 0
BITMAP
5559
0008
00A8
6608
4208
0208
0148
ENDCHAR
STARTCHAR uni0928094D0925
ENCODING -1
SWIDTH 804 0
DWIDTH 9 0
BBX 9 7 0 0
BITMAP
55A240
022200
002200
565200
420200
01AA00
000200
ENDCHAR
STARTCHAR uni0928094D0926
ENCODING -1
SWIDTH 724 0
DWIDTH 8 0
BBX 8 7 0 0
BITMAP
5559
0008
00A8
5600
4204
01A8
0004
ENDCHAR
STARTCHAR uni0928094D0927
ENCODING -1
SWIDTH 753 0
DWIDTH 8 0
BBX 9 7 0 0
BITMAP
564A40
010500
020500
6B8500
420500
015900
000500
ENDCHAR
STARTCHAR uni0928094D092A
ENCODING -1
SWIDTH 742 0
DWIDTH 8 0
BBX 8 7 0 0
BITMAP
569A
0104
0104
6604
4098
0004
0004
ENDCHAR
STARTCHAR uni0928094D092B
ENCODING -1
SWIDTH 970 0
DWIDTH 11 0
BBX 11 7 0 0
BITMAP
565954
020950
020820
560820
419820
000890
000800
ENDCHAR
STARTCHAR uni0928094D092D
ENCODING -1
SWIDTH 739 0
DWIDTH 8 0
BBX 8 7 0 0
BITMAP
561A
0104
0104
6698
4104
0004
0004
ENDCHAR
STARTCHAR uni0928094D092E
ENCODING -1
SWIDTH 735 0
DWIDTH 8 0
BBX 8 7 0 0
BITMAP
569A
0104
0104
6698
4104
0004
0004
ENDCHAR
STARTCHAR uni0928094D092F
ENCODING -1
SWIDTH 801 0
DWIDTH 9 0
BBX 9 7 0 0
BITMAP
55A640
001200
668200
820200
410200
005600
000200
ENDCHAR
STARTCHAR uni0928094D0935
ENCODING -1
SWIDTH 732 0
DWIDTH 8 0
BBX 8 7 0 0
BITMAP
555A
0054
0104
5604
4208
0098
0004
ENDCHAR
STARTCHAR uni0928094D0938
ENCODING -1
SWIDTH 867 0
DWIDTH 10 0
BBX 10 7 0 0
BITMAP
556590
002080
692080
81AA80
408080
005080
002080
ENDCHAR
STARTCHAR uni0928094D0939
ENCODING -1
SWIDTH 714 0
DWIDTH 8 0
BBX 8 8 0 -1
BITMAP
5559
00A8
0100
6600
4194
0204
0200
0054
ENDCHAR
STARTCHAR uni092A094D091F
ENCODING -1
SWIDTH 489 0
DWIDTH 5 0
BBX 6 7 0 0
BITMAP
A590
1080
1080
2A40
5000
5080
2540
ENDCHAR
STARTCHAR uni092A094D0920
ENCODING -1
SWIDTH 506 0
DWIDTH 6 0
BBX 6 7 0 0
BITMAP
A590
1080
1080
2A40
5080
5080
2540
ENDCHAR
STARTCHAR uni092A094D0924
ENCODING -1
SWIDTH 495 0
DWIDTH 5 0
BBX 6 7 0 0
BITMAP
A690
5040
1040
2A40
5040
5040
2440
ENDCHAR
STARTCHAR uni092A094D092A
ENCODING -1
SWIDTH 770 0
DWIDTH 8 0
BBX 9 7 0 0
BITMAP
A69A40
104100
104100
104100
195500
000100
000100
ENDCHAR
STARTCHAR uni092A094D092B
ENCODING -1
SWIDTH 1003 0
DWIDTH 11 0
BBX 11 7 0 0
BITMAP
A69A54
114650
114514
104514
155914
000550
000500
ENDCHAR
STARTCHAR uni092A094D092E
ENCODING -1
SWIDTH 774 0
DWIDTH 9 0
BBX 9 7 0 0
BITMAP
A59A40
108200
108200
209A00
1A8200
000200
000100
ENDCHAR
STARTCHAR uni092A094D092F
ENCODING -1
SWIDTH 855 0
DWIDTH 9 0
BBX 10 7 0 0
BITMAP
A56690
101040
109040
104040
198140
005540
000040
ENDCHAR
STARTCHAR uni092A094D0932
ENCODING -1
SWIDTH 960 0
DWIDTH 11 0
BBX 11 7 0 0
BITMAP
A55564
100020
106660
108820
1A4420
004020
005020
ENDCHAR
STARTCHAR uni092A094D0935
ENCODING -1
SWIDTH 780 0
DWIDTH 9 0
BBX 9 7 0 0
BITMAP
A55640
105200
108200
104200
1A8200
006600
000100
ENDCHAR
STARTCHAR uni092A094D0938
ENCODING -1
SWIDTH 880 0
DWIDTH 10 0
BBX 10 7 0 0
BITMAP
A56590
102080
102080
11AA80
198080
005080
002080
ENDCHAR
STARTCHAR uni092B094D091C
ENCODING -1
SWIDTH 1100 0
DWIDTH 12 0
BBX 12 7 0 0
BITMAP
A6955A
104004
10A5A8
214044
1A4044
004544
004004
ENDCHAR
STARTCHAR uni092B094D091F
ENCODING -1
SWIDTH 1006 0
DWIDTH 11 0
BBX 11 7 0 0
BITMAP
A69564
109420
1046A0
214400
1A4804
004404
0042A0
ENDCHAR
STARTCHAR uni092B094D0924
ENCODING -1
SWIDTH 1034 0
DWIDTH 11 0
BBX 12 7 0 0
BITMAP
A69569
109414
1046A4
214514
1A4514
004514
004244
ENDCHAR
STARTCHAR uni092B094D092A
ENCODING -1
SWIDTH 1021 0
DWIDTH 11 0
BBX 12 7 0 0
BITMAP
A69A69
104414
10A814
214514
1A42A4
004014
004014
ENDCHAR
STARTCHAR uni092B094D092B
ENCODING -1
SWIDTH 1256 0
DWIDTH 14 0
BBX 14 7 0 0
BITMAP
A69A6950
10441540
10A81440
21452040
1A42A040
00401240
00401000
ENDCHAR
STARTCHAR uni092B094D092F
ENCODING -1
SWIDTH 1120 0
DWIDTH 12 0
BBX 12 7 0 0
BITMAP
A69699
104088
109A48
214408
1A4508
004198
004008
ENDCHAR
STARTCHAR uni092B094D0932
ENCODING -1
SWIDTH 1202 0
DWIDTH 13 0
BBX 13 7 0 0
BITMAP
A6955680
10940140
10469A40
21452140
1A441140
00440140
00424140
ENDCHAR
STARTCHAR uni092B094D0936
ENCODING -1
SWIDTH 1211 0
DWIDTH 13 0
BBX 14 7 0 0
BITMAP
A695A190
10951540
10441540
21465140
1A420140
00414140
00408140
ENDCHAR
STARTCHAR uni092C094D091C
ENCODING -1
SWIDTH 883 0
DWIDTH 10 0
BBX 10 7 0 0
BITMAP
555590
000080
106A80
540880
510880
16A480
000080
ENDCHAR
STARTCHAR uni092C094D091D
ENCODING -1
SWIDTH 962 0
DWIDTH 11 0
BBX 11 8 0 -1
BITMAP
555A64
145820
644020
559A60
524120
150120
009910
004000
ENDCHAR
STARTCHAR uni092C094D0924
ENCODING -1
SWIDTH 786 0
DWIDTH 9 0
BBX 9 7 0 0
BITMAP
555640
140200
606A00
548200
524200
194200
005200
ENDCHAR
STARTCHAR uni092C094D0926
ENCODING -1
SWIDTH 775 0
DWIDTH 9 0
BBX 9 7 0 0
BITMAP
555640
240200
606900
544000
514100
196A00
000100
ENDCHAR
STARTCHAR uni092C094D0927
ENCODING -1
SWIDTH 844 0
DWIDTH 9 0
BBX 10 7 0 0
BITMAP
559290
144140
60A140
558140
528140
155640
000140
ENDCHAR
STARTCHAR uni092C094D092C
ENCODING -1
SWIDTH 783 0
DWIDTH 9 0
BBX 9 7 0 0
BITMAP
555640
145200
609200
555600
528600
155600
000200
ENDCHAR
STARTCHAR uni092C094D092D
ENCODING -1
SWIDTH 764 0
DWIDTH 8 0
BBX 9 7 0 0
BITMAP
560A40
144100
604100
54A900
524100
160100
000100
ENDCHAR
STARTCHAR uni092C094D092F
ENCODING -1
SWIDTH 852 0
DWIDTH 9 0
BBX 10 7 0 0
BITMAP
556690
141140
609140
544140
528140
155540
000040
ENDCHAR
STARTCHAR uni092C094D0932
ENCODING -1
SWIDTH 961 0
DWIDTH 11 0
BBX 11 7 0 0
BITMAP
555564
140020
606660
548820
514420
194020
005020
ENDCHAR
STARTCHAR uni092C094D0935
ENCODING -1
SWIDTH 776 0
DWIDTH 9 0
BBX 9 7 0 0
BITMAP
555640
145200
608200
544200
528200
155600
000200
ENDCHAR
STARTCHAR uni092C094D0936
ENCODING -1
SWIDTH 926 0
DWIDTH 10 0
BBX 10 7 0 0
BITMAP
555860
144450
600450
54A450
528050
192050
001450
ENDCHAR
STARTCHAR uni092C094D0938
ENCODING -1
SWIDTH 897 0
DWIDTH 10 0
BBX 10 7 0 0
BITMAP
556990
141080
601080
54AA80
528080
191080
001040
ENDCHAR
STARTCHAR uni092D094D092F
ENCODING -1
SWIDTH 827 0
DWIDTH 9 0
BBX 9 7 0 0
BITMAP
81A680
102100
119100
264100
114200
005600
000100
ENDCHAR
STARTCHAR uni092D094D0932
ENCODING -1
SWIDTH 941 0
DWIDTH 10 0
BBX 11 7 0 0
BITMAP
8155A4
100050
10A690
264850
114450
014050
009050
ENDCHAR
STARTCHAR uni092D094D0935
ENCODING -1
SWIDTH 755 0
DWIDTH 8 0
BBX 9 7 0 0
BITMAP
815A40
105500
114500
264500
114500
009900
000500
ENDCHAR
STARTCHAR uni092E094D0924
ENCODING -1
SWIDTH 765 0
DWIDTH 8 0
BBX 9 7 0 0
BITMAP
A55A40
100100
106900
2A4100
114100
014100
009100
ENDCHAR
STARTCHAR uni092E094D0926
ENCODING -1
SWIDTH 766 0
DWIDTH 8 0
BBX 9 7 0 0
BITMAP
A55A40
100100
10A900
264000
104100
006A00
000100
ENDCHAR
STARTCHAR uni092E094D092A
ENCODING -1
SWIDTH 762 0
DWIDTH 8 0
BBX 9 7 0 0
BITMAP
A69A40
114100
114100
264500
109900
000100
000100
ENDCHAR
STARTCHAR uni092E094D092C
ENCODING -1
SWIDTH 768 0
DWIDTH 8 0
BBX 9 7 0 0
BITMAP
A55A40
105100
108100
265500
114500
005500
000100
ENDCHAR
STARTCHAR uni092E094D092D
ENCODING -1
SWIDTH 768 0
DWIDTH 8 0
BBX 9 7 0 0
BITMAP
A64A40
104100
104100
269900
104100
000100
000100
ENDCHAR
STARTCHAR uni092E094D092E
ENCODING -1
SWIDTH 759 0
DWIDTH 8 0
BBX 9 7 0 0
BITMAP
A69A40
114500
114500
269900
114500
000500
000500
ENDCHAR
STARTCHAR uni092E094D092F
ENCODING -1
SWIDTH 834 0
DWIDTH 9 0
BBX 9 7 0 0
BITMAP
A5A680
102100
119100
264100
114100
005600
000100
ENDCHAR
STARTCHAR uni092E094D0932
ENCODING -1
SWIDTH 945 0
DWIDTH 10 0
BBX 11 7 0 0
BITMAP
A555A4
100010
10A690
264850
114410
014010
009010
ENDCHAR
STARTCHAR uni092E094D0935
ENCODING -1
SWIDTH 761 0
DWIDTH 8 0
BBX 9 7 0 0
BITMAP
A55A40
105100
104100
264100
114500
005900
000100
ENDCHAR
STARTCHAR uni092E094D0936
ENCODING -1
SWIDTH 884 0
DWIDTH 10 0
BBX 10 7 0 0
BITMAP
A4A490
114880
100880
26A080
108080
005080
002080
ENDCHAR
STARTCHAR uni092E094D0938
ENCODING -1
SWIDTH 816 0
DWIDTH 9 0
BBX 9 7 0 0
BITMAP
A5A640
105200
105200
2AAA00
110200
008200
005200
ENDCHAR
STARTCHAR uni092E094D0939
ENCODING -1
SWIDTH 758 0
DWIDTH 8 0
BBX 9 8 0 -1
BITMAP
A55A40
106900
108000
264000
109800
004100
004000
005500
ENDCHAR
STARTCHAR uni092F094D092F
ENCODING -1
SWIDTH 897 0
DWIDTH 10 0
BBX 10 7 0 0
BITMAP
696990
080880
646480
508080
108080
155580
000080
ENDCHAR
STARTCHAR uni0930094D092F
ENCODING -1
SWIDTH 713 0
DWIDTH 8 0
BBX 8 7 0 0
BITMAP
5699
0088
6A08
0808
0408
0158
0008
ENDCHAR
STARTCHAR uni0930094D0939
ENCODING -1
SWIDTH 619 0
DWIDTH 7 0
BBX 7 8 0 -1
BITMAP
5564
42A0
5800
0400
0250
0820
0800
0150
ENDCHAR
STARTCHAR uni0932094D0915
ENCODING -1
SWIDTH 1182 0
DWIDTH 13 0
BBX 13 7 0 0
BITMAP
5555A540
00056500
19A45140
12145140
51145140
50099500
24005000
ENDCHAR
STARTCHAR uni0932094D0916
ENCODING -1
SWIDTH 1195 0
DWIDTH 13 0
BBX 13 7 0 0
BITMAP
55569680
00014100
19A15500
120A2100
51082100
50021600
24014100
ENDCHAR
STARTCHAR uni0932094D0917
ENCODING -1
SWIDTH 950 0
DWIDTH 10 0
BBX 11 7 0 0
BITMAP
5559A4
000810
199810
120810
511410
500010
240010
ENDCHAR
STARTCHAR uni0932094D091C
ENCODING -1
SWIDTH 1035 0
DWIDTH 11 0
BBX 12 7 0 0
BITMAP
555569
000004
1586A4
120044
510044
501604
240004
ENDCHAR
STARTCHAR uni0932094D091F
ENCODING -1
SWIDTH 929 0
DWIDTH 10 0
BBX 11 7 0 0
BITMAP
5555A4
000040
199680
121400
521000
501420
240A90
ENDCHAR
STARTCHAR uni0932094D0920
ENCODING -1
SWIDTH 953 0
DWIDTH 10 0
BBX 11 7 0 0
BITMAP
5555A4
000040
199A80
121410
521020
501020
240A90
ENDCHAR
STARTCHAR uni0932094D0921
ENCODING -1
SWIDTH 916 0
DWIDTH 10 0
BBX 10 7 0 0
BITMAP
5555A0
000040
199A80
121400
520580
500050
241990
ENDCHAR
STARTCHAR uni0932094D0922
ENCODING -1
SWIDTH 924 0
DWIDTH 10 0
BBX 10 7 0 0
BITMAP
5555A0
000040
155580
121400
521150
501120
240A90
ENDCHAR
STARTCHAR uni0932094D0924
ENCODING -1
SWIDTH 929 0
DWIDTH 10 0
BBX 10 7 0 0
BITMAP
5555A0
000050
199690
121050
512050
501050
241850
ENDCHAR
STARTCHAR uni0932094D0925
ENCODING -1
SWIDTH 1061 0
DWIDTH 12 0
BBX 12 7 0 0
BITMAP
554649
000888
19A088
121A48
510408
500658
240008
ENDCHAR
STARTCHAR uni0932094D0926
ENCODING -1
SWIDTH 939 0
DWIDTH 10 0
BBX 11 7 0 0
BITMAP
5555A4
000050
199A90
121400
511410
500A60
240010
ENDCHAR
STARTCHAR uni0932094D092A
ENCODING -1
SWIDTH 939 0
DWIDTH 10 0
BBX 11 7 0 0
BITMAP
5569A4
001450
15A450
121450
510990
500050
240050
ENDCHAR
STARTCHAR uni0932094D092B
ENCODING -1
SWIDTH 1176 0
DWIDTH 13 0
BBX 13 7 0 0
BITMAP
5569A540
00146500
15A45140
12145140
510A9140
50005500
24005000
ENDCHAR
STARTCHAR uni0932094D092C
ENCODING -1
SWIDTH 949 0
DWIDTH 10 0
BBX 11 7 0 0
BITMAP
5555A4
000510
15A810
121510
511490
500550
240010
ENDCHAR
STARTCHAR uni0932094D092D
ENCODING -1
SWIDTH 931 0
DWIDTH 10 0
BBX 11 7 0 0
BITMAP
5561A4
001450
19A450
121990
511450
500050
240050
ENDCHAR
STARTCHAR uni0932094D092E
ENCODING -1
SWIDTH 931 0
DWIDTH 10 0
BBX 11 7 0 0
BITMAP
5569A4
001450
19A450
121990
511450
500050
240050
ENDCHAR
STARTCHAR uni0932094D092F
ENCODING -1
SWIDTH 1033 0
DWIDTH 11 0
BBX 12 7 0 0
BITMAP
555669
199114
121514
520914
510414
100564
240004
ENDCHAR
STARTCHAR uni0932094D0932
ENCODING -1
SWIDTH 1112 0
DWIDTH 12 0
BBX 13 7 0 0
BITMAP
55555A40
00000500
19AA6900
12148500
52108500
50100500
24090500
ENDCHAR
STARTCHAR uni0932094D0935
ENCODING -1
SWIDTH 940 0
DWIDTH 10 0
BBX 11 7 0 0
BITMAP
5555A4
000550
19A450
121450
511450
500990
240010
ENDCHAR
STARTCHAR uni0932094D0938
ENCODING -1
SWIDTH 1068 0
DWIDTH 12 0
BBX 12 7 0 0
BITMAP
555659
000208
19A208
121AA8
510808
500508
240208
ENDCHAR
STARTCHAR uni0932094D0939
ENCODING -1
SWIDTH 922 0
DWIDTH 10 0
BBX 10 8 0 -1
BITMAP
5555A0
000040
199A80
121400
520980
501450
241400
000540
ENDCHAR
STARTCHAR uni0933094D092F
ENCODING -1
SWIDTH 1050 0
DWIDTH 12 0
BBX 12 7 0 0
BITMAP
555699
155148
520A08
520808
520808
15A658
000008
ENDCHAR
STARTCHAR uni0935094D092F
ENCODING -1
SWIDTH 852 0
DWIDTH 9 0
BBX 10 7 0 0
BITMAP
556690
141140
509140
504140
508140
195540
000040
ENDCHAR
STARTCHAR uni0935094D0932
ENCODING -1
SWIDTH 961 0
DWIDTH 11 0
BBX 11 7 0 0
BITMAP
555564
140020
5066A0
508820
504420
194020
005020
ENDCHAR
STARTCHAR uni0935094D0935
ENCODING -1
SWIDTH 776 0
DWIDTH 9 0
BBX 9 7 0 0
BITMAP
555640
145200
508200
504200
508200
155600
000200
ENDCHAR
STARTCHAR uni0935094D0939
ENCODING -1
SWIDTH 754 0
DWIDTH 8 0
BBX 9 8 0 -1
BITMAP
555A40
146900
504000
504000
509900
164100
004000
005400
ENDCHAR
STARTCHAR uni0936094D0915
ENCODING -1
SWIDTH 1093 0
DWIDTH 12 0
BBX 12 7 0 0
BITMAP
295695
1215A8
025145
695145
205145
141654
080140
ENDCHAR
STARTCHAR uni0936094D091A
ENCODING -1
SWIDTH 950 0
DWIDTH 10 0
BBX 11 7 0 0
BITMAP
2955A4
520010
026910
691010
202050
140950
080010
ENDCHAR
STARTCHAR uni0936094D091B
ENCODING -1
SWIDTH 968 0
DWIDTH 11 0
BBX 11 7 0 0
BITMAP
296964
522020
021060
681820
202020
142020
081A90
ENDCHAR
STARTCHAR uni0936094D091F
ENCODING -1
SWIDTH 854 0
DWIDTH 9 0
BBX 10 7 0 0
BITMAP
295690
520140
021A00
691000
205040
141080
082A40
ENDCHAR
STARTCHAR uni0936094D0924
ENCODING -1
SWIDTH 864 0
DWIDTH 10 0
BBX 10 7 0 0
BITMAP
295690
520080
021A80
695080
205080
145080
082440
ENDCHAR
STARTCHAR uni0936094D092E
ENCODING -1
SWIDTH 885 0
DWIDTH 10 0
BBX 10 7 0 0
BITMAP
296590
522080
022080
692580
201080
140080
080080
ENDCHAR
STARTCHAR uni0936094D092F
ENCODING -1
SWIDTH 940 0
DWIDTH 10 0
BBX 11 7 0 0
BITMAP
2959A4
120850
022450
691050
202050
141590
080050
ENDCHAR
STARTCHAR uni0936094D0932
ENCODING -1
SWIDTH 1039 0
DWIDTH 11 0
BBX 12 7 0 0
BITMAP
295569
120004
0219A4
691214
205104
145004
082404
ENDCHAR
STARTCHAR uni0936094D0935
ENCODING -1
SWIDTH 850 0
DWIDTH 9 0
BBX 10 7 0 0
BITMAP
295690
121940
025140
695140
205140
141640
080040
ENDCHAR
STARTCHAR uni0936094D0936
ENCODING -1
SWIDTH 1009 0
DWIDTH 11 0
BBX 11 7 0 0
BITMAP
291618
522210
020210
692910
202010
140810
080510
ENDCHAR
STARTCHAR uni0937094D0915
ENCODING -1
SWIDTH 1039 0
DWIDTH 11 0
BBX 12 7 0 0
BITMAP
A55655
246260
158208
218208
198208
006660
000100
ENDCHAR
STARTCHAR uni0937094D091F
ENCODING -1
SWIDTH 493 0
DWIDTH 5 0
BBX 6 7 0 0
BITMAP
B590
2480
1180
2A40
5000
5040
2540
ENDCHAR
STARTCHAR uni0937094D0920
ENCODING -1
SWIDTH 511 0
DWIDTH 6 0
BBX 6 7 0 0
BITMAP
BFD0
3F80
3F80
2A40
5080
5080
2540
ENDCHAR
STARTCHAR uni0937094D0923
ENCODING -1
SWIDTH 980 0
DWIDTH 11 0
BBX 11 7 0 0
BITMAP
A59A64
248120
158120
118520
155420
000020
000020
ENDCHAR
STARTCHAR uni0937094D092A
ENCODING -1
SWIDTH 980 0
DWIDTH 11 0
BBX 11 7 0 0
BITMAP
A59A64
248120
158120
118520
155420
000020
000020
ENDCHAR
STARTCHAR uni0937094D092B
ENCODING -1
SWIDTH 1036 0
DWIDTH 11 0
BBX 12 7 0 0
BITMAP
A59655
248260
158208
218208
196A08
000260
000200
ENDCHAR
STARTCHAR uni0937094D092E
ENCODING -1
SWIDTH 791 0
DWIDTH 9 0
BBX 9 7 0 0
BITMAP
A59640
248200
158200
219600
194200
000200
000200
ENDCHAR
STARTCHAR uni0937094D092F
ENCODING -1
SWIDTH 877 0
DWIDTH 10 0
BBX 10 7 0 0
BITMAP
A56990
241480
15A080
118080
198080
002580
000040
ENDCHAR
STARTCHAR uni0937094D0935
ENCODING -1
SWIDTH 802 0
DWIDTH 9 0
BBX 9 7 0 0
BITMAP
A55640
246600
158200
218200
198200
006600
000100
ENDCHAR
STARTCHAR uni0937094D0937
ENCODING -1
SWIDTH 804 0
DWIDTH 9 0
BBX 9 7 0 0
BITMAP
A5E640
249200
158600
118200
196A00
000200
000200
ENDCHAR
STARTCHAR uni0938094D0915
ENCODING -1
SWIDTH 1089 0
DWIDTH 12 0
BBX 12 7 0 0
BITMAP
595695
081594
085145
6A9145
505145
202654
040140
ENDCHAR
STARTCHAR uni0938094D0916
ENCODING -1
SWIDTH 990 0
DWIDTH 11 0
BBX 11 7 0 0
BITMAP
596964
081020
082160
6A9520
508520
205160
042020
ENDCHAR
STARTCHAR uni0938094D091C
ENCODING -1
SWIDTH 970 0
DWIDTH 11 0
BBX 11 7 0 0
BITMAP
595564
080020
081AA0
6A4220
500220
201920
040020
ENDCHAR
STARTCHAR uni0938094D091F
ENCODING -1
SWIDTH 844 0
DWIDTH 9 0
BBX 10 7 0 0
BITMAP
595690
080100
082A00
6A9000
505040
205080
042A40
ENDCHAR
STARTCHAR uni0938094D0924
ENCODING -1
SWIDTH 852 0
DWIDTH 9 0
BBX 10 7 0 0
BITMAP
595690
080140
082A40
6A9140
505140
205140
042440
ENDCHAR
STARTCHAR uni0938094D0925
ENCODING -1
SWIDTH 960 0
DWIDTH 11 0
BBX 11 7 0 0
BITMAP
592924
082220
040220
6AA920
505020
201560
040020
ENDCHAR
STARTCHAR uni0938094D0926
ENCODING -1
SWIDTH 851 0
DWIDTH 9 0
BBX 10 7 0 0
BITMAP
595690
080040
082A40
6A9000
505040
201980
040040
ENDCHAR
STARTCHAR uni0938094D092A
ENCODING -1
SWIDTH 857 0
DWIDTH 9 0
BBX 10 7 0 0
BITMAP
59A690
085040
085040
6A9140
501940
200040
040040
ENDCHAR
STARTCHAR uni0938094D092B
ENCODING -1
SWIDTH 1092 0
DWIDTH 12 0
BBX 12 7 0 0
BITMAP
59A695
085194
085145
6A9145
501A45
200154
040140
ENDCHAR
STARTCHAR uni0938094D092C
ENCODING -1
SWIDTH 857 0
DWIDTH 9 0
BBX 10 7 0 0
BITMAP
595690
081440
086040
6A9540
505240
201540
040040
ENDCHAR
STARTCHAR uni0938094D092E
ENCODING -1
SWIDTH 850 0
DWIDTH 9 0
BBX 10 7 0 0
BITMAP
59A690
085140
085140
69A640
505140
200140
040140
ENDCHAR
STARTCHAR uni0938094D092F
ENCODING -1
SWIDTH 920 0
DWIDTH 10 0
BBX 10 7 0 0
BITMAP
5969A0
080840
086440
6A9040
505080
201580
040040
ENDCHAR
STARTCHAR uni0938094D0932
ENCODING -1
SWIDTH 1027 0
DWIDTH 11 0
BBX 12 7 0 0
BITMAP
595569
080014
0829A4
6A9214
505114
205014
042414
ENDCHAR
STARTCHAR uni0938094D0935
ENCODING -1
SWIDTH 842 0
DWIDTH 9 0
BBX 10 7 0 0
BITMAP
595690
081540
085140
6A9140
505140
202640
040140
ENDCHAR
STARTCHAR uni0938094D0938
ENCODING -1
SWIDTH 871 0
DWIDTH 10 0
BBX 10 7 0 0
BITMAP
596590
082080
082080
6AAA80
508080
205080
042080
ENDCHAR
STARTCHAR uni0939094D0923
ENCODING -1
SWIDTH 1136 0
DWIDTH 13 0
BBX 13 10 0 -3
BITMAP
56A9AA40
01444200
1A444200
10044200
26048200
10454200
10000100
15000000
01000000
01000000
ENDCHAR
STARTCHAR uni0939094D092E
ENCODING -1
SWIDTH 746 0
DWIDTH 8 0
BBX 8 8 0 -1
BITMAP
569A
0145
2A45
1005
2645
5099
5045
1500
ENDCHAR
STARTCHAR uni0939094D092F
ENCODING -1
SWIDTH 785 0
DWIDTH 9 0
BBX 9 9 0 -2
BITMAP
569640
2A4200
100200
255200
502200
519200
514200
155600
000100
ENDCHAR
STARTCHAR uni0939094D0932
ENCODING -1
SWIDTH 1110 0
DWIDTH 12 0
BBX 12 10 0 -3
BITMAP
56955A
1A4005
100A69
101085
261085
105005
100905
150000
010000
020000
ENDCHAR
STARTCHAR uni0939094D0935
ENCODING -1
SWIDTH 920 0
DWIDTH 10 0
BBX 10 10 0 -3
BITMAP
5695A0
014040
1A4940
101040
265040
104980
100040
150000
010000
020000
ENDCHAR
STARTCHAR uni0915093C094D0915093C
ENCODING -1
SWIDTH 1275 0
DWIDTH 14 0
BBX 14 8 0 -1
BITMAP
56956950
15955940
51451450
51451450
51451450
16416540
01401400
10010000
ENDCHAR
STARTCHAR uni0915093C094D0924
ENCODING -1
SWIDTH 1016 0
DWIDTH 11 0
BBX 11 8 0 -1
BITMAP
569568
159410
5146A0
514410
514810
164810
014610
100000
ENDCHAR
STARTCHAR uni0915093C094D092B
ENCODING -1
SWIDTH 1246 0
DWIDTH 14 0
BBX 14 8 0 -1
BITMAP
56996550
15482540
51A82080
51442080
5142A080
16402240
01402000
10000000
ENDCHAR
STARTCHAR uni0915093C094D092B093C
ENCODING -1
SWIDTH 1247 0
DWIDTH 14 0
BBX 14 8 0 -1
BITMAP
56996550
15482540
51A82080
51442040
5142A080
16402240
01401000
10010000
ENDCHAR
STARTCHAR uni0915093C094D092C
ENCODING -1
SWIDTH 1043 0
DWIDTH 11 0
BBX 12 8 0 -1
BITMAP
569569
159544
514644
514554
514524
2A41A4
014004
100000
ENDCHAR
STARTCHAR uni0915093C094D092E
ENCODING -1
SWIDTH 998 0
DWIDTH 11 0
BBX 11 8 0 -1
BITMAP
569964
154820
51A820
514960
514420
164020
014020
100000
ENDCHAR
STARTCHAR uni0916093C094D0924
ENCODING -1
SWIDTH 984 0
DWIDTH 11 0
BBX 11 8 0 -1
BITMAP
595564
080020
0886A0
650820
110820
149820
080920
001000
ENDCHAR
STARTCHAR uni0916093C094D092E
ENCODING -1
SWIDTH 965 0
DWIDTH 11 0
BBX 11 8 0 -1
BITMAP
595964
080820
088820
650960
110820
145020
080020
001000
ENDCHAR
STARTCHAR uni0916093C094D092F
ENCODING -1
SWIDTH 1045 0
DWIDTH 12 0
BBX 12 7 0 0
BITMAP
5956A9
080148
080908
650808
110818
149658
080004
ENDCHAR
STARTCHAR uni0916093C094D0935
ENCODING -1
SWIDTH 972 0
DWIDTH 11 0
BBX 11 7 0 0
BITMAP
595564
080520
088820
650820
110820
140660
080020
ENDCHAR
STARTCHAR uni0916093C094D0936
ENCODING -1
SWIDTH 1123 0
DWIDTH 12 0
BBX 13 7 0 0
BITMAP
59568640
08085500
08845500
65198500
11080500
14950500
08020500
ENDCHAR
STARTCHAR uni0916093C094D0938
ENCODING -1
SWIDTH 1066 0
DWIDTH 12 0
BBX 12 7 0 0
BITMAP
595659
080208
088208
650AA8
110808
149508
080208
ENDCHAR
STARTCHAR uni091C093C094D091C093C
ENCODING -1
SWIDTH 934 0
DWIDTH 10 0
BBX 10 8 0 -1
BITMAP
555590
000080
2A2A80
080880
080880
646480
000080
101000
ENDCHAR
STARTCHAR uni091C093C094D092F
ENCODING -1
SWIDTH 893 0
DWIDTH 10 0
BBX 10 8 0 -1
BITMAP
556990
000480
2AA080
088080
088080
642580
000080
100000
ENDCHAR
STARTCHAR uni092B093C094D091C093C
ENCODING -1
SWIDTH 1100 0
DWIDTH 12 0
BBX 12 8 0 -1
BITMAP
A6955A
104004
10A5A8
214044
1A4044
004544
004004
100100
ENDCHAR
STARTCHAR uni092B093C094D0924
ENCODING -1
SWIDTH 1036 0
DWIDTH 11 0
BBX 12 8 0 -1
BITMAP
A69569
109404
1046A4
214504
1A4504
004504
004244
100000
ENDCHAR
STARTCHAR uni092B093C094D092B093C
ENCODING -1
SWIDTH 1256 0
DWIDTH 14 0
BBX 14 8 0 -1
BITMAP
A69A6950
10441540
10A81440
21452040
1A426040
00401240
00401000
10010000
ENDCHAR
STARTCHAR uni092B093C094D0938
ENCODING -1
SWIDTH 1141 0
DWIDTH 13 0
BBX 13 8 0 -1
BITMAP
A6959640
10948200
10448200
2146AA00
1A420200
00414200
00408200
10000000
ENDCHAR
STARTCHAR uni092C094D091C093C
ENCODING -1
SWIDTH 883 0
DWIDTH 10 0
BBX 10 8 0 -1
BITMAP
555590
000080
106A80
540880
510880
16A480
000080
004000
ENDCHAR
STARTCHAR uni0932094D091C093C
ENCODING -1
SWIDTH 1062 0
DWIDTH 12 0
BBX 12 8 0 -1
BITMAP
555569
000004
1586A4
120044
510044
501604
240004
000400
ENDCHAR
STARTCHAR uni0936094D0915093C
ENCODING -1
SWIDTH 1093 0
DWIDTH 12 0
BBX 12 8 0 -1
BITMAP
295695
121594
025145
695145
205145
141654
080140
001000
ENDCHAR
STARTCHAR uni0924094D0924094D
ENCODING -1
SWIDTH 309 0
DWIDTH 3 0
BBX 5 7 0 0
BITMAP
5540
0000
6A40
2000
2000
2000
1400
ENDCHAR
STARTCHAR uni0928094D092D094D
ENCODING -1
SWIDTH 505 0
DWIDTH 6 0
BBX 7 5 0 2
BITMAP
5614
0100
0100
5694
4100
ENDCHAR
STARTCHAR uni0928094D0938094D
ENCODING -1
SWIDTH 635 0
DWIDTH 7 0
BBX 8 7 0 0
BITMAP
5565
0020
6920
41AA
4080
0050
0020
ENDCHAR
STARTCHAR uni092E094D092D094D
ENCODING -1
SWIDTH 533 0
DWIDTH 6 0
BBX 7 5 0 2
BITMAP
A604
1040
1040
2694
1040
ENDCHAR
STARTCHAR uni0932094D092D094D
ENCODING -1
SWIDTH 694 0
DWIDTH 8 0
BBX 9 7 0 0
BITMAP
556140
001400
19A400
121940
511400
500000
240000
ENDCHAR
STARTCHAR uni0938094D0924094D0930094D
ENCODING -1
SWIDTH 575 0
DWIDTH 6 0
BBX 8 7 0 0
BITMAP
5954
0800
0869
6A41
5001
2018
0450
ENDCHAR
STARTCHAR uni0915094D0924094D092F
ENCODING -1
SWIDTH 1356 0
DWIDTH 15 0
BBX 15 7 0 0
BITMAP
56955A64
15940220
5146A920
51442020
51481020
16440560
01420020
ENDCHAR
STARTCHAR uni0915094D0924094D0930
ENCODING -1
SWIDTH 997 0
DWIDTH 11 0
BBX 11 7 0 0
BITMAP
569564
155420
514A60
514820
514020
1641A0
014520
ENDCHAR
STARTCHAR uni0915094D0924094D0935
ENCODING -1
SWIDTH 1242 0
DWIDTH 14 0
BBX 14 7 0 0
BITMAP
56955590
15941480
514AA080
51482080
51482080
16481980
01450040
ENDCHAR
STARTCHAR uni0915094D092A094D0930
ENCODING -1
SWIDTH 1007 0
DWIDTH 11 0
BBX 11 7 0 0
BITMAP
569968
159810
514810
514420
5141A0
164150
014110
ENDCHAR
STARTCHAR uni0915094D0935094D092F
ENCODING -1
SWIDTH 1384 0
DWIDTH 15 0
BBX 15 7 0 0
BITMAP
56955A68
15964214
51440914
51441414
51451414
2A429564
01400014
ENDCHAR
STARTCHAR uni0915094D0938094D091F
ENCODING -1
SWIDTH 1376 0
DWIDTH 15 0
BBX 15 7 0 0
BITMAP
56959564
15948020
514482A0
5146A900
51420404
16414404
014082A0
ENDCHAR
STARTCHAR uni0915094D0938094D0921
ENCODING -1
SWIDTH 1388 0
DWIDTH 15 0
BBX 16 7 0 0
BITMAP
56959569
15948014
514482A0
5146A900
51420154
2A414108
01408264
ENDCHAR
STARTCHAR uni0915094D0938094D0924
ENCODING -1
SWIDTH 1423 0
DWIDTH 16 0
BBX 16 7 0 0
BITMAP
56959559
15948008
514481A8
5146AA08
51420108
16414108
01408248
ENDCHAR
STARTCHAR uni0915094D0938094D092A094D0930
ENCODING -1
SWIDTH 1437 0
DWIDTH 16 0
BBX 16 7 0 0
BITMAP
56959659
15948208
51448208
5146AA08
51420168
16414058
01408148
ENDCHAR
STARTCHAR uni0915094D0938094D092A094D0932
ENCODING -1
SWIDTH 1866 0
DWIDTH 21 0
BBX 21 7 0 0
BITMAP
569596555640
159482000200
514482066600
5146AA048200
514201A44200
164140040200
014080050200
ENDCHAR
STARTCHAR uni0917094D0927094D092F
ENCODING -1
SWIDTH 1156 0
DWIDTH 13 0
BBX 13 7 0 0
BITMAP
6695A640
21401200
20918200
21420200
51420200
00655600
00000200
ENDCHAR
STARTCHAR uni0917094D0927094D0935
ENCODING -1
SWIDTH 1084 0
DWIDTH 12 0
BBX 12 7 0 0
BITMAP
669559
214098
209208
214208
514208
006598
000004
ENDCHAR
STARTCHAR uni0917094D0928094D092F
ENCODING -1
SWIDTH 1069 0
DWIDTH 12 0
BBX 12 7 0 0
BITMAP
655699
200048
219A08
220808
510408
000158
000008
ENDCHAR
STARTCHAR uni0917094D092D094D092F
ENCODING -1
SWIDTH 1102 0
DWIDTH 12 0
BBX 12 7 0 0
BITMAP
66469A
204084
204644
209904
504508
000158
000004
ENDCHAR
STARTCHAR uni0917094D0930094D092F
ENCODING -1
SWIDTH 817 0
DWIDTH 9 0
BBX 9 8 0 -1
BITMAP
65A640
202200
219200
210200
514200
005A00
002200
004000
ENDCHAR
STARTCHAR uni091A094D091B094D0935
ENCODING -1
SWIDTH 913 0
DWIDTH 10 0
BBX 10 8 0 -1
BITMAP
55A590
004080
102440
204050
204050
1A6980
001080
001640
ENDCHAR
STARTCHAR uni091C094D091C094D091E
ENCODING -1
SWIDTH 945 0
DWIDTH 10 0
BBX 11 8 0 -1
BITMAP
5555A4
000010
2A8010
088010
086510
648210
009610
004000
ENDCHAR
STARTCHAR uni091C094D091C094D092F
ENCODING -1
SWIDTH 1252 0
DWIDTH 14 0
BBX 14 7 0 0
BITMAP
55556990
00000480
2929A080
08088080
08088080
64642580
00000080
ENDCHAR
STARTCHAR uni091C094D091C094D0935
ENCODING -1
SWIDTH 1243 0
DWIDTH 14 0
BBX 13 7 0 0
BITMAP
55555640
00001600
2A2A8200
08088200
08088200
64642600
00000200
ENDCHAR
STARTCHAR uni0924094D0915094D092F
ENCODING -1
SWIDTH 1346 0
DWIDTH 15 0
BBX 15 7 0 0
BITMAP
555A5A64
00550120
1A466820
51452020
51451020
50990560
24050020
ENDCHAR
STARTCHAR uni0924094D0915094D0930
ENCODING -1
SWIDTH 995 0
DWIDTH 11 0
BBX 11 8 0 -1
BITMAP
555A54
005650
1A4514
514514
514514
50A950
242500
004000
ENDCHAR
STARTCHAR uni0924094D0915094D0935
ENCODING -1
SWIDTH 1282 0
DWIDTH 14 0
BBX 14 7 0 0
BITMAP
555A55A0
00566940
1A452040
51452040
51451080
50990980
24050040
ENDCHAR
STARTCHAR uni0924094D0915094D0937
ENCODING -1
SWIDTH 943 0
DWIDTH 10 0
BBX 11 7 0 0
BITMAP
556924
004150
16AA90
504050
504150
505950
240110
ENDCHAR
STARTCHAR uni0924094D0916094D0930
ENCODING -1
SWIDTH 1008 0
DWIDTH 11 0
BBX 11 8 0 -1
BITMAP
556968
001410
2A1550
51A210
508220
5011A0
241550
000100
ENDCHAR
STARTCHAR uni0924094D0924094D092F
ENCODING -1
SWIDTH 888 0
DWIDTH 10 0
BBX 10 7 0 0
BITMAP
556990
000480
6A4480
20A080
208080
201580
140080
ENDCHAR
STARTCHAR uni0924094D0924094D0935
ENCODING -1
SWIDTH 788 0
DWIDTH 9 0
BBX 9 7 0 0
BITMAP
555640
005200
6A8200
208200
208200
206600
140100
ENDCHAR
STARTCHAR uni0924094D0928094D092F
ENCODING -1
SWIDTH 1098 0
DWIDTH 12 0
BBX 12 7 0 0
BITMAP
55569A
000084
155A44
514404
500508
500158
240004
ENDCHAR
STARTCHAR uni0924094D092A094D0930
ENCODING -1
SWIDTH 763 0
DWIDTH 8 0
BBX 9 7 0 0
BITMAP
569A40
014100
1A4100
514500
506900
502100
248100
ENDCHAR
STARTCHAR uni0924094D092A094D0932
ENCODING -1
SWIDTH 1219 0
DWIDTH 13 0
BBX 14 7 0 0
BITMAP
56955690
01400040
1A429A40
51452140
50691040
50050040
24024040
ENDCHAR
STARTCHAR uni0924094D092E094D092F
ENCODING -1
SWIDTH 1096 0
DWIDTH 12 0
BBX 12 7 0 0
BITMAP
56969A
014084
164644
519804
514508
500158
240004
ENDCHAR
STARTCHAR uni0924094D0930094D092F
ENCODING -1
SWIDTH 848 0
DWIDTH 9 0
BBX 10 7 0 0
BITMAP
556690
001140
292140
519140
014140
055640
200140
ENDCHAR
STARTCHAR uni0924094D0938094D092F
ENCODING -1
SWIDTH 1234 0
DWIDTH 14 0
BBX 14 7 0 0
BITMAP
55696990
00141480
1610A080
50AA8080
50808080
50206580
24100080
ENDCHAR
STARTCHAR uni0924094D0938094D0935
ENCODING -1
SWIDTH 1155 0
DWIDTH 13 0
BBX 13 7 0 0
BITMAP
55695640
00145200
2A108200
50AA8200
50808200
50206600
24100100
ENDCHAR
STARTCHAR uni0926094D0917094D0930
ENCODING -1
SWIDTH 493 0
DWIDTH 5 0
BBX 6 9 0 -2
BITMAP
5690
0040
2A40
5000
5040
1980
0480
2580
0840
ENDCHAR
STARTCHAR uni0926094D092C094D0930
ENCODING -1
SWIDTH 483 0
DWIDTH 5 0
BBX 6 10 0 -3
BITMAP
5690
0040
1A40
5000
5000
1080
2A80
1540
1600
0900
ENDCHAR
STARTCHAR uni0926094D092F094D092D
ENCODING -1
SWIDTH 607 0
DWIDTH 7 0
BBX 7 9 0 -2
BITMAP
5664
1520
2020
2820
2020
16A0
5220
0820
0120
ENDCHAR
STARTCHAR uni0926094D092F094D0930
ENCODING -1
SWIDTH 595 0
DWIDTH 7 0
BBX 7 8 0 -1
BITMAP
5A64
1520
1020
2420
1020
1020
25A0
0100
ENDCHAR
STARTCHAR uni0927094D0928094D092F
ENCODING -1
SWIDTH 1138 0
DWIDTH 13 0
BBX 13 7 0 0
BITMAP
A555A640
10005200
24568200
10820200
10820200
16819600
00000200
ENDCHAR
STARTCHAR uni0928094D0915094D0938
ENCODING -1
SWIDTH 1384 0
DWIDTH 15 0
BBX 16 7 0 0
BITMAP
55595A69
00598114
01082114
42082AA4
42081414
00980814
00080514
ENDCHAR
STARTCHAR uni0928094D0924094D092F
ENCODING -1
SWIDTH 1073 0
DWIDTH 12 0
BBX 12 7 0 0
BITMAP
555699
000048
005A08
560808
420408
020158
018008
ENDCHAR
STARTCHAR uni0928094D0924094D0930
ENCODING -1
SWIDTH 732 0
DWIDTH 8 0
BBX 8 7 0 0
BITMAP
555A
0004
0058
6608
8104
0018
0144
ENDCHAR
STARTCHAR uni0928094D0924094D0938
ENCODING -1
SWIDTH 1134 0
DWIDTH 12 0
BBX 13 7 0 0
BITMAP
55559A40
00008100
00A48100
4206A900
42020100
02010100
01808100
ENDCHAR
STARTCHAR uni0928094D0925094D092F
ENCODING -1
SWIDTH 1168 0
DWIDTH 13 0
BBX 13 7 0 0
BITMAP
54A1A640
01142200
00158200
66520200
42020200
00A9AA00
00000200
ENDCHAR
STARTCHAR uni0928094D0925094D0935
ENCODING -1
SWIDTH 1089 0
DWIDTH 12 0
BBX 12 7 0 0
BITMAP
54A159
011498
001608
665208
420208
00A598
000004
ENDCHAR
STARTCHAR uni0928094D0926094D0930
ENCODING -1
SWIDTH 734 0
DWIDTH 8 0
BBX 8 8 0 -1
BITMAP
555A
0004
00A8
5600
4205
00A9
0025
0040
ENDCHAR
STARTCHAR uni0928094D0926094D0935
ENCODING -1
SWIDTH 732 0
DWIDTH 8 0
BBX 8 9 0 -2
BITMAP
555A
0004
00A8
6600
4204
0199
0105
0105
0054
ENDCHAR
STARTCHAR uni0928094D0927094D092F
ENCODING -1
SWIDTH 1097 0
DWIDTH 12 0
BBX 12 7 0 0
BITMAP
56869A
020084
6A9644
420404
420508
01A558
000004
ENDCHAR
STARTCHAR uni0928094D0927094D0930
ENCODING -1
SWIDTH 783 0
DWIDTH 9 0
BBX 9 8 0 -1
BITMAP
568640
020200
020200
669200
420200
01AA00
002100
004000
ENDCHAR
STARTCHAR uni0928094D0927094D0935
ENCODING -1
SWIDTH 1036 0
DWIDTH 11 0
BBX 12 7 0 0
BITMAP
568569
020144
6A9104
420504
020114
01A564
000004
ENDCHAR
STARTCHAR uni0928094D0928094D092F
ENCODING -1
SWIDTH 1071 0
DWIDTH 12 0
BBX 12 7 0 0
BITMAP
555699
000048
669A08
820808
410408
000158
000008
ENDCHAR
STARTCHAR uni0928094D092A094D0930
ENCODING -1
SWIDTH 737 0
DWIDTH 8 0
BBX 8 7 0 0
BITMAP
565A
0204
6604
8104
4068
0054
0044
ENDCHAR
STARTCHAR uni0928094D092B094D0930
ENCODING -1
SWIDTH 975 0
DWIDTH 11 0
BBX 11 7 0 0
BITMAP
565954
020950
660820
810810
406820
005890
014800
ENDCHAR
STARTCHAR uni0928094D092D094D092F
ENCODING -1
SWIDTH 1071 0
DWIDTH 12 0
BBX 12 7 0 0
BITMAP
561699
020048
010608
569808
410808
000258
000008
ENDCHAR
STARTCHAR uni0928094D092D094D0935
ENCODING -1
SWIDTH 995 0
DWIDTH 11 0
BBX 11 7 0 0
BITMAP
561564
020260
010420
569820
410820
000660
000010
ENDCHAR
STARTCHAR uni0928094D092E094D092F
ENCODING -1
SWIDTH 1071 0
DWIDTH 12 0
BBX 12 7 0 0
BITMAP
569699
010048
010608
569808
410808
000258
000008
ENDCHAR
STARTCHAR uni0928094D0938094D091F
ENCODING -1
SWIDTH 1113 0
DWIDTH 12 0
BBX 13 7 0 0
BITMAP
55655A40
00200400
29204000
42AA4000
40414100
00814200
0020A900
ENDCHAR
STARTCHAR uni0928094D0938094D092E094D092F
ENCODING -1
SWIDTH 1453 0
DWIDTH 16 0
BBX 16 7 0 0
BITMAP
55669699
00214088
69114648
82A69808
41414508
00800158
00100008
ENDCHAR
STARTCHAR uni0928094D0938094D092F
ENCODING -1
SWIDTH 1194 0
DWIDTH 13 0
BBX 13 7 0 0
BITMAP
5565A680
00202200
69119200
82AA0200
41414200
00805600
00100100
ENDCHAR
STARTCHAR uni092A094D0924094D092F
ENCODING -1
SWIDTH 1119 0
DWIDTH 12 0
BBX 13 7 0 0
BITMAP
A5559A40
10008500
106A4500
10810500
1A410500
00415900
00900500
ENDCHAR
STARTCHAR uni092C094D091C094D092F
ENCODING -1
SWIDTH 1235 0
DWIDTH 14 0
BBX 14 7 0 0
BITMAP
55556990
00001480
106AA080
58088080
51088080
16A46580
00000080
ENDCHAR
STARTCHAR uni092C094D0927094D0935
ENCODING -1
SWIDTH 1097 0
DWIDTH 12 0
BBX 12 7 0 0
BITMAP
55915A
148054
60A104
548204
528108
195598
000004
ENDCHAR
STARTCHAR uni092C094D092D094D0930
ENCODING -1
SWIDTH 764 0
DWIDTH 8 0
BBX 9 7 0 0
BITMAP
560A40
144100
604100
59A900
524900
161500
004100
ENDCHAR
STARTCHAR uni092C094D0932094D092F
ENCODING -1
SWIDTH 480 0
DWIDTH 5 0
BBX 15 7 0 0
BITMAP
555559A4
14664510
70881410
58482410
52441050
19401550
00500010
ENDCHAR
STARTCHAR uni092D094D0930094D092F
ENCODING -1
SWIDTH 830 0
DWIDTH 9 0
BBX 9 7 0 0
BITMAP
81A680
102100
119100
264100
124200
085600
100100
ENDCHAR
STARTCHAR uni092E094D092A094D0930
ENCODING -1
SWIDTH 765 0
DWIDTH 8 0
BBX 9 7 0 0
BITMAP
A69A40
114100
114100
264500
106900
002100
008100
ENDCHAR
STARTCHAR uni092E094D092C094D092F
ENCODING -1
SWIDTH 1124 0
DWIDTH 12 0
BBX 13 7 0 0
BITMAP
A5559A40
10508500
11824500
26510500
114A0500
00955900
00000100
ENDCHAR
STARTCHAR uni092E094D092C094D0930
ENCODING -1
SWIDTH 768 0
DWIDTH 8 0
BBX 9 8 0 -1
BITMAP
A55A40
105100
108100
265500
114900
006900
002100
004000
ENDCHAR
STARTCHAR uni092E094D092D094D092F
ENCODING -1
SWIDTH 1101 0
DWIDTH 12 0
BBX 12 7 0 0
BITMAP
A6069A
104084
104644
269904
104508
000158
000004
ENDCHAR
STARTCHAR uni092E094D092D094D0930
ENCODING -1
SWIDTH 759 0
DWIDTH 8 0
BBX 9 7 0 0
BITMAP
A60A40
114500
114500
269900
114900
002500
004500
ENDCHAR
STARTCHAR uni092E094D092D094D0935
ENCODING -1
SWIDTH 1028 0
DWIDTH 11 0
BBX 12 7 0 0
BITMAP
A60569
104154
104514
269914
104514
000264
000014
ENDCHAR
STARTCHAR uni0932094D0915094D092F
ENCODING -1
SWIDTH 1534 0
DWIDTH 17 0
BBX 17 7 0 0
BITMAP
5555A5A640
0005502200
19A4668200
1214520200
5114510200
5005905600
2400500200
ENDCHAR
STARTCHAR uni0932094D0925094D092F
ENCODING -1
SWIDTH 1397 0
DWIDTH 15 0
BBX 16 7 0 0
BITMAP
55465669
00088104
12108904
121A4404
51040814
50055554
24000004
ENDCHAR
STARTCHAR uni0932094D0926094D0930
ENCODING -1
SWIDTH 933 0
DWIDTH 10 0
BBX 11 8 0 -1
BITMAP
5555A4
000050
199A90
121400
511410
500A90
240250
000100
ENDCHAR
STARTCHAR uni0932094D0932094D092F
ENCODING -1
SWIDTH 1476 0
DWIDTH 16 0
BBX 17 7 0 0
BITMAP
5555569A40
19AA648500
1214848500
5214864500
5114410500
1014015900
2409000500
ENDCHAR
STARTCHAR uni0932094D0935094D0921
ENCODING -1
SWIDTH 1247 0
DWIDTH 14 0
BBX 14 7 0 0
BITMAP
55555590
00050080
15941A40
12142000
51141540
50059080
24002580
ENDCHAR
STARTCHAR uni0937094D0915094D0930
ENCODING -1
SWIDTH 1042 0
DWIDTH 11 0
BBX 12 8 0 -1
BITMAP
A55655
246664
158208
218208
198208
006A64
001600
001000
ENDCHAR
STARTCHAR uni0937094D091F094D092F
ENCODING -1
SWIDTH 997 0
DWIDTH 11 0
BBX 11 7 0 0
BITMAP
B59564
149520
128220
100920
504820
508560
254020
ENDCHAR
STARTCHAR uni0937094D091F094D0930
ENCODING -1
SWIDTH 493 0
DWIDTH 5 0
BBX 6 9 0 -2
BITMAP
B590
2480
1180
2A40
5000
5040
2540
0A00
2140
ENDCHAR
STARTCHAR uni0937094D091F094D0935
ENCODING -1
SWIDTH 493 0
DWIDTH 5 0
BBX 6 10 0 -3
BITMAP
B590
2480
1180
2A40
5000
5080
2A80
2040
1040
1500
ENDCHAR
STARTCHAR uni0937094D0920094D092F
ENCODING -1
SWIDTH 1006 0
DWIDTH 11 0
BBX 11 7 0 0
BITMAP
BFD568
3FD510
3F4210
258910
508820
108560
254010
ENDCHAR
STARTCHAR uni0937094D0920094D0930
ENCODING -1
SWIDTH 512 0
DWIDTH 6 0
BBX 6 9 0 -2
BITMAP
BFD0
3F80
3F80
2A40
5080
5080
2540
1600
1040
ENDCHAR
STARTCHAR uni0937094D0923094D092F
ENCODING -1
SWIDTH 1273 0
DWIDTH 14 0
BBX 14 7 0 0
BITMAP
A59A6990
24850880
15856480
11854080
15545080
00001580
00000080
ENDCHAR
STARTCHAR uni0937094D092A094D0930
ENCODING -1
SWIDTH 798 0
DWIDTH 9 0
BBX 9 7 0 0
BITMAP
A59640
248200
158200
118200
195A00
001600
005200
ENDCHAR
STARTCHAR uni0937094D092E094D092F
ENCODING -1
SWIDTH 1121 0
DWIDTH 12 0
BBX 13 7 0 0
BITMAP
A5959A40
24808500
14824500
21990500
19420500
00015500
00000500
ENDCHAR
STARTCHAR uni0938094D0915094D0930
ENCODING -1
SWIDTH 1084 0
DWIDTH 12 0
BBX 12 8 0 -1
BITMAP
595695
081594
085145
6A8145
505145
202A54
040940
001000
ENDCHAR
STARTCHAR uni0938094D0915094D0935
ENCODING -1
SWIDTH 1369 0
DWIDTH 15 0
BBX 15 7 0 0
BITMAP
59569568
08159650
08514810
6A814810
50514420
20264260
04014010
ENDCHAR
STARTCHAR uni0938094D0924094D092F
ENCODING -1
SWIDTH 1185 0
DWIDTH 13 0
BBX 13 7 0 0
BITMAP
5955A680
08002200
081A9200
6A910200
50414200
20505600
04240100
ENDCHAR
STARTCHAR uni0938094D0924094D0930
ENCODING -1
SWIDTH 818 0
DWIDTH 9 0
BBX 9 7 0 0
BITMAP
595640
080200
086600
6A8200
500200
200A00
045200
ENDCHAR
STARTCHAR uni0938094D0924094D0935
ENCODING -1
SWIDTH 1126 0
DWIDTH 12 0
BBX 13 7 0 0
BITMAP
59555A40
08005100
08264100
6A914100
50414500
20505900
04240100
ENDCHAR
STARTCHAR uni0938094D0925094D092F
ENCODING -1
SWIDTH 1303 0
DWIDTH 14 0
BBX 15 7 0 0
BITMAP
592959A4
08120850
08022450
6AA81050
50102050
201A5A90
04000050
ENDCHAR
STARTCHAR uni0938094D092A094D0930
ENCODING -1
SWIDTH 850 0
DWIDTH 9 0
BBX 10 7 0 0
BITMAP
59A690
085140
085140
6A9140
501A40
200940
042140
ENDCHAR
STARTCHAR uni0938094D092E094D092F
ENCODING -1
SWIDTH 1189 0
DWIDTH 13 0
BBX 13 7 0 0
BITMAP
59A5A680
08502100
08519100
6AAA0100
50514200
20005600
04000100
ENDCHAR
STARTCHAR uni093F.a01
ENCODING -1
SWIDTH 231 0
DWIDTH 3 0
BBX 6 10 0 0
BITMAP
2A80
2050
2000
6400
2000
2000
2000
2000
2000
2000
ENDCHAR
STARTCHAR uni093F.a04
ENCODING -1
SWIDTH 231 0
DWIDTH 3 0
BBX 7 10 0 0
BITMAP
2AA4
2008
2000
6400
2000
2000
2000
2000
2000
2000
ENDCHAR
STARTCHAR uni093F.a05
ENCODING -1
SWIDTH 231 0
DWIDTH 3 0
BBX 8 10 0 0
BITMAP
2AA8
2001
2000
6400
2000
2000
2000
2000
2000
2000
ENDCHAR
STARTCHAR uni093F.a06
ENCODING -1
SWIDTH 231 0
DWIDTH 3 0
BBX 8 10 0 0
BITMAP
2AA9
2002
2000
6400
2000
2000
2000
2000
2000
2000
ENDCHAR
STARTCHAR uni093F.a07
ENCODING -1
SWIDTH 231 0
DWIDTH 3 0
BBX 9 10 0 0
BITMAP
2AAA40
200040
200000
640000
200000
200000
200000
200000
200000
200000
ENDCHAR
STARTCHAR uni093F.a08
ENCODING -1
SWIDTH 231 0
DWIDTH 3 0
BBX 9 10 0 0
BITMAP
2AAA80
200080
200000
640000
200000
200000
200000
200000
200000
200000
ENDCHAR
STARTCHAR uni093F.a09
ENCODING -1
SWIDTH 231 0
DWIDTH 3 0
BBX 10 10 0 0
BITMAP
2AAA90
200010
200000
640000
200000
200000
200000
200000
200000
200000
ENDCHAR
STARTCHAR uni093F.a10
ENCODING -1
SWIDTH 231 0
DWIDTH 3 0
BBX 10 10 0 0
BITMAP
2AAA60
200020
200000
640000
200000
200000
200000
200000
200000
200000
ENDCHAR
STARTCHAR uni093F.a11
ENCODING -1
SWIDTH 231 0
DWIDTH 3 0
BBX 11 10 0 0
BITMAP
2AAAA4
200008
200000
640000
200000
200000
200000
200000
200000
200000
ENDCHAR
STARTCHAR uni093F.a12
ENCODING -1
SWIDTH 231 0
DWIDTH 3 0
BBX 11 10 0 0
BITMAP
2AAA98
200004
200000
640000
200000
200000
200000
200000
200000
200000
ENDCHAR
STARTCHAR uni093F.a13
ENCODING -1
SWIDTH 231 0
DWIDTH 3 0
BBX 12 10 0 0
BITMAP
2AAAA9
200002
200000
640000
200000
200000
200000
200000
200000
200000
ENDCHAR
STARTCHAR uni093F.a14
ENCODING -1
SWIDTH 231 0
DWIDTH 3 0
BBX 12 10 0 0
BITMAP
2AAAA6
200001
200000
640000
200000
200000
200000
200000
200000
200000
ENDCHAR
STARTCHAR uni093F.a15
ENCODING -1
SWIDTH 231 0
DWIDTH 3 0
BBX 13 10 0 0
BITMAP
2AAAAA40
20000080
20000000
64000000
20000000
20000000
20000000
20000000
20000000
20000000
ENDCHAR
STARTCHAR uni093F.a16
ENCODING -1
SWIDTH 231 0
DWIDTH 3 0
BBX 13 10 0 0
BITMAP
2AAAA980
20000040
20000000
64000000
20000000
20000000
20000000
20000000
20000000
20000000
ENDCHAR
STARTCHAR uni093F.a17
ENCODING -1
SWIDTH 231 0
DWIDTH 3 0
BBX 14 10 0 0
BITMAP
2AAAAA90
20000020
20000000
64000000
20000000
20000000
20000000
20000000
20000000
20000000
ENDCHAR
STARTCHAR uni093F.a18
ENCODING -1
SWIDTH 231 0
DWIDTH 3 0
BBX 14 10 0 0
BITMAP
2AAAAAA0
20000010
20000000
64000000
20000000
20000000
20000000
20000000
20000000
20000000
ENDCHAR
STARTCHAR uni093F.a19
ENCODING -1
SWIDTH 231 0
DWIDTH 3 0
BBX 15 10 0 0
BITMAP
2AAAAAA4
20000008
20000000
64000000
20000000
20000000
20000000
20000000
20000000
20000000
ENDCHAR
STARTCHAR uni093F.a20
ENCODING -1
SWIDTH 231 0
DWIDTH 3 0
BBX 16 10 0 0
BITMAP
2AAAAAA8
20000005
20000000
64000000
20000000
20000000
20000000
20000000
20000000
20000000
ENDCHAR
STARTCHAR uni093F.a21
ENCODING -1
SWIDTH 231 0
DWIDTH 3 0
BBX 16 10 0 0
BITMAP
2AAAAAA9
20000002
20000000
64000000
20000000
20000000
20000000
20000000
20000000
20000000
ENDCHAR
STARTCHAR uni093F.a22
ENCODING -1
SWIDTH 231 0
DWIDTH 3 0
BBX 17 10 0 0
BITMAP
2AAAAAA600
2000000140
2000000000
6400000000
2000000000
2000000000
2000000000
2000000000
2000000000
2000000000
ENDCHAR
STARTCHAR uni093F.a23
ENCODING -1
SWIDTH 231 0
DWIDTH 3 0
BBX 17 10 0 0
BITMAP
2AAAAAAA40
2000000080
2000000000
6400000000
2000000000
2000000000
2000000000
2000000000
2000000000
2000000000
ENDCHAR
STARTCHAR uni093F.a24
ENCODING -1
SWIDTH 231 0
DWIDTH 3 0
BBX 18 10 0 0
BITMAP
2AAAAAA980
2000000050
2000000000
6400000000
2000000000
2000000000
2000000000
2000000000
2000000000
2000000000
ENDCHAR
STARTCHAR uni093F.a25
ENCODING -1
SWIDTH 231 0
DWIDTH 3 0
BBX 18 10 0 0
BITMAP
2AAAAAAA90
2000000020
2000000000
6400000000
2000000000
2000000000
2000000000
2000000000
2000000000
2000000000
ENDCHAR
STARTCHAR uni093F.a26
ENCODING -1
SWIDTH 231 0
DWIDTH 3 0
BBX 19 10 0 0
BITMAP
2AAAAAAA60
2000000014
2000000000
6400000000
2000000000
2000000000
2000000000
2000000000
2000000000
2000000000
ENDCHAR
STARTCHAR uni093F.a32
ENCODING -1
SWIDTH 231 0
DWIDTH 3 0
BBX 23 10 0 0
BITMAP
2AAAAAAAAA60
200000000014
200000000000
640000000000
200000000000
200000000000
200000000000
200000000000
200000000000
200000000000
ENDCHAR
STARTCHAR uni093E0901
ENCODING -1
SWIDTH 231 0
DWIDTH 3 0
BBX 4 10 -1 0
BITMAP
04
41
15
19
08
08
08
08
08
08
ENDCHAR
STARTCHAR dvNG_GA
ENCODING -1
SWIDTH 562 0
DWIDTH 6 0
BBX 6 11 0 -4
BITMAP
5590
0080
1540
1010
1540
0040
2A80
1440
1440
5040
0040
ENDCHAR
STARTCHAR dvNG_MA
ENCODING -1
SWIDTH 728 0
DWIDTH 8 0
BBX 8 10 0 -3
BITMAP
5699
1648
1008
1608
0088
5088
2648
0258
0208
0008
ENDCHAR
STARTCHAR dvNY_CA
ENCODING -1
SWIDTH 963 0
DWIDTH 11 0
BBX 11 7 0 0
BITMAP
555564
240020
042920
065420
041020
640A60
000020
ENDCHAR
STARTCHAR dvTT_GA
ENCODING -1
SWIDTH 510 0
DWIDTH 6 0
BBX 6 10 0 -3
BITMAP
5690
0080
1540
1000
5040
5040
2A80
1440
6040
0040
ENDCHAR
STARTCHAR dvTTH_TTHA
ENCODING -1
SWIDTH 511 0
DWIDTH 6 0
BBX 6 11 0 -4
BITMAP
5690
0140
1A40
5080
5080
1A40
1600
1040
5080
5080
1A40
ENDCHAR
STARTCHAR dvDD_GA
ENCODING -1
SWIDTH 541 0
DWIDTH 6 0
BBX 6 11 0 -4
BITMAP
5590
0080
1540
1000
1540
0040
2A80
1440
1440
5040
0040
ENDCHAR
STARTCHAR dvDDH_DDHA
ENCODING -1
SWIDTH 487 0
DWIDTH 5 0
BBX 6 10 0 -3
BITMAP
5690
1600
1000
5240
1480
2940
1100
5580
1080
1A40
ENDCHAR
STARTCHAR dvSHA_MatraVocalicR
ENCODING -1
SWIDTH 558 0
DWIDTH 6 0
BBX 6 10 0 -3
BITMAP
2960
5240
2540
2940
4180
0040
0080
0200
0100
0160
ENDCHAR
STARTCHAR dvT_KH_NA
ENCODING -1
SWIDTH 1341 0
DWIDTH 15 0
BBX 15 7 0 0
BITMAP
55695564
00140020
2A159020
51A22420
50821820
50215020
24140020
ENDCHAR
STARTCHAR dvT_S_NA
ENCODING -1
SWIDTH 1169 0
DWIDTH 13 0
BBX 13 7 0 0
BITMAP
55695640
00140200
2A100200
50AA8200
50804200
50200200
24100200
ENDCHAR
ENDFONT
